<?xml version="1.0"?>
<svg xmlns="http://www.w3.org/2000/svg" xmlns:xlink="http://www.w3.org/1999/xlink" xmlns:svgjs="http://svgjs.com/svgjs" version="1.1" width="512" height="512" x="0" y="0" viewBox="0 0 489.154 489.154" style="enable-background:new 0 0 512 512" xml:space="preserve" class=""><g>
<g xmlns="http://www.w3.org/2000/svg">
	<g>
		<polygon points="0,386.634 143.542,214.88 0,99.551   " fill="#101024" data-original="#000000" style="" class=""/>
		<polygon points="489.154,386.634 489.154,99.551 345.611,214.88   " fill="#101024" data-original="#000000" style="" class=""/>
		<polygon points="487.937,398.675 489.154,398.675 489.154,397.657   " fill="#101024" data-original="#000000" style="" class=""/>
		<polygon points="0,398.675 1.219,398.675 0,397.657   " fill="#101024" data-original="#000000" style="" class=""/>
		<polygon points="480.793,398.675 479.939,397.657 334.587,223.736 244.577,296.058 154.567,223.736 9.215,397.657 8.361,398.675       " fill="#101024" data-original="#000000" style="" class=""/>
		<polygon points="152.61,204.029 158.121,208.459 163.635,212.888 244.577,277.923 325.52,212.888 331.033,208.459     336.544,204.029 477.866,90.479 11.287,90.479   " fill="#101024" data-original="#000000" style="" class=""/>
	</g>
</g>
<g xmlns="http://www.w3.org/2000/svg">
</g>
<g xmlns="http://www.w3.org/2000/svg">
</g>
<g xmlns="http://www.w3.org/2000/svg">
</g>
<g xmlns="http://www.w3.org/2000/svg">
</g>
<g xmlns="http://www.w3.org/2000/svg">
</g>
<g xmlns="http://www.w3.org/2000/svg">
</g>
<g xmlns="http://www.w3.org/2000/svg">
</g>
<g xmlns="http://www.w3.org/2000/svg">
</g>
<g xmlns="http://www.w3.org/2000/svg">
</g>
<g xmlns="http://www.w3.org/2000/svg">
</g>
<g xmlns="http://www.w3.org/2000/svg">
</g>
<g xmlns="http://www.w3.org/2000/svg">
</g>
<g xmlns="http://www.w3.org/2000/svg">
</g>
<g xmlns="http://www.w3.org/2000/svg">
</g>
<g xmlns="http://www.w3.org/2000/svg">
</g>
</g></svg>
