<svg width="37" height="36" viewBox="0 0 37 36" fill="none" xmlns="http://www.w3.org/2000/svg">
<path d="M32.2199 0H4.27697C1.91865 0 0 1.89253 0 4.21875V31.7813C0 34.1075 1.91865 36 4.27697 36H32.2199C34.5782 36 36.4968 34.1075 36.4968 31.7813V4.21875C36.4968 1.89253 34.5782 0 32.2199 0ZM33.6455 31.7813C33.6455 32.5567 33.006 33.1875 32.2199 33.1875H24.0936V21.7265H28.4982L29.226 17.3672H24.0936V14.3437C24.0936 13.1502 25.022 12.2344 26.2321 12.2344H29.1547V7.875H26.2321C22.6022 7.875 19.6756 10.7754 19.6756 14.356V17.3672H15.3971V21.7265H19.6756V33.1875H4.27697C3.49087 33.1875 2.85131 32.5567 2.85131 31.7813V4.21875C2.85131 3.44335 3.49087 2.8125 4.27697 2.8125H32.2199C33.006 2.8125 33.6455 3.44335 33.6455 4.21875V31.7813Z" fill="white"/>
</svg>
