<svg width="37" height="36" viewBox="0 0 37 36" fill="none" xmlns="http://www.w3.org/2000/svg">
<path d="M31.4871 0H5.825C2.87727 0 0.407654 2.43622 0.407654 5.34375V30.6563C0.407654 33.5638 2.87727 36 5.825 36H31.4871C34.4348 36 36.9045 33.5638 36.9045 30.6563V5.34375C36.9045 2.43622 34.4348 0 31.4871 0ZM32.5565 26.4375C32.5565 29.345 30.1574 31.711 27.2097 31.711H10.1024C7.1547 31.711 4.75564 29.345 4.75564 26.4375V9.5625C4.75564 6.65496 7.1547 4.28906 10.1024 4.28906H27.2097C30.1574 4.28906 32.5565 6.65496 32.5565 9.5625V26.4375Z" fill="white"/>
<path d="M18.6561 12.7266C15.7083 12.7266 13.3099 15.0925 13.3099 18C13.3099 20.9076 15.7083 23.2735 18.6561 23.2735C21.6038 23.2735 24.0022 20.9076 24.0022 18C24.0022 15.0925 21.6038 12.7266 18.6561 12.7266Z" fill="white"/>
<path d="M27.2097 6.39844H10.1024C8.33354 6.39844 6.89435 7.81786 6.89435 9.56248V26.4375C6.89435 28.1821 8.33354 29.6015 10.1024 29.6015H27.2097C28.9786 29.6015 30.4178 28.1821 30.4178 26.4375V9.56248C30.4178 7.81786 28.9786 6.39844 27.2097 6.39844ZM18.6561 25.3828C14.5295 25.3828 11.1712 22.0704 11.1712 18C11.1712 13.9295 14.5295 10.6172 18.6561 10.6172C22.7826 10.6172 26.1409 13.9295 26.1409 18C26.1409 22.0704 22.7826 25.3828 18.6561 25.3828ZM26.1409 12.7265C24.9621 12.7265 24.0022 11.7801 24.0022 10.6172C24.0022 9.45424 24.9621 8.5078 26.1409 8.5078C27.3198 8.5078 28.2791 9.45424 28.2791 10.6172C28.2791 11.7801 27.3198 12.7265 26.1409 12.7265Z" fill="white"/>
</svg>
