<svg width="38" height="36" viewBox="0 0 38 36" fill="none" xmlns="http://www.w3.org/2000/svg">
<path d="M33.7675 0H4.57006C2.56274 0 0.92038 1.62 0.92038 3.6V32.4C0.92038 34.38 2.56274 36 4.57006 36H33.7675C35.7748 36 37.4172 34.38 37.4172 32.4V3.6C37.4172 1.62 35.7748 0 33.7675 0ZM11.8694 30.6H6.3949V14.4H11.8694V30.6ZM9.13216 11.34C7.30732 11.34 5.84745 9.9 5.84745 8.1C5.84745 6.3 7.30732 4.86 9.13216 4.86C10.957 4.86 12.4169 6.3 12.4169 8.1C12.4169 9.9 10.957 11.34 9.13216 11.34ZM31.9427 30.6H26.4681V21.06C26.4681 19.6201 25.1908 18.36 23.7309 18.36C22.271 18.36 20.9936 19.6201 20.9936 21.06V30.6H15.5191V14.4H20.9936V16.56C21.906 15.12 23.9134 14.04 25.5557 14.04C29.0229 14.04 31.9427 16.92 31.9427 20.34V30.6Z" fill="white"/>
</svg>
