<svg width="146" height="113" viewBox="0 0 146 113" fill="none" xmlns="http://www.w3.org/2000/svg">
<g filter="url(#filter0_i)">
<path d="M46.1867 5.72904C45.9168 6.00321 45.6087 6.24349 45.2668 6.44048C44.7417 6.74276 44.1581 6.93034 43.5568 6.99253C44.0864 8.3118 44.0387 9.86469 43.4296 11.1513C43.3203 11.3867 43.0385 11.4835 42.8118 11.375C42.5795 11.2656 42.4796 10.9879 42.5888 10.7549C43.5264 8.85985 42.769 6.35073 41.002 5.3025C40.3347 4.98493 39.6017 4.81799 38.8608 4.81799C32.1081 5.17018 32.3628 14.4648 38.2674 16.2759C38.5343 16.3689 38.7831 16.4433 39.0237 16.5153C39.646 16.7014 40.183 16.8621 40.7254 17.2629L40.8147 17.3289C40.9783 17.4501 41.2017 17.4501 41.3657 17.3289L41.455 17.2629C41.997 16.8621 42.5344 16.7014 43.1563 16.5153C43.3973 16.4433 43.6461 16.3689 43.913 16.2759C48.365 14.9687 50.1527 8.52835 46.1867 5.72904Z" fill="#1B33B1"/>
<path d="M42.7934 5.66758C42.8996 5.80118 42.9987 5.94002 43.0906 6.08304C43.6829 6.08756 44.2748 5.93637 44.8044 5.63183C45.8646 5.02099 46.5139 3.88131 46.4986 2.65764C46.4967 2.49486 46.41 2.34491 46.2704 2.26213C45.2176 1.63823 43.9058 1.62958 42.8467 2.23972C42.0364 2.7064 41.4666 3.48189 41.2497 4.36755C41.8401 4.69039 42.3674 5.13135 42.7934 5.66758Z" fill="#118C01"/>
</g>
<path d="M46.5053 68.1255C46.5053 68.8216 46.3207 69.4137 45.9513 69.9018C45.582 70.381 44.992 70.6205 44.1813 70.6205C43.3706 70.6205 42.7716 70.39 42.3843 69.9289C41.997 69.4679 41.8033 68.912 41.8033 68.2611C41.8033 67.2305 42.2852 66.4214 43.249 65.8338C44.2128 65.2462 45.7532 64.9524 47.87 64.9524H48.478C51.928 64.9524 53.6529 65.8745 53.6529 67.7187C53.6529 68.6408 53.2251 69.2916 52.3693 69.6713C52.8918 69.8521 53.3061 70.1504 53.6124 70.5663C53.9187 70.9731 54.0718 71.4658 54.0718 72.0443C54.0718 72.8218 53.761 73.4636 53.1395 73.9698C52.518 74.467 51.6172 74.7156 50.4372 74.7156C50.239 74.7156 49.7796 74.693 49.059 74.6478C48.3384 74.6026 47.7619 74.58 47.3295 74.58H45.8162V72.9528H47.1268V66.5932C45.7757 66.6294 44.8299 66.7785 44.2894 67.0407C43.758 67.2938 43.4922 67.6825 43.4922 68.2068C43.4922 68.7312 43.7219 68.9933 44.1813 68.9933C44.6047 68.9933 44.8164 68.704 44.8164 68.1255H46.5053ZM49.4238 70.6883V69.0611H50.4912C50.8335 69.0611 51.1173 68.9617 51.3425 68.7628C51.5767 68.5639 51.6937 68.2611 51.6937 67.8543C51.6937 67.4384 51.4821 67.122 51.0587 66.9051C50.6353 66.6881 49.9102 66.5796 48.8833 66.5796V72.9935C49.7841 73.0568 50.4147 73.0884 50.775 73.0884C51.1353 73.0884 51.446 72.9754 51.7073 72.7494C51.9775 72.5234 52.1126 72.2206 52.1126 71.8409C52.1126 71.4522 51.9775 71.1629 51.7073 70.9731C51.437 70.7832 51.0812 70.6883 50.6398 70.6883H49.4238ZM54.5758 65.9016V64.41H57.3727V73.0884H58.5482V74.58H54.5623V73.0884H55.6162V65.9016H54.5758ZM61.9644 74.7292C61.1177 74.7292 60.5322 74.4806 60.2079 73.9834C59.8836 73.4771 59.7215 72.7856 59.7215 71.9087V69.2238H58.6811V67.8H61.478V71.9087C61.478 72.3065 61.532 72.6048 61.6401 72.8037C61.7572 73.0025 62.005 73.102 62.3833 73.102C62.7616 73.102 63.3201 72.8263 64.0587 72.2748V69.2916H63.221V67.8H65.8152V73.1562H66.9232V74.336C66.5358 74.5439 66.0269 74.6478 65.3964 74.6478C64.7748 74.6478 64.374 74.4173 64.1938 73.9563C63.3651 74.4715 62.622 74.7292 61.9644 74.7292ZM73.5153 71.1358V71.8545H68.9484C68.9754 72.2161 69.124 72.5144 69.3943 72.7494C69.6735 72.9754 69.9978 73.0884 70.3671 73.0884C70.7364 73.0884 71.0472 73.0613 71.2994 73.0071C71.5606 72.9528 71.7408 72.9031 71.8399 72.8579C71.948 72.8127 72.1056 72.7313 72.3128 72.6138L72.6371 72.4375L73.3397 73.8071C72.601 74.4128 71.6822 74.7156 70.5833 74.7156C69.4844 74.7156 68.6421 74.3857 68.0566 73.7257C67.4801 73.0568 67.1919 72.2115 67.1919 71.19C67.1919 70.1685 67.4801 69.3278 68.0566 68.6679C68.6421 67.9989 69.4348 67.6644 70.4347 67.6644C71.4435 67.6644 72.2092 67.9899 72.7316 68.6407C73.2541 69.2916 73.5153 70.1233 73.5153 71.1358ZM71.7588 70.4849C71.7228 70.1233 71.5967 69.834 71.3805 69.6171C71.1733 69.4001 70.8715 69.2916 70.4752 69.2916C70.0879 69.2916 69.7636 69.4046 69.5024 69.6306C69.2502 69.8476 69.0835 70.1324 69.0024 70.4849H71.7588ZM100.749 68.2611C100.749 68.9572 100.565 69.5493 100.195 70.0374C99.8261 70.5166 99.2361 70.7561 98.4254 70.7561C97.6147 70.7561 97.0157 70.5256 96.6283 70.0645C96.241 69.6035 96.0473 69.0476 96.0473 68.3967C96.0473 67.3661 96.5293 66.557 97.4931 65.9694C98.4569 65.3818 99.9972 65.088 102.114 65.088H102.722C104.406 65.088 105.654 65.3683 106.465 65.9288C107.284 66.4802 107.694 67.2441 107.694 68.2204C107.694 69.1877 107.388 69.9425 106.776 70.4849C106.172 71.0273 105.402 71.2985 104.465 71.2985C103.961 71.2985 103.515 71.2624 103.127 71.19V72.9528H104.708V74.58H100.06V72.9528H101.371V66.7288C100.02 66.765 99.0739 66.9141 98.5335 67.1763C98.002 67.4294 97.7363 67.8181 97.7363 68.3424C97.7363 68.8668 97.966 69.1289 98.4254 69.1289C98.8487 69.1289 99.0604 68.8396 99.0604 68.2611H100.749ZM103.127 66.7152V69.5222C103.479 69.6216 103.889 69.6713 104.357 69.6713C104.834 69.6713 105.217 69.5357 105.505 69.2645C105.794 68.9933 105.938 68.6272 105.938 68.1662C105.938 67.6961 105.722 67.339 105.289 67.0949C104.866 66.8418 104.145 66.7152 103.127 66.7152ZM114.62 71.1358V71.8545H110.053C110.08 72.2161 110.229 72.5144 110.499 72.7494C110.778 72.9754 111.103 73.0884 111.472 73.0884C111.841 73.0884 112.152 73.0613 112.404 73.0071C112.665 72.9528 112.846 72.9031 112.945 72.8579C113.053 72.8127 113.21 72.7313 113.418 72.6138L113.742 72.4375L114.444 73.8071C113.706 74.4128 112.787 74.7156 111.688 74.7156C110.589 74.7156 109.747 74.3857 109.161 73.7257C108.585 73.0568 108.297 72.2115 108.297 71.19C108.297 70.1685 108.585 69.3278 109.161 68.6679C109.747 67.9989 110.54 67.6644 111.539 67.6644C112.548 67.6644 113.314 67.9899 113.836 68.6407C114.359 69.2916 114.62 70.1233 114.62 71.1358ZM112.864 70.4849C112.828 70.1233 112.701 69.834 112.485 69.6171C112.278 69.4001 111.976 69.2916 111.58 69.2916C111.193 69.2916 110.868 69.4046 110.607 69.6306C110.355 69.8476 110.188 70.1324 110.107 70.4849H112.864ZM119.149 73.6986C118.591 74.3766 117.969 74.7156 117.285 74.7156C116.6 74.7156 116.064 74.5393 115.677 74.1868C115.289 73.8342 115.096 73.3415 115.096 72.7087C115.096 72.0669 115.348 71.5245 115.852 71.0816C116.357 70.6386 117.1 70.4171 118.082 70.4171H119.149V69.9289C119.149 69.5041 118.883 69.2916 118.352 69.2916C117.82 69.2916 117.348 69.3504 116.933 69.4679V70.2408H115.379V68.2204C115.821 68.0486 116.334 67.913 116.92 67.8136C117.514 67.7142 118.01 67.6644 118.406 67.6644C119.19 67.6644 119.802 67.8724 120.244 68.2882C120.685 68.695 120.906 69.2419 120.906 69.9289V73.1562H122.014V74.336C121.626 74.5439 121.14 74.6478 120.554 74.6478C119.618 74.6478 119.149 74.3314 119.149 73.6986ZM117.406 73.0884C118.028 73.0884 118.609 72.7178 119.149 71.9765V71.9223H118.068C117.654 71.9223 117.348 71.9946 117.149 72.1392C116.951 72.2839 116.852 72.4782 116.852 72.7223C116.852 72.9664 117.037 73.0884 117.406 73.0884ZM128.293 73.8071C127.59 74.4128 126.703 74.7156 125.631 74.7156C124.559 74.7156 123.731 74.3857 123.145 73.7257C122.569 73.0568 122.28 72.2115 122.28 71.19C122.28 70.1685 122.569 69.3278 123.145 68.6679C123.731 67.9989 124.505 67.6644 125.469 67.6644C126.442 67.6644 127.275 67.8498 127.969 68.2204V70.4442H126.415V69.4001C126.172 69.3278 125.897 69.2916 125.591 69.2916C125.104 69.2916 124.722 69.4679 124.442 69.8205C124.172 70.173 124.037 70.6296 124.037 71.19C124.037 71.7505 124.172 72.207 124.442 72.5596C124.722 72.9122 125.068 73.0884 125.483 73.0884C125.906 73.0884 126.257 73.0478 126.537 72.9664C126.825 72.885 127.023 72.8127 127.131 72.7494C127.248 72.6771 127.401 72.5731 127.59 72.4375L128.293 73.8071ZM131.227 73.0884H132.402V74.58H128.43V73.0884H129.47V65.9016H128.43V64.41H131.227V68.2611C132.001 67.8633 132.699 67.6644 133.321 67.6644C134.168 67.6644 134.753 67.913 135.077 68.4102C135.402 68.9074 135.564 69.5945 135.564 70.4713V73.1562H136.672V74.336C136.284 74.5439 135.816 74.6478 135.267 74.6478C134.717 74.6478 134.334 74.5258 134.118 74.2817C133.911 74.0376 133.807 73.6399 133.807 73.0884V70.4713C133.807 70.0736 133.753 69.7798 133.645 69.59C133.537 69.3911 133.285 69.2916 132.889 69.2916C132.492 69.2916 131.938 69.5628 131.227 70.1052V73.0884Z" fill="white"/>
<path d="M42.4113 78.1056H136.469V78.7836H42.4113V78.1056Z" fill="white"/>
<path d="M46.5053 68.1254H46.8806V67.7488H46.5053V68.1254ZM45.9514 69.9018L46.2482 70.1323L46.2501 70.1297L45.9514 69.9018ZM42.3843 69.9289L42.6714 69.686L42.3843 69.9289ZM43.249 65.8338L43.0542 65.5117L43.249 65.8338ZM52.3693 69.6713L52.2177 69.3266L51.3432 69.7146L52.247 70.0272L52.3693 69.6713ZM53.6124 70.5662L53.3106 70.79L53.3129 70.7934L53.6124 70.5662ZM53.1395 73.9698L53.3733 74.2643L53.376 74.2621L53.1395 73.9698ZM49.059 74.6478L49.0357 75.0237L49.059 74.6478ZM45.8162 74.58H45.4409V74.9567H45.8162V74.58ZM45.8162 72.9528V72.5761H45.4409V72.9528H45.8162ZM47.1269 72.9528V73.3295H47.5022V72.9528H47.1269ZM47.1269 66.5932H47.5022V66.2063L47.1167 66.2165L47.1269 66.5932ZM44.2894 67.0406L44.4504 67.3808L44.4527 67.3796L44.2894 67.0406ZM44.8164 68.1254V67.7488H44.4411V68.1254H44.8164ZM49.4238 70.6883H49.0485V71.0649H49.4238V70.6883ZM49.4238 69.0611V68.6844H49.0485V69.0611H49.4238ZM51.3425 68.7628L51.1 68.4754L51.0974 68.4776L51.0944 68.4799L51.3425 68.7628ZM48.8834 66.5796V66.2029H48.508V66.5796H48.8834ZM48.8834 72.9935H48.508V73.3445L48.8571 73.3694L48.8834 72.9935ZM51.7073 72.7494L51.4671 72.4601L51.4644 72.462L51.4622 72.4643L51.7073 72.7494ZM51.7073 70.973L51.4922 71.2815L51.7073 70.973ZM46.13 68.1254C46.13 68.7511 45.9656 69.26 45.6526 69.6739L46.2501 70.1297C46.6757 69.5673 46.8806 68.8919 46.8806 68.1254H46.13ZM45.6545 69.6713C45.379 70.0287 44.9188 70.2438 44.1813 70.2438V70.9971C45.0652 70.9971 45.7851 70.7331 46.2482 70.1323L45.6545 69.6713ZM44.1813 70.2438C43.4405 70.2438 42.9645 70.0351 42.6714 69.686L42.0972 70.1719C42.5787 70.7448 43.3008 70.9971 44.1813 70.9971V70.2438ZM42.6714 69.686C42.3456 69.2988 42.1786 68.8306 42.1786 68.261H41.428C41.428 68.9933 41.6483 69.637 42.0972 70.1719L42.6714 69.686ZM42.1786 68.261C42.1786 67.377 42.5791 66.6832 43.4438 66.1558L43.0542 65.5117C41.9913 66.1596 41.428 67.0839 41.428 68.261H42.1786ZM43.4438 66.1558C44.3168 65.6236 45.7708 65.3291 47.87 65.3291V64.5757C45.7355 64.5757 44.1089 64.8688 43.0542 65.5117L43.4438 66.1558ZM47.87 65.3291H48.478V64.5757H47.87V65.3291ZM48.478 65.3291C50.182 65.3291 51.4018 65.5588 52.1828 65.9765C52.5679 66.1822 52.837 66.4285 53.0115 66.708C53.1849 66.9864 53.2776 67.319 53.2776 67.7186H54.0283C54.0283 67.1962 53.9052 66.722 53.6477 66.3088C53.3906 65.8967 53.013 65.5667 52.5356 65.3114C51.5917 64.807 50.224 64.5757 48.478 64.5757V65.3291ZM53.2776 67.7186C53.2776 68.1198 53.1853 68.4377 53.0187 68.6908C52.852 68.9447 52.593 69.1601 52.2177 69.3266L52.521 70.0159C53.0014 69.8027 53.3842 69.5029 53.6454 69.1059C53.9067 68.7081 54.0283 68.2396 54.0283 67.7186H53.2776ZM52.247 70.0272C52.703 70.185 53.0528 70.4401 53.3106 70.79L53.9142 70.3425C53.5595 69.8607 53.0806 69.5191 52.4917 69.3153L52.247 70.0272ZM53.3129 70.7934C53.5636 71.126 53.6965 71.5362 53.6965 72.0443H54.4471C54.4471 71.3953 54.2737 70.8201 53.9119 70.3391L53.3129 70.7934ZM53.6965 72.0443C53.6965 72.7038 53.4401 73.2398 52.9031 73.6775L53.376 74.2621C54.0819 73.6873 54.4471 72.9396 54.4471 72.0443H53.6965ZM52.9057 73.6752C52.3761 74.099 51.5718 74.3389 50.4372 74.3389V75.0923C51.6626 75.0923 52.6598 74.835 53.3733 74.2643L52.9057 73.6752ZM50.4372 74.3389C50.2533 74.3389 49.8067 74.3175 49.0823 74.2719L49.0357 75.0237C49.7526 75.0685 50.2248 75.0923 50.4372 75.0923V74.3389ZM49.0823 74.2719C48.3583 74.2263 47.7732 74.2033 47.3295 74.2033V74.9567C47.7506 74.9567 48.3185 74.9789 49.0357 75.0237L49.0823 74.2719ZM47.3295 74.2033H45.8162V74.9567H47.3295V74.2033ZM46.1916 74.58V72.9528H45.4409V74.58H46.1916ZM45.8162 73.3295H47.1269V72.5761H45.8162V73.3295ZM47.5022 72.9528V66.5932H46.7515V72.9528H47.5022ZM47.1167 66.2165C45.7629 66.253 44.7451 66.4011 44.1262 66.7016L44.4527 67.3796C44.9147 67.1559 45.7885 67.0056 47.137 66.9698L47.1167 66.2165ZM44.1284 66.7005C43.818 66.8482 43.5606 67.0474 43.3819 67.3088C43.2014 67.5729 43.1169 67.8776 43.1169 68.2068H43.8676C43.8676 68.0117 43.916 67.8599 44.0012 67.7352C44.0883 67.6079 44.2294 67.4862 44.4504 67.3808L44.1284 66.7005ZM43.1169 68.2068C43.1169 68.516 43.1837 68.8181 43.3827 69.0453C43.5898 69.2818 43.8803 69.3699 44.1813 69.3699V68.6166C44.023 68.6166 43.9689 68.5737 43.9464 68.548C43.9156 68.513 43.8676 68.4219 43.8676 68.2068H43.1169ZM44.1813 69.3699C44.4876 69.3699 44.7702 69.2592 44.9601 68.9993C45.1343 68.7612 45.1917 68.4497 45.1917 68.1254H44.4411C44.4411 68.3797 44.3926 68.5021 44.3551 68.5533C44.3333 68.5827 44.2984 68.6166 44.1813 68.6166V69.3699ZM44.8164 68.5021H46.5053V67.7488H44.8164V68.5021ZM49.7991 70.6883V69.0611H49.0485V70.6883H49.7991ZM49.4238 69.4377H50.4912V68.6844H49.4238V69.4377ZM50.4912 69.4377C50.9112 69.4377 51.2869 69.3134 51.5906 69.0456L51.0944 68.4799C50.9476 68.6098 50.7558 68.6844 50.4912 68.6844V69.4377ZM51.5849 69.0501C51.9283 68.7586 52.0691 68.3337 52.0691 67.8542H51.3184C51.3184 68.1883 51.225 68.3691 51.1 68.4754L51.5849 69.0501ZM52.0691 67.8542C52.0691 67.5785 51.9978 67.3209 51.8465 67.0952C51.6971 66.8719 51.484 66.7001 51.2295 66.5694L50.888 67.2406C51.0569 67.3269 51.1612 67.4218 51.2235 67.5149C51.2839 67.6056 51.3184 67.7141 51.3184 67.8542H52.0691ZM51.2295 66.5694C50.7202 66.3088 49.9159 66.2029 48.8834 66.2029V66.9563C49.9046 66.9563 50.5505 67.0674 50.888 67.2406L51.2295 66.5694ZM48.508 66.5796V72.9935H49.2587V66.5796H48.508ZM48.8571 73.3694C49.7575 73.4323 50.4 73.4651 50.775 73.4651V72.7117C50.4293 72.7117 49.8108 72.6812 48.9096 72.6176L48.8571 73.3694ZM50.775 73.4651C51.2209 73.4651 51.6198 73.3223 51.9524 73.0345L51.4622 72.4643C51.2723 72.6285 51.0497 72.7117 50.775 72.7117V73.4651ZM51.9475 73.0387C52.3104 72.7351 52.488 72.3226 52.488 71.8409H51.7373C51.7373 72.1185 51.6446 72.3117 51.4671 72.4601L51.9475 73.0387ZM52.488 71.8409C52.488 71.3538 52.3115 70.9376 51.9223 70.6645L51.4922 71.2815C51.6435 71.3881 51.7373 71.5505 51.7373 71.8409H52.488ZM51.9223 70.6645C51.571 70.4174 51.1327 70.3116 50.6399 70.3116V71.0649C51.0298 71.0649 51.3031 71.1489 51.4922 71.2815L51.9223 70.6645ZM50.6399 70.3116H49.4238V71.0649H50.6399V70.3116ZM54.5759 65.9016H54.2005V66.2783H54.5759V65.9016ZM54.5759 64.41V64.0333H54.2005V64.41H54.5759ZM57.3728 64.41H57.7481V64.0333H57.3728V64.41ZM57.3728 73.0884H56.9974V73.4651H57.3728V73.0884ZM58.5483 73.0884H58.9236V72.7117H58.5483V73.0884ZM58.5483 74.58V74.9567H58.9236V74.58H58.5483ZM54.5623 74.58H54.187V74.9567H54.5623V74.58ZM54.5623 73.0884V72.7117H54.187V73.0884H54.5623ZM55.6163 73.0884V73.4651H55.9916V73.0884H55.6163ZM55.6163 65.9016H55.9916V65.5249H55.6163V65.9016ZM54.9512 65.9016V64.41H54.2005V65.9016H54.9512ZM54.5759 64.7867H57.3728V64.0333H54.5759V64.7867ZM56.9974 64.41V73.0884H57.7481V64.41H56.9974ZM57.3728 73.4651H58.5483V72.7117H57.3728V73.4651ZM58.1729 73.0884V74.58H58.9236V73.0884H58.1729ZM58.5483 74.2033H54.5623V74.9567H58.5483V74.2033ZM54.9377 74.58V73.0884H54.187V74.58H54.9377ZM54.5623 73.4651H55.6163V72.7117H54.5623V73.4651ZM55.9916 73.0884V65.9016H55.2409V73.0884H55.9916ZM55.6163 65.5249H54.5759V66.2783H55.6163V65.5249ZM60.2079 73.9834L59.8923 74.1871L59.8938 74.1898L60.2079 73.9834ZM59.7215 69.2238H60.0968V68.8471H59.7215V69.2238ZM58.6811 69.2238H58.3058V69.6005H58.6811V69.2238ZM58.6811 67.8V67.4233H58.3058V67.8H58.6811ZM61.478 67.8H61.8533V67.4233H61.478V67.8ZM61.6402 72.8036L61.3106 72.9841L61.3136 72.9897L61.317 72.9954L61.6402 72.8036ZM64.0587 72.2748L64.2828 72.5769L64.4341 72.4639V72.2748H64.0587ZM64.0587 69.2916H64.4341V68.9149H64.0587V69.2916ZM63.221 69.2916H62.8457V69.6683H63.221V69.2916ZM63.221 67.8V67.4233H62.8457V67.8H63.221ZM65.8152 67.8H66.1906V67.4233H65.8152V67.8ZM65.8152 73.1562H65.4399V73.5329H65.8152V73.1562ZM66.9232 73.1562H67.2985V72.7795H66.9232V73.1562ZM66.9232 74.3359L67.1003 74.6681L67.2985 74.5615V74.3359H66.9232ZM64.1938 73.9562L64.5433 73.8188L64.3789 73.398L63.996 73.6361L64.1938 73.9562ZM61.9644 74.3525C61.1853 74.3525 60.7499 74.1265 60.5221 73.7769L59.8938 74.1898C60.3145 74.8346 61.0502 75.1058 61.9644 75.1058V74.3525ZM60.5236 73.7796C60.2522 73.3558 60.0968 72.7445 60.0968 71.9087H59.3462C59.3462 72.8266 59.5151 73.5984 59.8923 74.1871L60.5236 73.7796ZM60.0968 71.9087V69.2238H59.3462V71.9087H60.0968ZM59.7215 68.8471H58.6811V69.6005H59.7215V68.8471ZM59.0564 69.2238V67.8H58.3058V69.2238H59.0564ZM58.6811 68.1767H61.478V67.4233H58.6811V68.1767ZM61.1027 67.8V71.9087H61.8533V67.8H61.1027ZM61.1027 71.9087C61.1027 72.3283 61.1575 72.7023 61.3106 72.9841L61.9697 72.6232C61.9066 72.5072 61.8533 72.2846 61.8533 71.9087H61.1027ZM61.317 72.9954C61.5369 73.369 61.9611 73.4786 62.3833 73.4786V72.7253C62.0489 72.7253 61.9776 72.636 61.9633 72.6119L61.317 72.9954ZM62.3833 73.4786C62.6554 73.4786 62.95 73.3818 63.2514 73.233C63.5584 73.0816 63.903 72.8605 64.2828 72.5769L63.8347 71.9727C63.4759 72.2405 63.1718 72.433 62.9204 72.5573C62.6633 72.6842 62.4895 72.7253 62.3833 72.7253V73.4786ZM64.4341 72.2748V69.2916H63.6834V72.2748H64.4341ZM64.0587 68.9149H63.221V69.6683H64.0587V68.9149ZM63.5963 69.2916V67.8H62.8457V69.2916H63.5963ZM63.221 68.1767H65.8152V67.4233H63.221V68.1767ZM65.4399 67.8V73.1562H66.1906V67.8H65.4399ZM65.8152 73.5329H66.9232V72.7795H65.8152V73.5329ZM66.5479 73.1562V74.3359H67.2985V73.1562H66.5479ZM66.746 74.0037C66.4319 74.1724 65.9905 74.2711 65.3964 74.2711V75.0245C66.0637 75.0245 66.6398 74.9152 67.1003 74.6681L66.746 74.0037ZM65.3964 74.2711C65.1291 74.2711 64.9434 74.2214 64.8161 74.148C64.6953 74.0786 64.6044 73.9751 64.5433 73.8188L63.8444 74.0937C63.9634 74.3984 64.1631 74.6406 64.4431 74.8019C64.7167 74.9589 65.0421 75.0245 65.3964 75.0245V74.2711ZM63.996 73.6361C63.2 74.131 62.5263 74.3525 61.9644 74.3525V75.1058C62.7177 75.1058 63.5303 74.812 64.3916 74.2764L63.996 73.6361ZM73.5153 71.8544V72.2311H73.8906V71.8544H73.5153ZM68.9484 71.8544V71.4778H68.5438L68.5742 71.8827L68.9484 71.8544ZM69.3943 72.7494L69.1485 73.0342L69.1533 73.0383L69.1586 73.0424L69.3943 72.7494ZM71.2994 73.007L71.2232 72.6383L71.2206 72.6387L71.2994 73.007ZM71.8399 72.8579L71.6954 72.5102L71.6901 72.5125L71.6845 72.5151L71.8399 72.8579ZM72.3128 72.6138L72.1341 72.2827L72.1311 72.2842L72.1281 72.2857L72.3128 72.6138ZM72.6371 72.4375L72.9707 72.265L72.7951 71.923L72.4584 72.1064L72.6371 72.4375ZM73.3397 73.8071L73.5773 74.0986L73.8126 73.9058L73.6733 73.6346L73.3397 73.8071ZM68.0567 73.7257L67.7725 73.9721L67.7744 73.9743L67.7763 73.9762L68.0567 73.7257ZM68.0567 68.6678L67.7748 68.4192L67.7744 68.4196L68.0567 68.6678ZM72.7317 68.6407L72.4393 68.8769L72.7317 68.6407ZM71.7588 70.4849V70.8615H72.1736L72.1323 70.4472L71.7588 70.4849ZM71.3805 69.617L71.1095 69.8777L71.1121 69.8807L71.1151 69.8833L71.3805 69.617ZM69.5024 69.6306L69.7467 69.9165L69.7475 69.9157L69.5024 69.6306ZM69.0025 70.4849L68.6365 70.4001L68.5307 70.8615H69.0025V70.4849ZM73.14 71.1358V71.8544H73.8906V71.1358H73.14ZM73.5153 71.4778H68.9484V72.2311H73.5153V71.4778ZM68.5742 71.8827C68.6084 72.3422 68.8024 72.7332 69.1485 73.0342L69.6401 72.4646C69.4457 72.2955 69.3425 72.0898 69.3226 71.8262L68.5742 71.8827ZM69.1586 73.0424C69.5069 73.3242 69.9149 73.4651 70.3671 73.4651V72.7117C70.0808 72.7117 69.8402 72.6266 69.63 72.4563L69.1586 73.0424ZM70.3671 73.4651C70.7526 73.4651 71.0915 73.4368 71.3779 73.3754L71.2206 72.6387C71.0029 72.6857 70.7203 72.7117 70.3671 72.7117V73.4651ZM71.3752 73.3758C71.6361 73.3219 71.8538 73.2654 71.9953 73.2006L71.6845 72.5151C71.6278 72.5407 71.4852 72.5837 71.2232 72.6383L71.3752 73.3758ZM71.984 73.2055C72.1139 73.1513 72.2876 73.0609 72.4975 72.9419L72.1281 72.2857C71.9236 72.4017 71.7821 72.4741 71.6954 72.5102L71.984 73.2055ZM72.4915 72.9449L72.8157 72.7686L72.4584 72.1064L72.1341 72.2827L72.4915 72.9449ZM72.3034 72.61L73.006 73.9796L73.6733 73.6346L72.9707 72.265L72.3034 72.61ZM73.1021 73.5155C72.4404 74.0579 71.6094 74.3389 70.5833 74.3389V75.0923C71.7551 75.0923 72.7613 74.7676 73.5773 74.0986L73.1021 73.5155ZM70.5833 74.3389C69.5628 74.3389 68.8343 74.0357 68.337 73.4752L67.7763 73.9762C68.45 74.7356 69.4059 75.0923 70.5833 75.0923V74.3389ZM68.3404 73.4794C67.8318 72.8891 67.5672 72.1358 67.5672 71.19H66.8166C66.8166 72.2872 67.1281 73.2244 67.7725 73.9721L68.3404 73.4794ZM67.5672 71.19C67.5672 70.2438 67.8318 69.4961 68.3389 68.9161L67.7744 68.4196C67.1281 69.1594 66.8166 70.0931 66.8166 71.19H67.5672ZM68.3385 68.9164C68.8433 68.3398 69.5275 68.0411 70.4347 68.0411V67.2877C69.3421 67.2877 68.441 67.658 67.7748 68.4192L68.3385 68.9164ZM70.4347 68.0411C71.3565 68.0411 72.0032 68.3337 72.4393 68.8769L73.024 68.4045C72.4149 67.6459 71.5306 67.2877 70.4347 67.2877V68.0411ZM72.4393 68.8769C72.8972 69.4475 73.14 70.1903 73.14 71.1358H73.8906C73.8906 70.0562 73.6107 69.1357 73.024 68.4045L72.4393 68.8769ZM72.1323 70.4472C72.0891 70.0159 71.9341 69.64 71.6458 69.3507L71.1151 69.8833C71.2593 70.028 71.3561 70.2306 71.3854 70.5225L72.1323 70.4472ZM71.6515 69.3564C71.3527 69.0437 70.9391 68.9149 70.4752 68.9149V69.6683C70.8036 69.6683 70.9939 69.7564 71.1095 69.8777L71.6515 69.3564ZM70.4752 68.9149C70.0098 68.9149 69.5951 69.0532 69.2573 69.3455L69.7475 69.9157C69.9321 69.756 70.166 69.6683 70.4752 69.6683V68.9149ZM69.2581 69.3447C68.9398 69.6185 68.7341 69.9764 68.6365 70.4001L69.368 70.5696C69.433 70.2883 69.5606 70.0766 69.7467 69.9165L69.2581 69.3447ZM69.0025 70.8615H71.7588V70.1082H69.0025V70.8615ZM100.749 68.261H101.125V67.8844H100.749V68.261ZM100.195 70.0374L100.492 70.2679L100.495 70.2653L100.195 70.0374ZM96.6284 70.0645L96.9155 69.8216L96.6284 70.0645ZM97.4931 65.9694L97.2983 65.6473L97.4931 65.9694ZM106.465 65.9287L106.252 66.2391L106.256 66.2417L106.465 65.9287ZM106.776 70.4849L106.527 70.2024L106.525 70.2043L106.776 70.4849ZM103.127 71.19L103.196 70.8197L102.752 70.7369V71.19H103.127ZM103.127 72.9528H102.752V73.3295H103.127V72.9528ZM104.708 72.9528H105.084V72.5761H104.708V72.9528ZM104.708 74.58V74.9567H105.084V74.58H104.708ZM100.06 74.58H99.685V74.9567H100.06V74.58ZM100.06 72.9528V72.5761H99.685V72.9528H100.06ZM101.371 72.9528V73.3295H101.746V72.9528H101.371ZM101.371 66.7288H101.746V66.3419L101.361 66.3521L101.371 66.7288ZM98.5335 67.1762L98.6945 67.5164L98.6971 67.5152L98.5335 67.1762ZM99.0604 68.261V67.8844H98.6851V68.261H99.0604ZM103.127 66.7152V66.3385H102.752V66.7152H103.127ZM103.127 69.5221H102.752V69.8072L103.026 69.8845L103.127 69.5221ZM105.289 67.0949L105.097 67.4184L105.101 67.4207L105.105 67.4233L105.289 67.0949ZM100.374 68.261C100.374 68.8867 100.21 69.3956 99.8967 69.8095L100.495 70.2653C100.92 69.7029 101.125 69.0275 101.125 68.261H100.374ZM99.8985 69.8069C99.6231 70.1643 99.1629 70.3794 98.4254 70.3794V71.1327C99.3097 71.1327 100.03 70.8687 100.492 70.2679L99.8985 69.8069ZM98.4254 70.3794C97.6845 70.3794 97.2086 70.1707 96.9155 69.8216L96.3416 70.3075C96.8228 70.8804 97.5449 71.1327 98.4254 71.1327V70.3794ZM96.9155 69.8216C96.5897 69.4344 96.4227 68.9662 96.4227 68.3966H95.672C95.672 69.1289 95.8924 69.7726 96.3416 70.3075L96.9155 69.8216ZM96.4227 68.3966C96.4227 67.5126 96.8232 66.8188 97.6883 66.2914L97.2983 65.6473C96.2358 66.2952 95.672 67.2195 95.672 68.3966H96.4227ZM97.6883 66.2914C98.5613 65.7592 100.015 65.4647 102.114 65.4647V64.7113C99.9796 64.7113 98.353 65.0044 97.2983 65.6473L97.6883 66.2914ZM102.114 65.4647H102.722V64.7113H102.114V65.4647ZM102.722 65.4647C104.379 65.4647 105.534 65.7426 106.252 66.2391L106.678 65.6183C105.774 64.9938 104.435 64.7113 102.722 64.7113V65.4647ZM106.256 66.2417C106.973 66.7242 107.319 67.3717 107.319 68.2204H108.07C108.07 67.1163 107.596 66.2361 106.674 65.6157L106.256 66.2417ZM107.319 68.2204C107.319 69.101 107.044 69.7447 106.527 70.2024L107.024 70.7674C107.732 70.1402 108.07 69.2743 108.07 68.2204H107.319ZM106.525 70.2043C106.001 70.6751 105.325 70.9218 104.465 70.9218V71.6751C105.479 71.6751 106.343 71.3795 107.026 70.7655L106.525 70.2043ZM104.465 70.9218C103.978 70.9218 103.556 70.8868 103.196 70.8197L103.059 71.5603C103.474 71.6379 103.944 71.6751 104.465 71.6751V70.9218ZM102.752 71.19V72.9528H103.503V71.19H102.752ZM103.127 73.3295H104.708V72.5761H103.127V73.3295ZM104.333 72.9528V74.58H105.084V72.9528H104.333ZM104.708 74.2033H100.06V74.9567H104.708V74.2033ZM100.436 74.58V72.9528H99.685V74.58H100.436ZM100.06 73.3295H101.371V72.5761H100.06V73.3295ZM101.746 72.9528V66.7288H100.996V72.9528H101.746ZM101.361 66.3521C100.007 66.3886 98.9895 66.5367 98.3702 66.8372L98.6971 67.5152C99.1588 67.2915 100.033 67.1412 101.381 67.1054L101.361 66.3521ZM98.3729 66.8361C98.0621 66.9838 97.805 67.183 97.6263 67.4444C97.4458 67.7085 97.361 68.0132 97.361 68.3424H98.1116C98.1116 68.1473 98.16 67.9955 98.2452 67.8708C98.3323 67.7435 98.4738 67.6218 98.6945 67.5164L98.3729 66.8361ZM97.361 68.3424C97.361 68.6516 97.4278 68.9537 97.6267 69.1809C97.8339 69.4174 98.1244 69.5055 98.4254 69.5055V68.7522C98.267 68.7522 98.213 68.7093 98.1904 68.6837C98.16 68.6486 98.1116 68.5575 98.1116 68.3424H97.361ZM98.4254 69.5055C98.7317 69.5055 99.0143 69.3948 99.2042 69.1349C99.3787 68.8968 99.4358 68.5853 99.4358 68.261H98.6851C98.6851 68.5153 98.6367 68.6377 98.5992 68.6889C98.5778 68.7183 98.5425 68.7522 98.4254 68.7522V69.5055ZM99.0604 68.6377H100.749V67.8844H99.0604V68.6377ZM102.752 66.7152V69.5221H103.503V66.7152H102.752ZM103.026 69.8845C103.418 69.9956 103.863 70.0479 104.357 70.0479V69.2946C103.914 69.2946 103.54 69.2475 103.23 69.1598L103.026 69.8845ZM104.357 70.0479C104.909 70.0479 105.391 69.889 105.762 69.5394L105.249 68.9895C105.044 69.1824 104.76 69.2946 104.357 69.2946V70.0479ZM105.762 69.5394C106.139 69.185 106.313 68.7127 106.313 68.1661H105.563C105.563 68.5416 105.449 68.8016 105.249 68.9895L105.762 69.5394ZM106.313 68.1661C106.313 67.5503 106.016 67.0726 105.474 66.7664L105.105 67.4233C105.428 67.6053 105.563 67.8418 105.563 68.1661H106.313ZM105.481 66.7713C104.965 66.4624 104.155 66.3385 103.127 66.3385V67.0919C104.136 67.0919 104.767 67.2211 105.097 67.4184L105.481 66.7713ZM114.62 71.8544V72.2311H114.995V71.8544H114.62ZM110.053 71.8544V71.4778H109.649L109.679 71.8827L110.053 71.8544ZM110.499 72.7494L110.253 73.0342L110.258 73.0383L110.263 73.0424L110.499 72.7494ZM112.404 73.007L112.328 72.6383L112.325 72.6387L112.404 73.007ZM112.945 72.8579L112.8 72.5102L112.795 72.5125L112.789 72.5151L112.945 72.8579ZM113.418 72.6138L113.239 72.2827L113.236 72.2842L113.233 72.2857L113.418 72.6138ZM113.742 72.4375L114.076 72.265L113.9 71.923L113.563 72.1064L113.742 72.4375ZM114.444 73.8071L114.682 74.0986L114.917 73.9058L114.778 73.6346L114.444 73.8071ZM109.161 73.7257L108.877 73.9721L108.879 73.9743L108.881 73.9762L109.161 73.7257ZM109.161 68.6678L108.879 68.4192V68.4196L109.161 68.6678ZM113.836 68.6407L113.544 68.8769L113.836 68.6407ZM112.864 70.4849V70.8615H113.278L113.237 70.4472L112.864 70.4849ZM112.485 69.617L112.214 69.8777L112.217 69.8807L112.22 69.8833L112.485 69.617ZM110.607 69.6306L110.851 69.9165L110.852 69.9157L110.607 69.6306ZM110.107 70.4849L109.741 70.4001L109.635 70.8615H110.107V70.4849ZM114.245 71.1358V71.8544H114.995V71.1358H114.245ZM114.62 71.4778H110.053V72.2311H114.62V71.4778ZM109.679 71.8827C109.713 72.3422 109.907 72.7332 110.253 73.0342L110.745 72.4646C110.55 72.2955 110.447 72.0898 110.427 71.8262L109.679 71.8827ZM110.263 73.0424C110.611 73.3242 111.019 73.4651 111.472 73.4651V72.7117C111.186 72.7117 110.945 72.6266 110.734 72.4563L110.263 73.0424ZM111.472 73.4651C111.857 73.4651 112.196 73.4368 112.483 73.3754L112.325 72.6387C112.107 72.6857 111.825 72.7117 111.472 72.7117V73.4651ZM112.48 73.3758C112.741 73.3219 112.958 73.2654 113.1 73.2006L112.789 72.5151C112.733 72.5407 112.59 72.5837 112.328 72.6383L112.48 73.3758ZM113.089 73.2055C113.219 73.1513 113.392 73.0609 113.602 72.9419L113.233 72.2857C113.028 72.4017 112.887 72.4741 112.8 72.5102L113.089 73.2055ZM113.596 72.9449L113.921 72.7686L113.563 72.1064L113.239 72.2827L113.596 72.9449ZM113.408 72.61L114.111 73.9796L114.778 73.6346L114.076 72.265L113.408 72.61ZM114.207 73.5155C113.545 74.0579 112.714 74.3389 111.688 74.3389V75.0923C112.86 75.0923 113.866 74.7676 114.682 74.0986L114.207 73.5155ZM111.688 74.3389C110.668 74.3389 109.939 74.0357 109.441 73.4752L108.881 73.9762C109.555 74.7356 110.511 75.0923 111.688 75.0923V74.3389ZM109.445 73.4794C108.937 72.8891 108.672 72.1358 108.672 71.19H107.921C107.921 72.2872 108.233 73.2244 108.877 73.9721L109.445 73.4794ZM108.672 71.19C108.672 70.2438 108.937 69.4961 109.444 68.9161L108.879 68.4196C108.233 69.1594 107.921 70.0931 107.921 71.19H108.672ZM109.443 68.9164C109.948 68.3398 110.632 68.0411 111.539 68.0411V67.2877C110.447 67.2877 109.545 67.658 108.879 68.4192L109.443 68.9164ZM111.539 68.0411C112.461 68.0411 113.108 68.3337 113.544 68.8769L114.128 68.4045C113.52 67.6459 112.635 67.2877 111.539 67.2877V68.0411ZM113.544 68.8769C114.002 69.4475 114.245 70.1903 114.245 71.1358H114.995C114.995 70.0562 114.715 69.1357 114.128 68.4045L113.544 68.8769ZM113.237 70.4472C113.194 70.0159 113.039 69.64 112.751 69.3507L112.22 69.8833C112.364 70.028 112.461 70.2306 112.49 70.5225L113.237 70.4472ZM112.756 69.3564C112.458 69.0437 112.044 68.9149 111.58 68.9149V69.6683C111.908 69.6683 112.099 69.7564 112.214 69.8777L112.756 69.3564ZM111.58 68.9149C111.114 68.9149 110.7 69.0532 110.362 69.3455L110.852 69.9157C111.037 69.756 111.271 69.6683 111.58 69.6683V68.9149ZM110.363 69.3447C110.045 69.6185 109.839 69.9764 109.741 70.4001L110.473 70.5696C110.537 70.2883 110.665 70.0766 110.851 69.9165L110.363 69.3447ZM110.107 70.8615H112.864V70.1082H110.107V70.8615ZM119.149 73.6986H119.524V72.6518L118.86 73.4587L119.149 73.6986ZM115.677 74.1868L115.929 73.9076L115.677 74.1868ZM115.852 71.0815L115.605 70.7979L115.852 71.0815ZM119.149 70.4171V70.7937H119.524V70.4171H119.149ZM116.933 69.4679L116.831 69.1055L116.558 69.1827V69.4679H116.933ZM116.933 70.2408V70.6175H117.309V70.2408H116.933ZM115.379 70.2408H115.004V70.6175H115.379V70.2408ZM115.379 68.2204L115.244 67.8693L115.004 67.9623V68.2204H115.379ZM116.92 67.8136L116.858 67.4422H116.857L116.92 67.8136ZM120.244 68.2882L119.986 68.5627L119.99 68.5658L120.244 68.2882ZM120.906 73.1562H120.53V73.5329H120.906V73.1562ZM122.014 73.1562H122.389V72.7795H122.014V73.1562ZM122.014 74.3359L122.191 74.6681L122.389 74.5615V74.3359H122.014ZM119.149 71.9765L119.452 72.1991L119.524 72.0996V71.9765H119.149ZM119.149 71.9222H119.524V71.5456H119.149V71.9222ZM118.86 73.4587C118.351 74.0764 117.827 74.3389 117.285 74.3389V75.0923C118.111 75.0923 118.83 74.6768 119.439 73.9385L118.86 73.4587ZM117.285 74.3389C116.664 74.3389 116.228 74.18 115.929 73.9076L115.424 74.4659C115.9 74.8987 116.536 75.0923 117.285 75.0923V74.3389ZM115.929 73.9076C115.636 73.641 115.471 73.259 115.471 72.7087H114.72C114.72 73.424 114.943 74.0274 115.424 74.4659L115.929 73.9076ZM115.471 72.7087C115.471 72.1814 115.672 71.7403 116.099 71.3651L115.605 70.7979C115.024 71.3086 114.72 71.9524 114.72 72.7087H115.471ZM116.099 71.3651C116.51 71.0047 117.149 70.7937 118.082 70.7937V70.0404C117.05 70.0404 116.204 70.2724 115.605 70.7979L116.099 71.3651ZM118.082 70.7937H119.149V70.0404H118.082V70.7937ZM119.524 70.4171V69.9289H118.774V70.4171H119.524ZM119.524 69.9289C119.524 69.6329 119.428 69.3515 119.184 69.1564C118.956 68.9744 118.657 68.9149 118.352 68.9149V69.6683C118.578 69.6683 118.678 69.715 118.716 69.7455C118.738 69.7628 118.774 69.8001 118.774 69.9289H119.524ZM118.352 68.9149C117.794 68.9149 117.285 68.9767 116.831 69.1055L117.035 69.8302C117.41 69.724 117.847 69.6683 118.352 69.6683V68.9149ZM116.558 69.4679V70.2408H117.309V69.4679H116.558ZM116.933 69.8641H115.379V70.6175H116.933V69.8641ZM115.755 70.2408V68.2204H115.004V70.2408H115.755ZM115.515 68.5714C115.928 68.4109 116.416 68.281 116.982 68.1849L116.857 67.4422C116.253 67.545 115.714 67.6862 115.244 67.8693L115.515 68.5714ZM116.981 68.1849C117.565 68.0874 118.038 68.0411 118.406 68.0411V67.2877C117.981 67.2877 117.464 67.3408 116.858 67.4422L116.981 68.1849ZM118.406 68.0411C119.123 68.0411 119.634 68.2301 119.986 68.5627L120.5 68.0136C119.971 67.5145 119.256 67.2877 118.406 67.2877V68.0411ZM119.99 68.5658C120.342 68.8904 120.53 69.3308 120.53 69.9289H121.281C121.281 69.153 121.028 68.4995 120.497 68.0106L119.99 68.5658ZM120.53 69.9289V73.1562H121.281V69.9289H120.53ZM120.906 73.5329H122.014V72.7795H120.906V73.5329ZM121.638 73.1562V74.3359H122.389V73.1562H121.638ZM121.836 74.0037C121.519 74.1743 121.098 74.2711 120.554 74.2711V75.0245C121.182 75.0245 121.734 74.9133 122.191 74.6681L121.836 74.0037ZM120.554 74.2711C120.116 74.2711 119.854 74.195 119.71 74.0979C119.593 74.0188 119.524 73.9069 119.524 73.6986H118.774C118.774 74.1231 118.94 74.4858 119.291 74.7231C119.616 74.9423 120.056 75.0245 120.554 75.0245V74.2711ZM117.406 73.4651C118.196 73.4651 118.876 72.989 119.452 72.1991L118.846 71.7539C118.341 72.4466 117.859 72.7117 117.406 72.7117V73.4651ZM119.524 71.9765V71.9222H118.774V71.9765H119.524ZM119.149 71.5456H118.068V72.2989H119.149V71.5456ZM118.068 71.5456C117.624 71.5456 117.222 71.6205 116.929 71.8345L117.37 72.4439C117.473 72.3686 117.684 72.2989 118.068 72.2989V71.5456ZM116.929 71.8345C116.634 72.0495 116.477 72.3565 116.477 72.7223H117.227C117.227 72.5999 117.268 72.5181 117.37 72.4439L116.929 71.8345ZM116.477 72.7223C116.477 72.9562 116.574 73.1728 116.784 73.3114C116.966 73.4319 117.192 73.4651 117.406 73.4651V72.7117C117.333 72.7117 117.28 72.7057 117.244 72.6978C117.208 72.6895 117.196 72.6812 117.197 72.6823C117.201 72.685 117.213 72.6948 117.221 72.7125C117.23 72.7283 117.227 72.7355 117.227 72.7223H116.477ZM128.293 73.8071L128.538 74.093L128.763 73.899L128.627 73.6346L128.293 73.8071ZM123.145 73.7257L122.861 73.9721L122.863 73.9743L122.865 73.9762L123.145 73.7257ZM123.145 68.6678L122.863 68.4192L122.863 68.4196L123.145 68.6678ZM127.969 68.2204H128.344V67.9944L128.145 67.8878L127.969 68.2204ZM127.969 70.4442V70.8209H128.344V70.4442H127.969ZM126.415 70.4442H126.04V70.8209H126.415V70.4442ZM126.415 69.4001H126.79V69.1187L126.522 69.0389L126.415 69.4001ZM124.442 69.8204L124.148 69.5861L124.147 69.5884L124.145 69.5907L124.442 69.8204ZM124.442 72.5596L124.145 72.7893L124.147 72.7916L124.148 72.7938L124.442 72.5596ZM126.537 72.9664L126.435 72.6036L126.432 72.6048L126.537 72.9664ZM127.131 72.7494L127.32 73.0748L127.324 73.0726L127.328 73.0703L127.131 72.7494ZM127.59 72.4375L127.924 72.265L127.726 71.8778L127.372 72.1309L127.59 72.4375ZM128.049 73.5212C127.425 74.0594 126.629 74.3389 125.631 74.3389V75.0923C126.778 75.0923 127.756 74.7661 128.538 74.093L128.049 73.5212ZM125.631 74.3389C124.641 74.3389 123.925 74.0376 123.426 73.4752L122.865 73.9762C123.537 74.7337 124.478 75.0923 125.631 75.0923V74.3389ZM123.429 73.4794C122.921 72.8891 122.656 72.1358 122.656 71.19H121.905C121.905 72.2872 122.217 73.2244 122.861 73.9721L123.429 73.4794ZM122.656 71.19C122.656 70.2438 122.921 69.4961 123.427 68.9161L122.863 68.4196C122.217 69.1594 121.905 70.0931 121.905 71.19H122.656ZM123.427 68.9164C123.935 68.3364 124.603 68.0411 125.469 68.0411V67.2877C124.408 67.2877 123.527 67.6614 122.863 68.4192L123.427 68.9164ZM125.469 68.0411C126.395 68.0411 127.165 68.2173 127.792 68.5529L128.145 67.8878C127.386 67.4821 126.489 67.2877 125.469 67.2877V68.0411ZM127.593 68.2204V70.4442H128.344V68.2204H127.593ZM127.969 70.0675H126.415V70.8209H127.969V70.0675ZM126.79 70.4442V69.4001H126.04V70.4442H126.79ZM126.522 69.0389C126.237 68.9545 125.926 68.9149 125.591 68.9149V69.6683C125.868 69.6683 126.106 69.701 126.308 69.7613L126.522 69.0389ZM125.591 68.9149C125.001 68.9149 124.506 69.1353 124.148 69.5861L124.736 70.0547C124.938 69.8005 125.208 69.6683 125.591 69.6683V68.9149ZM124.145 69.5907C123.812 70.0246 123.662 70.5685 123.662 71.19H124.412C124.412 70.6905 124.532 70.3214 124.74 70.0502L124.145 69.5907ZM123.662 71.19C123.662 71.8115 123.812 72.3554 124.145 72.7893L124.74 72.3298C124.532 72.0586 124.412 71.6895 124.412 71.19H123.662ZM124.148 72.7938C124.492 73.2278 124.943 73.4651 125.483 73.4651V72.7117C125.193 72.7117 124.951 72.5965 124.736 72.3253L124.148 72.7938ZM125.483 73.4651C125.927 73.4651 126.316 73.4229 126.641 73.328L126.432 72.6048C126.198 72.6726 125.885 72.7117 125.483 72.7117V73.4651ZM126.638 73.3291C126.927 73.2477 127.167 73.1649 127.32 73.0748L126.942 72.424C126.88 72.4605 126.723 72.5223 126.435 72.6036L126.638 73.3291ZM127.328 73.0703C127.455 72.9912 127.617 72.8816 127.809 72.7441L127.372 72.1309C127.186 72.2646 127.041 72.3629 126.934 72.4285L127.328 73.0703ZM127.257 72.61L127.959 73.9796L128.627 73.6346L127.924 72.265L127.257 72.61ZM131.227 73.0884H130.851V73.4651H131.227V73.0884ZM132.402 73.0884H132.777V72.7117H132.402V73.0884ZM132.402 74.58V74.9567H132.777V74.58H132.402ZM128.43 74.58H128.054V74.9567H128.43V74.58ZM128.43 73.0884V72.7117H128.054V73.0884H128.43ZM129.47 73.0884V73.4651H129.845V73.0884H129.47ZM129.47 65.9016H129.845V65.5249H129.47V65.9016ZM128.43 65.9016H128.054V66.2783H128.43V65.9016ZM128.43 64.41V64.0333H128.054V64.41H128.43ZM131.227 64.41H131.602V64.0333H131.227V64.41ZM131.227 68.261H130.851V68.8769L131.398 68.5963L131.227 68.261ZM135.077 68.4102L134.764 68.6166L135.077 68.4102ZM135.564 73.1562H135.188V73.5329H135.564V73.1562ZM136.672 73.1562H137.047V72.7795H136.672V73.1562ZM136.672 74.3359L136.849 74.6681L137.047 74.5615V74.3359H136.672ZM134.118 74.2817L133.832 74.5258L133.835 74.5288L133.838 74.5318L134.118 74.2817ZM133.645 69.5899L133.316 69.7703L133.318 69.7737L133.319 69.7767L133.645 69.5899ZM131.227 70.1052L131 69.8054L130.851 69.9184V70.1052H131.227ZM131.227 73.4651H132.402V72.7117H131.227V73.4651ZM132.027 73.0884V74.58H132.777V73.0884H132.027ZM132.402 74.2033H128.43V74.9567H132.402V74.2033ZM128.805 74.58V73.0884H128.054V74.58H128.805ZM128.43 73.4651H129.47V72.7117H128.43V73.4651ZM129.845 73.0884V65.9016H129.095V73.0884H129.845ZM129.47 65.5249H128.43V66.2783H129.47V65.5249ZM128.805 65.9016V64.41H128.054V65.9016H128.805ZM128.43 64.7867H131.227V64.0333H128.43V64.7867ZM130.851 64.41V68.261H131.602V64.41H130.851ZM131.398 68.5963C132.139 68.2155 132.778 68.0411 133.321 68.0411V67.2877C132.621 67.2877 131.864 67.5111 131.056 67.9258L131.398 68.5963ZM133.321 68.0411C134.1 68.0411 134.536 68.2671 134.764 68.6166L135.392 68.2038C134.971 67.5589 134.236 67.2877 133.321 67.2877V68.0411ZM134.764 68.6166C135.033 69.0298 135.188 69.6347 135.188 70.4713H135.939C135.939 69.5541 135.771 68.785 135.392 68.2038L134.764 68.6166ZM135.188 70.4713V73.1562H135.939V70.4713H135.188ZM135.564 73.5329H136.672V72.7795H135.564V73.5329ZM136.296 73.1562V74.3359H137.047V73.1562H136.296ZM136.495 74.0037C136.174 74.1762 135.77 74.2711 135.267 74.2711V75.0245C135.863 75.0245 136.395 74.9115 136.849 74.6681L136.495 74.0037ZM135.267 74.2711C134.754 74.2711 134.507 74.154 134.399 74.0316L133.838 74.5318C134.162 74.8975 134.681 75.0245 135.267 75.0245V74.2711ZM134.404 74.0376C134.284 73.896 134.183 73.6089 134.183 73.0884H133.432C133.432 73.6707 133.538 74.1792 133.832 74.5258L134.404 74.0376ZM134.183 73.0884V70.4713H133.432V73.0884H134.183ZM134.183 70.4713C134.183 70.054 134.129 69.6796 133.971 69.4031L133.319 69.7767C133.378 69.8799 133.432 70.0931 133.432 70.4713H134.183ZM133.975 69.4095C133.762 69.0185 133.316 68.9149 132.889 68.9149V69.6683C133.254 69.6683 133.312 69.7636 133.316 69.7703L133.975 69.4095ZM132.889 68.9149C132.61 68.9149 132.314 69.0083 132.011 69.1564C131.705 69.3063 131.367 69.5251 131 69.8054L131.454 70.405C131.798 70.1429 132.093 69.9549 132.341 69.8336C132.592 69.7104 132.77 69.6683 132.889 69.6683V68.9149ZM130.851 70.1052V73.0884H131.602V70.1052H130.851Z" fill="white"/>
<path d="M42.4113 78.1057V77.729H42.036V78.1057H42.4113ZM136.469 78.1057H136.844V77.729H136.469V78.1057ZM136.469 78.7837V79.1603H136.844V78.7837H136.469ZM42.4113 78.7837H42.036V79.1603H42.4113V78.7837ZM42.4113 78.4823H136.469V77.729H42.4113V78.4823ZM136.094 78.1057V78.7837H136.844V78.1057H136.094ZM136.469 78.407H42.4113V79.1603H136.469V78.407ZM42.7867 78.7837V78.1057H42.036V78.7837H42.7867Z" fill="white"/>
<g filter="url(#filter1_i)">
<path d="M89.724 65.619C89.4541 65.8929 89.146 66.1332 88.8041 66.3302C88.279 66.6327 87.6954 66.8202 87.0941 66.8824C87.6237 68.2015 87.576 69.7545 86.9669 71.0412C86.8577 71.2766 86.5758 71.3734 86.3491 71.2649C86.1168 71.1553 86.017 70.8777 86.1262 70.6449C87.0637 68.7495 86.3063 66.2405 84.5393 65.1923C83.872 64.8747 83.139 64.7079 82.3981 64.7079C75.6453 65.0601 75.9002 74.3547 81.8047 76.1657C82.0716 76.2587 82.3204 76.3329 82.561 76.4053C83.1833 76.5913 83.7204 76.7518 84.2627 77.1526L84.352 77.2189C84.5157 77.3398 84.739 77.3398 84.903 77.2189L84.9923 77.1526C85.5343 76.7522 86.0717 76.5913 86.6937 76.4053C86.9346 76.3333 87.1835 76.2587 87.4503 76.1657C91.9024 74.8587 93.69 68.4181 89.724 65.619Z" fill="#1B33B1"/>
<path d="M86.3307 65.5577C86.4369 65.691 86.536 65.83 86.6279 65.9732C87.2202 65.9773 87.8121 65.8263 88.3417 65.5219C89.4019 64.911 90.0512 63.7712 90.0358 62.5474C90.034 62.3847 89.9473 62.2348 89.8077 62.1519C88.7549 61.5281 87.4431 61.5195 86.384 62.1297C85.5737 62.5964 85.0039 63.3719 84.787 64.2575C85.3774 64.5803 85.9047 65.0213 86.3307 65.5577Z" fill="#118C01"/>
</g>
<g filter="url(#filter2_i)">
<path d="M26.4602 22.6C29.6731 22.6 32.2777 19.9861 32.2777 16.7617C32.2777 13.5373 29.6731 10.9233 26.4602 10.9233C23.2473 10.9233 20.6427 13.5373 20.6427 16.7617C20.6427 19.9861 23.2473 22.6 26.4602 22.6Z" fill="url(#paint0_linear)"/>
</g>
<g filter="url(#filter3_i)">
<path d="M15.7635 28.25C18.4582 28.25 20.6427 26.0577 20.6427 23.3533C20.6427 20.649 18.4582 18.4567 15.7635 18.4567C13.0688 18.4567 10.8843 20.649 10.8843 23.3533C10.8843 26.0577 13.0688 28.25 15.7635 28.25Z" fill="url(#paint1_linear)"/>
</g>
<g filter="url(#filter4_i)">
<path d="M8.6324 36.8595C11.1198 36.8595 13.1363 34.9322 13.1363 32.5548C13.1363 30.1773 11.1198 28.25 8.6324 28.25C6.14498 28.25 4.12854 30.1773 4.12854 32.5548C4.12854 34.9322 6.14498 36.8595 8.6324 36.8595Z" fill="url(#paint2_linear)"/>
</g>
<g filter="url(#filter5_i)">
<path d="M4.87917 45.2C6.74473 45.2 8.25707 43.7665 8.25707 41.9983C8.25707 40.2301 6.74473 38.7966 4.87917 38.7966C3.01362 38.7966 1.50128 40.2301 1.50128 41.9983C1.50128 43.7665 3.01362 45.2 4.87917 45.2Z" fill="url(#paint3_linear)"/>
</g>
<g filter="url(#filter6_i)">
<path d="M23.5587 41.2623C19.4905 40.981 17.9559 41.4593 15.1389 43.7487C6.10804 51.0877 6.2862 64.9095 15.6478 74.4715C17.8946 76.7458 20.4727 78.7508 21.3445 78.8115C22.5068 78.8917 22.6305 78.535 21.8187 77.5289C21.1943 76.7552 21.0225 74.3321 21.3286 72.161C21.6948 69.0449 22.8523 67.0791 26.3513 63.5949C32.5003 57.4443 34.2773 54.2061 33.5628 50.4304C32.6572 44.8877 29.0799 41.6446 23.5587 41.2623Z" fill="url(#paint4_linear)"/>
</g>
<g filter="url(#filter7_i)">
<path d="M43.2865 23.2792C37.993 21.2138 31.8113 23.9104 29.1418 29.426C27.066 33.549 27.9336 36.2964 33.2741 42.3859C38.4554 48.2981 39.3614 51.2248 37.309 55.648C35.2268 60.3119 43.3361 54.6961 47.191 48.8585C53.9149 38.823 52.0814 26.7823 43.2865 23.2792Z" fill="url(#paint5_linear)"/>
</g>
<g filter="url(#filter8_i)">
<path d="M21.9628 84.9519C18.0461 94.3392 21.4288 104.824 29.2711 107.895C32.3648 109.086 34.3639 109.166 37.3423 108.195C41.497 106.839 44.1329 102.528 43.7223 97.7303C43.4281 94.4179 41.5211 91.9221 36.7483 88.734C34.7249 87.3449 32.592 85.5855 31.9548 84.7937C30.0211 82.3446 29.5242 79.1644 30.6336 76.6445C31.1508 75.394 31.4169 74.2485 31.2233 74.1393C30.6425 73.8116 26.8014 77.3188 24.7979 79.9509C23.8843 81.2244 22.6125 83.4678 21.9628 84.9519Z" fill="url(#paint6_linear)"/>
</g>
<path d="M66.6327 84.7048C66.6327 85.0803 66.5464 85.3979 66.3737 85.6578C66.2011 85.912 65.9218 86.0389 65.5364 86.0389C65.1509 86.0389 64.866 85.9177 64.6818 85.6751C64.4975 85.4325 64.4055 85.138 64.4055 84.7914C64.4055 84.318 64.5665 83.9338 64.8889 83.6392C65.2113 83.339 65.5882 83.1887 66.0198 83.1887C66.4341 83.1887 66.814 83.3447 67.1593 83.6565C67.3375 83.8181 67.4817 84.055 67.5909 84.3669C67.7001 84.6788 67.7549 85.0457 67.7549 85.4672C67.7549 86.3855 67.5076 87.1392 67.0125 87.7283C66.5175 88.3117 65.8441 88.6033 64.9925 88.6033C64.1409 88.6033 63.4676 88.3117 62.9726 87.7283C62.4775 87.1392 62.2302 86.3911 62.2302 85.4845C62.2302 84.5779 62.4775 83.8328 62.9726 83.2494C63.4676 82.6603 64.1409 82.3657 64.9925 82.3657V83.0154C64.3939 83.0154 63.9135 83.2494 63.5509 83.7172C63.1884 84.1793 63.0071 84.7685 63.0071 85.4845C63.0071 86.2005 63.1884 86.7927 63.5509 87.2605C63.9135 87.7226 64.3939 87.9535 64.9925 87.9535C65.5912 87.9535 66.0716 87.7226 66.4341 87.2605C66.7967 86.7927 66.978 86.2295 66.978 85.5711C66.978 84.9071 66.883 84.4536 66.6931 84.211C66.5032 83.9628 66.2818 83.8385 66.0284 83.8385C65.7751 83.8385 65.5566 83.9281 65.3724 84.107C65.1881 84.2859 65.0961 84.5142 65.0961 84.7914C65.0961 84.9647 65.1337 85.109 65.2083 85.2246C65.283 85.3342 65.3926 85.3892 65.5364 85.3892C65.807 85.3892 65.9421 85.1609 65.9421 84.7048H66.6327ZM69.4119 87.9535H70.163V88.5167H68.0135V87.9535H68.6782V84.7481H68.0135V84.185H69.2479L69.3515 84.6441C69.5471 84.5345 69.7054 84.4505 69.8263 84.3929C69.9471 84.3293 70.1198 84.266 70.3442 84.2023C70.5743 84.133 70.7961 84.0984 71.0089 84.0984L71.4923 84.2283L71.2938 84.9387L70.9053 84.8347C70.4219 84.8347 69.9243 84.956 69.4119 85.1986V87.9535ZM71.4312 84.7481V84.2716L72.0959 84.185H72.1822C72.3661 83.7518 72.4899 83.3706 72.5534 83.0414H72.9159V84.185H74.2022V84.7481H72.9159V87.4078C72.9159 87.604 72.9475 87.7456 73.0109 87.8323C73.08 87.9189 73.1948 87.9622 73.3562 87.9622C73.5172 87.9622 73.733 87.9072 74.0036 87.7976L74.2885 88.2914C73.9605 88.4993 73.6092 88.6033 73.2353 88.6033C72.8611 88.6033 72.5905 88.505 72.4239 88.3087C72.2625 88.1125 72.1822 87.8582 72.1822 87.5464V84.7481H71.4312ZM75.8172 87.9535H76.5682V88.5167H74.4187V87.9535H75.0834V82.5823H74.4187V82.0192H75.8172V84.6095C76.4098 84.2686 76.948 84.0984 77.4314 84.0984C77.9148 84.0984 78.2485 84.2456 78.4328 84.5402C78.6227 84.8347 78.7176 85.2419 78.7176 85.7617V87.9969H79.4255V88.3607C79.2127 88.4937 78.965 88.56 78.6831 88.56C78.4069 88.56 78.22 88.5136 78.122 88.4214C78.0301 88.323 77.9839 88.1671 77.9839 87.9535V85.7617C77.9839 85.4269 77.9407 85.1756 77.8544 85.008C77.7681 84.8347 77.5695 84.7481 77.2588 84.7481C76.948 84.7481 76.4676 84.9214 75.8172 85.2679V87.9535ZM80.145 87.9709C79.7824 87.5433 79.6012 87.0036 79.6012 86.3508C79.6012 85.6981 79.7824 85.1609 80.145 84.7394C80.5076 84.3119 81.0169 84.0984 81.6729 84.0984C82.329 84.0984 82.8383 84.3119 83.2009 84.7394C83.5634 85.1609 83.7447 85.6981 83.7447 86.3508C83.7447 87.0036 83.5634 87.5433 83.2009 87.9709C82.8383 88.3924 82.329 88.6033 81.6729 88.6033C81.0169 88.6033 80.5076 88.3924 80.145 87.9709ZM80.6888 85.1986C80.4528 85.4988 80.3349 85.883 80.3349 86.3508C80.3349 86.8186 80.4528 87.2028 80.6888 87.503C80.9249 87.8033 81.2529 87.9535 81.6729 87.9535C82.0929 87.9535 82.4209 87.8033 82.657 87.503C82.8931 87.2028 83.011 86.8186 83.011 86.3508C83.011 85.883 82.8931 85.4988 82.657 85.1986C82.4209 84.8984 82.0929 84.7481 81.6729 84.7481C81.2529 84.7481 80.9249 84.8984 80.6888 85.1986ZM84.0022 84.7481V84.185H85.2366L85.3575 84.7135C85.7028 84.3033 86.1456 84.0984 86.6868 84.0984C87.2277 84.0984 87.645 84.3093 87.9385 84.7308C88.232 85.1466 88.3788 85.6838 88.3788 86.3422C88.3788 86.9949 88.2061 87.5347 87.8608 87.9622C87.5156 88.3897 87.0235 88.6033 86.3847 88.6033C86.0852 88.6033 85.7572 88.5457 85.4006 88.43V89.8162H86.0653V90.3793H84.0022V89.8162H84.6669V84.7481H84.0022ZM87.645 86.3855C87.645 85.906 87.5501 85.5135 87.3602 85.2073C87.1703 84.901 86.9027 84.7481 86.5574 84.7481C86.2177 84.7481 85.9385 84.8837 85.72 85.1553C85.5068 85.4269 85.4006 85.7531 85.4006 86.1342V87.685C85.7114 87.8639 86.0191 87.9535 86.3243 87.9535C86.7214 87.9535 87.0408 87.8119 87.2825 87.529C87.5242 87.2401 87.645 86.8589 87.645 86.3855ZM92.5441 86.0563V86.5154H89.4969C89.5254 86.9369 89.6493 87.2835 89.8681 87.555C90.0865 87.8206 90.38 87.9535 90.7486 87.9535C90.9903 87.9535 91.2061 87.9276 91.396 87.8756C91.5915 87.8236 91.7267 87.7773 91.8017 87.737C91.8764 87.6906 91.98 87.6243 92.1125 87.5377L92.4319 88.0228C91.9943 88.4097 91.4478 88.6033 90.7917 88.6033C90.1357 88.6033 89.632 88.3924 89.2811 87.9709C88.9358 87.5433 88.7631 87.0036 88.7631 86.3508C88.7631 85.6981 88.9358 85.1609 89.2811 84.7394C89.632 84.3119 90.1068 84.0984 90.7054 84.0984C91.3097 84.0984 91.7672 84.2803 92.078 84.6441C92.3887 85.008 92.5441 85.4788 92.5441 86.0563ZM91.8104 85.9003C91.7758 85.5482 91.6692 85.2679 91.491 85.06C91.3183 84.8521 91.068 84.7481 90.7399 84.7481C90.4175 84.7481 90.1529 84.8551 89.9458 85.0687C89.7386 85.2766 89.6005 85.5538 89.5314 85.9003H91.8104ZM96.6006 82.0192V87.9969H97.3084V88.3607C97.0956 88.4937 96.8539 88.56 96.5833 88.56C96.3127 88.56 96.1258 88.5223 96.0222 88.4473C95.9242 88.3664 95.8725 88.2308 95.8668 88.0402C95.5272 88.4157 95.0929 88.6033 94.5633 88.6033C94.0338 88.6033 93.6224 88.3954 93.3289 87.9795C93.0354 87.558 92.8886 87.0209 92.8886 86.3682C92.8886 85.7097 93.0613 85.167 93.4066 84.7394C93.7519 84.3119 94.2439 84.0984 94.8827 84.0984C95.1935 84.0984 95.5215 84.159 95.8668 84.2803V82.5823H95.2021V82.0192H96.6006ZM93.6224 86.3248C93.6224 86.7983 93.7174 87.1882 93.9073 87.4944C94.0972 87.8006 94.3618 87.9535 94.7015 87.9535C95.0467 87.9535 95.326 87.8179 95.5388 87.5464C95.7576 87.2748 95.8668 86.9486 95.8668 86.5674V85.0253C95.5617 84.8404 95.231 84.7481 94.8741 84.7481C94.5232 84.7481 94.2267 84.8924 93.985 85.1813C93.7433 85.4642 93.6224 85.8453 93.6224 86.3248ZM97.5299 84.7481V84.185H98.9283V87.9535H99.6793V88.5167H97.5212V87.9535H98.1946V84.7481H97.5299ZM98.5399 83.414C98.413 83.414 98.3094 83.3676 98.2291 83.2753C98.1484 83.1831 98.1082 83.0731 98.1082 82.9461C98.1082 82.8132 98.1514 82.6979 98.2377 82.5996C98.3297 82.5013 98.4389 82.4523 98.5658 82.4523C98.6922 82.4523 98.7958 82.4987 98.8765 82.5909C98.9568 82.6832 98.9974 82.7958 98.9974 82.9288C98.9974 83.0557 98.9512 83.1684 98.8593 83.2667C98.7729 83.365 98.6663 83.414 98.5399 83.414ZM103.697 89.8162H104.362V90.3793H102.212V89.8162H102.963V88.0488C102.612 88.4183 102.172 88.6033 101.643 88.6033C101.119 88.6033 100.71 88.3924 100.417 87.9709C100.129 87.5433 99.9852 87.0036 99.9852 86.3508C99.9852 85.6924 100.167 85.1523 100.529 84.7308C100.892 84.3093 101.418 84.0984 102.109 84.0984C102.609 84.0984 103.139 84.185 103.697 84.3583V89.8162ZM100.995 87.4857C101.185 87.7976 101.453 87.9535 101.798 87.9535C102.143 87.9535 102.422 87.8179 102.635 87.5464C102.854 87.2748 102.963 86.9486 102.963 86.5674V84.904C102.681 84.8001 102.42 84.7481 102.178 84.7481C101.7 84.7481 101.337 84.8954 101.09 85.1899C100.842 85.4845 100.719 85.8627 100.719 86.3248C100.719 86.787 100.811 87.1738 100.995 87.4857ZM107.132 84.7481V84.185H108.531V87.9969H109.239V88.3607C109.026 88.4937 108.741 88.56 108.384 88.56C108.033 88.56 107.84 88.407 107.806 88.1008C107.202 88.4417 106.658 88.612 106.174 88.612C105.697 88.612 105.363 88.4647 105.173 88.1701C104.989 87.8756 104.897 87.4684 104.897 86.9486V84.7481H104.232V84.185H105.63V86.9486C105.63 87.2835 105.674 87.5377 105.76 87.711C105.846 87.8786 106.045 87.9622 106.356 87.9622C106.666 87.9622 107.147 87.7889 107.797 87.4424V84.7481H107.132ZM113.189 86.0563V86.5154H110.142C110.171 86.9369 110.295 87.2835 110.513 87.555C110.732 87.8206 111.025 87.9535 111.393 87.9535C111.635 87.9535 111.851 87.9276 112.041 87.8756C112.237 87.8236 112.372 87.7773 112.447 87.737C112.522 87.6906 112.625 87.6243 112.757 87.5377L113.077 88.0228C112.64 88.4097 112.093 88.6033 111.437 88.6033C110.781 88.6033 110.277 88.3924 109.926 87.9709C109.581 87.5433 109.408 87.0036 109.408 86.3508C109.408 85.6981 109.581 85.1609 109.926 84.7394C110.277 84.3119 110.752 84.0984 111.35 84.0984C111.955 84.0984 112.412 84.2803 112.723 84.6441C113.034 85.008 113.189 85.4788 113.189 86.0563ZM112.455 85.9003C112.421 85.5482 112.315 85.2679 112.136 85.06C111.963 84.8521 111.713 84.7481 111.385 84.7481C111.063 84.7481 110.798 84.8551 110.591 85.0687C110.383 85.2766 110.245 85.5538 110.176 85.9003H112.455Z" fill="white"/>
<defs>
<filter id="filter0_i" x="33.8168" y="1.78809" width="14.5684" height="19.6317" filterUnits="userSpaceOnUse" color-interpolation-filters="sRGB">
<feFlood flood-opacity="0" result="BackgroundImageFix"/>
<feBlend mode="normal" in="SourceGraphic" in2="BackgroundImageFix" result="shape"/>
<feColorMatrix in="SourceAlpha" type="matrix" values="0 0 0 0 0 0 0 0 0 0 0 0 0 0 0 0 0 0 127 0" result="hardAlpha"/>
<feOffset dy="4"/>
<feGaussianBlur stdDeviation="2"/>
<feComposite in2="hardAlpha" operator="arithmetic" k2="-1" k3="1"/>
<feColorMatrix type="matrix" values="0 0 0 0 0 0 0 0 0 0 0 0 0 0 0 0 0 0 0.25 0"/>
<feBlend mode="normal" in2="shape" result="effect1_innerShadow"/>
</filter>
<filter id="filter1_i" x="77.3541" y="61.678" width="14.5685" height="19.6316" filterUnits="userSpaceOnUse" color-interpolation-filters="sRGB">
<feFlood flood-opacity="0" result="BackgroundImageFix"/>
<feBlend mode="normal" in="SourceGraphic" in2="BackgroundImageFix" result="shape"/>
<feColorMatrix in="SourceAlpha" type="matrix" values="0 0 0 0 0 0 0 0 0 0 0 0 0 0 0 0 0 0 127 0" result="hardAlpha"/>
<feOffset dy="4"/>
<feGaussianBlur stdDeviation="2"/>
<feComposite in2="hardAlpha" operator="arithmetic" k2="-1" k3="1"/>
<feColorMatrix type="matrix" values="0 0 0 0 0 0 0 0 0 0 0 0 0 0 0 0 0 0 0.25 0"/>
<feBlend mode="normal" in2="shape" result="effect1_innerShadow"/>
</filter>
<filter id="filter2_i" x="20.6427" y="10.9233" width="11.635" height="15.6767" filterUnits="userSpaceOnUse" color-interpolation-filters="sRGB">
<feFlood flood-opacity="0" result="BackgroundImageFix"/>
<feBlend mode="normal" in="SourceGraphic" in2="BackgroundImageFix" result="shape"/>
<feColorMatrix in="SourceAlpha" type="matrix" values="0 0 0 0 0 0 0 0 0 0 0 0 0 0 0 0 0 0 127 0" result="hardAlpha"/>
<feOffset dy="4"/>
<feGaussianBlur stdDeviation="2"/>
<feComposite in2="hardAlpha" operator="arithmetic" k2="-1" k3="1"/>
<feColorMatrix type="matrix" values="0 0 0 0 0 0 0 0 0 0 0 0 0 0 0 0 0 0 0.25 0"/>
<feBlend mode="normal" in2="shape" result="effect1_innerShadow"/>
</filter>
<filter id="filter3_i" x="10.8843" y="18.4567" width="9.75836" height="13.7933" filterUnits="userSpaceOnUse" color-interpolation-filters="sRGB">
<feFlood flood-opacity="0" result="BackgroundImageFix"/>
<feBlend mode="normal" in="SourceGraphic" in2="BackgroundImageFix" result="shape"/>
<feColorMatrix in="SourceAlpha" type="matrix" values="0 0 0 0 0 0 0 0 0 0 0 0 0 0 0 0 0 0 127 0" result="hardAlpha"/>
<feOffset dy="4"/>
<feGaussianBlur stdDeviation="2"/>
<feComposite in2="hardAlpha" operator="arithmetic" k2="-1" k3="1"/>
<feColorMatrix type="matrix" values="0 0 0 0 0 0 0 0 0 0 0 0 0 0 0 0 0 0 0.25 0"/>
<feBlend mode="normal" in2="shape" result="effect1_innerShadow"/>
</filter>
<filter id="filter4_i" x="4.12854" y="28.25" width="9.00771" height="12.6095" filterUnits="userSpaceOnUse" color-interpolation-filters="sRGB">
<feFlood flood-opacity="0" result="BackgroundImageFix"/>
<feBlend mode="normal" in="SourceGraphic" in2="BackgroundImageFix" result="shape"/>
<feColorMatrix in="SourceAlpha" type="matrix" values="0 0 0 0 0 0 0 0 0 0 0 0 0 0 0 0 0 0 127 0" result="hardAlpha"/>
<feOffset dy="4"/>
<feGaussianBlur stdDeviation="2"/>
<feComposite in2="hardAlpha" operator="arithmetic" k2="-1" k3="1"/>
<feColorMatrix type="matrix" values="0 0 0 0 0 0 0 0 0 0 0 0 0 0 0 0 0 0 0.25 0"/>
<feBlend mode="normal" in2="shape" result="effect1_innerShadow"/>
</filter>
<filter id="filter5_i" x="1.50128" y="38.7966" width="6.75579" height="10.4033" filterUnits="userSpaceOnUse" color-interpolation-filters="sRGB">
<feFlood flood-opacity="0" result="BackgroundImageFix"/>
<feBlend mode="normal" in="SourceGraphic" in2="BackgroundImageFix" result="shape"/>
<feColorMatrix in="SourceAlpha" type="matrix" values="0 0 0 0 0 0 0 0 0 0 0 0 0 0 0 0 0 0 127 0" result="hardAlpha"/>
<feOffset dy="4"/>
<feGaussianBlur stdDeviation="2"/>
<feComposite in2="hardAlpha" operator="arithmetic" k2="-1" k3="1"/>
<feColorMatrix type="matrix" values="0 0 0 0 0 0 0 0 0 0 0 0 0 0 0 0 0 0 0.25 0"/>
<feBlend mode="normal" in2="shape" result="effect1_innerShadow"/>
</filter>
<filter id="filter6_i" x="8.49377" y="41.1898" width="25.2175" height="41.6325" filterUnits="userSpaceOnUse" color-interpolation-filters="sRGB">
<feFlood flood-opacity="0" result="BackgroundImageFix"/>
<feBlend mode="normal" in="SourceGraphic" in2="BackgroundImageFix" result="shape"/>
<feColorMatrix in="SourceAlpha" type="matrix" values="0 0 0 0 0 0 0 0 0 0 0 0 0 0 0 0 0 0 127 0" result="hardAlpha"/>
<feOffset dy="4"/>
<feGaussianBlur stdDeviation="2"/>
<feComposite in2="hardAlpha" operator="arithmetic" k2="-1" k3="1"/>
<feColorMatrix type="matrix" values="0 0 0 0 0 0 0 0 0 0 0 0 0 0 0 0 0 0 0.25 0"/>
<feBlend mode="normal" in2="shape" result="effect1_innerShadow"/>
</filter>
<filter id="filter7_i" x="28.1031" y="22.5861" width="23.1529" height="38.7918" filterUnits="userSpaceOnUse" color-interpolation-filters="sRGB">
<feFlood flood-opacity="0" result="BackgroundImageFix"/>
<feBlend mode="normal" in="SourceGraphic" in2="BackgroundImageFix" result="shape"/>
<feColorMatrix in="SourceAlpha" type="matrix" values="0 0 0 0 0 0 0 0 0 0 0 0 0 0 0 0 0 0 127 0" result="hardAlpha"/>
<feOffset dy="4"/>
<feGaussianBlur stdDeviation="2"/>
<feComposite in2="hardAlpha" operator="arithmetic" k2="-1" k3="1"/>
<feColorMatrix type="matrix" values="0 0 0 0 0 0 0 0 0 0 0 0 0 0 0 0 0 0 0.25 0"/>
<feBlend mode="normal" in2="shape" result="effect1_innerShadow"/>
</filter>
<filter id="filter8_i" x="20.327" y="74.1179" width="23.4373" height="38.7443" filterUnits="userSpaceOnUse" color-interpolation-filters="sRGB">
<feFlood flood-opacity="0" result="BackgroundImageFix"/>
<feBlend mode="normal" in="SourceGraphic" in2="BackgroundImageFix" result="shape"/>
<feColorMatrix in="SourceAlpha" type="matrix" values="0 0 0 0 0 0 0 0 0 0 0 0 0 0 0 0 0 0 127 0" result="hardAlpha"/>
<feOffset dy="4"/>
<feGaussianBlur stdDeviation="2"/>
<feComposite in2="hardAlpha" operator="arithmetic" k2="-1" k3="1"/>
<feColorMatrix type="matrix" values="0 0 0 0 0 0 0 0 0 0 0 0 0 0 0 0 0 0 0.25 0"/>
<feBlend mode="normal" in2="shape" result="effect1_innerShadow"/>
</filter>
<linearGradient id="paint0_linear" x1="22.7588" y1="12.7551" x2="38.8927" y2="18.2347" gradientUnits="userSpaceOnUse">
<stop stop-color="white"/>
<stop offset="0.614583" stop-color="white"/>
</linearGradient>
<linearGradient id="paint1_linear" x1="12.6591" y1="19.993" x2="26.1907" y2="24.5888" gradientUnits="userSpaceOnUse">
<stop stop-color="white"/>
<stop offset="0.614583" stop-color="white"/>
</linearGradient>
<linearGradient id="paint2_linear" x1="5.76681" y1="29.6007" x2="18.1265" y2="34.0083" gradientUnits="userSpaceOnUse">
<stop stop-color="white"/>
<stop offset="0.614583" stop-color="white"/>
</linearGradient>
<linearGradient id="paint3_linear" x1="2.72998" y1="39.8012" x2="11.9821" y2="43.1282" gradientUnits="userSpaceOnUse">
<stop stop-color="white"/>
<stop offset="0.614583" stop-color="white"/>
</linearGradient>
<linearGradient id="paint4_linear" x1="7.736" y1="57.1693" x2="46.9581" y2="81.3564" gradientUnits="userSpaceOnUse">
<stop stop-color="white"/>
<stop offset="0.614583" stop-color="white"/>
</linearGradient>
<linearGradient id="paint5_linear" x1="25.8972" y1="38.0433" x2="61.9899" y2="58.2729" gradientUnits="userSpaceOnUse">
<stop stop-color="white"/>
<stop offset="0.614583" stop-color="white"/>
</linearGradient>
<linearGradient id="paint6_linear" x1="36.4836" y1="105.743" x2="43.0849" y2="62.2135" gradientUnits="userSpaceOnUse">
<stop stop-color="white"/>
<stop offset="0.614583" stop-color="white"/>
</linearGradient>
</defs>
</svg>
