<svg width="40" height="40" viewBox="0 0 40 40" fill="none" xmlns="http://www.w3.org/2000/svg">
<path d="M0 20C0 8.95161 8.95161 0 20 0C31.0484 0 40 8.95161 40 20C40 31.0484 31.0484 40 20 40C8.95161 40 0 31.0484 0 20ZM11.5806 22.3306L17.4194 16.2419L17.4194 30.9677C17.4194 32.0403 18.2823 32.9032 19.3548 32.9032H20.6452C21.7177 32.9032 22.5806 32.0403 22.5806 30.9677L22.5806 16.2419L28.4194 22.3306C29.1694 23.1129 30.4194 23.129 31.1855 22.3629L32.0645 21.4758C32.8226 20.7177 32.8226 19.4919 32.0645 18.7419L21.371 8.04032C20.6129 7.28226 19.3871 7.28226 18.6371 8.04032L7.93549 18.7419C7.17742 19.5 7.17742 20.7258 7.93549 21.4758L8.81452 22.3629C9.58065 23.129 10.8306 23.1129 11.5806 22.3306Z" fill="#020236"/>
</svg>
