<svg width="37" height="36" viewBox="0 0 37 36" fill="none" xmlns="http://www.w3.org/2000/svg">
<path d="M33.3503 0H4.15286C2.14553 0 0.503174 1.62 0.503174 3.6V32.4C0.503174 34.38 2.14553 36 4.15286 36H33.3503C35.3576 36 37 34.38 37 32.4V3.6C37 1.62 35.3576 0 33.3503 0ZM29.1532 13.14C28.9707 21.42 23.6787 27.18 15.6494 27.54C12.3646 27.72 9.99235 26.64 7.80254 25.38C10.1748 25.7401 13.2771 24.8401 14.9194 23.4C12.5471 23.22 11.0873 21.96 10.3573 19.98C11.0873 20.16 11.8172 19.98 12.3646 19.98C10.1748 19.26 8.71497 18 8.53248 15.12C9.07994 15.48 9.80986 15.66 10.5398 15.66C8.89744 14.76 7.80254 11.34 9.07993 9.18C11.4522 11.7 14.372 13.86 19.1166 14.22C17.8392 9.18 24.7736 6.48 27.5108 9.9C28.7882 9.72 29.7006 9.18 30.6131 8.82C30.2481 10.08 29.5182 10.8 28.6057 11.52C29.5182 11.34 30.4306 11.16 31.1605 10.8C30.978 11.7 30.0656 12.42 29.1532 13.14Z" fill="white"/>
</svg>
