<svg width="125" height="26" viewBox="0 0 125 26" fill="none" xmlns="http://www.w3.org/2000/svg">
<path d="M13.9056 5.20342L14.7351 7.42936C15.0813 8.35826 15.9436 8.99488 16.9333 9.05216L19.3676 9.19305C20.7194 9.27128 21.2838 10.9591 20.2509 11.8347L18.2415 13.5382C17.5127 14.1561 17.1998 15.1353 17.4353 16.0613L18.0747 18.5758C18.4139 19.9094 16.9284 20.9577 15.7855 20.1913L13.8924 18.9218C13.0501 18.3569 11.9499 18.3569 11.1076 18.9218L9.21446 20.1913C8.07161 20.9577 6.58613 19.9094 6.92528 18.5758L7.56475 16.0613C7.80025 15.1353 7.48734 14.1561 6.75851 13.5382L4.74911 11.8347C3.71624 10.9591 4.28061 9.27128 5.63242 9.19305L8.06673 9.05216C9.05639 8.99488 9.91872 8.35827 10.2649 7.42936L11.0944 5.20342C11.5795 3.90184 13.4205 3.90184 13.9056 5.20342Z" fill="#F1DB02" stroke="black"/>
<path d="M38.9056 5.20342L39.7351 7.42936C40.0813 8.35826 40.9436 8.99488 41.9333 9.05216L44.3676 9.19305C45.7194 9.27128 46.2838 10.9591 45.2509 11.8347L43.2415 13.5382C42.5127 14.1561 42.1998 15.1353 42.4353 16.0613L43.0747 18.5758C43.4139 19.9094 41.9284 20.9577 40.7855 20.1913L38.8924 18.9218C38.0501 18.3569 36.9499 18.3569 36.1076 18.9218L34.2145 20.1913C33.0716 20.9577 31.5861 19.9094 31.9253 18.5758L32.5647 16.0613C32.8002 15.1353 32.4873 14.1561 31.7585 13.5382L29.7491 11.8347C28.7162 10.9591 29.2806 9.27128 30.6324 9.19305L33.0667 9.05216C34.0564 8.99488 34.9187 8.35827 35.2649 7.42936L36.0944 5.20342C36.5795 3.90184 38.4205 3.90184 38.9056 5.20342Z" fill="#F1DB02" stroke="black"/>
<path d="M63.9056 5.20342L64.7351 7.42936C65.0813 8.35826 65.9436 8.99488 66.9333 9.05216L69.3676 9.19305C70.7194 9.27128 71.2838 10.9591 70.2509 11.8347L68.2415 13.5382C67.5127 14.1561 67.1998 15.1353 67.4353 16.0613L68.0747 18.5758C68.4139 19.9094 66.9284 20.9577 65.7855 20.1913L63.8924 18.9218C63.0501 18.3569 61.9499 18.3569 61.1076 18.9218L59.2145 20.1913C58.0716 20.9577 56.5861 19.9094 56.9253 18.5758L57.5647 16.0613C57.8002 15.1353 57.4873 14.1561 56.7585 13.5382L54.7491 11.8347C53.7162 10.9591 54.2806 9.27128 55.6324 9.19305L58.0667 9.05216C59.0564 8.99488 59.9187 8.35827 60.2649 7.42936L61.0944 5.20342C61.5795 3.90184 63.4205 3.90184 63.9056 5.20342Z" fill="#F1DB02" stroke="black"/>
<path d="M88.9056 5.20342L89.7351 7.42936C90.0813 8.35826 90.9436 8.99488 91.9333 9.05216L94.3676 9.19305C95.7194 9.27128 96.2838 10.9591 95.2509 11.8347L93.2415 13.5382C92.5127 14.1561 92.1998 15.1353 92.4353 16.0613L93.0747 18.5758C93.4139 19.9094 91.9284 20.9577 90.7855 20.1913L88.8924 18.9218C88.0501 18.3569 86.9499 18.3569 86.1076 18.9218L84.2145 20.1913C83.0716 20.9577 81.5861 19.9094 81.9253 18.5758L82.5647 16.0613C82.8002 15.1353 82.4873 14.1561 81.7585 13.5382L79.7491 11.8347C78.7162 10.9591 79.2806 9.27128 80.6324 9.19305L83.0667 9.05216C84.0564 8.99488 84.9187 8.35827 85.2649 7.42936L86.0944 5.20342C86.5795 3.90184 88.4205 3.90184 88.9056 5.20342Z" fill="#F1DB02" stroke="black"/>
<path d="M113.906 5.20342L114.735 7.42936C115.081 8.35826 115.944 8.99488 116.933 9.05216L119.368 9.19305C120.719 9.27128 121.284 10.9591 120.251 11.8347L118.241 13.5382C117.513 14.1561 117.2 15.1353 117.435 16.0613L118.075 18.5758C118.414 19.9094 116.928 20.9577 115.786 20.1913L113.892 18.9218C113.05 18.3569 111.95 18.3569 111.108 18.9218L109.214 20.1913C108.072 20.9577 106.586 19.9094 106.925 18.5758L107.565 16.0613C107.8 15.1353 107.487 14.1561 106.759 13.5382L104.749 11.8347C103.716 10.9591 104.281 9.27128 105.632 9.19305L108.067 9.05216C109.056 8.99488 109.919 8.35827 110.265 7.42936L111.094 5.20342C111.579 3.90184 113.421 3.90184 113.906 5.20342Z" fill="#C4C4C4" stroke="black"/>
</svg>
