<svg width="30" height="26" viewBox="0 0 26 26" fill="none" xmlns="http://www.w3.org/2000/svg">
<g clip-path="url(#clip0)">
<path d="M9.84848 0.00317383C4.40988 0.00317383 0 4.41219 0 9.85123C0 15.2903 4.40945 19.6993 9.84848 19.6993C15.2879 19.6993 19.697 15.2903 19.697 9.85123C19.697 4.41219 15.2879 0.00317383 9.84848 0.00317383ZM9.84848 2.94786C11.6481 2.94786 13.1064 4.40657 13.1064 6.20531C13.1064 8.00447 11.6481 9.46275 9.84848 9.46275C8.04975 9.46275 6.59147 8.00447 6.59147 6.20531C6.59147 4.40657 8.04975 2.94786 9.84848 2.94786ZM9.84632 17.1245C8.05148 17.1245 6.40761 16.4708 5.13967 15.3889C4.8308 15.1254 4.65257 14.7391 4.65257 14.3338C4.65257 12.5095 6.12902 11.0495 7.95371 11.0495H11.7441C13.5692 11.0495 15.0401 12.5095 15.0401 14.3338C15.0401 14.7396 14.8627 15.125 14.5534 15.3885C13.2859 16.4708 11.6416 17.1245 9.84632 17.1245Z" fill="white"/>
</g>
<g clip-path="url(#clip1)">
<path d="M19.3029 25.9999C23.0016 25.9999 25.9999 23.0016 25.9999 19.3029C25.9999 15.6043 23.0016 12.606 19.3029 12.606C15.6043 12.606 12.606 15.6043 12.606 19.3029C12.606 23.0016 15.6043 25.9999 19.3029 25.9999Z" fill="#1B33B1"/>
<path d="M22.6987 18.545H20.0585V15.907C20.0585 15.4894 19.7216 15.1509 19.304 15.1509C18.8865 15.1509 18.5497 15.4894 18.5497 15.9072V18.5469H15.9082C15.4907 18.5469 15.1512 18.8854 15.1514 19.3032C15.1512 19.5119 15.2355 19.7032 15.3721 19.8398C15.5089 19.9768 15.6977 20.0633 15.9062 20.0633H18.5497V22.6994C18.5497 22.9082 18.6326 23.0974 18.7694 23.2338C18.9062 23.3706 19.0944 23.4553 19.3033 23.4553C19.7207 23.4553 20.0585 23.1167 20.0585 22.6994V20.0632H22.6987C23.1163 20.0632 23.4549 19.7217 23.4547 19.3041C23.4545 18.8867 23.116 18.545 22.6987 18.545Z" fill="white"/>
</g>
<defs>
<clipPath id="clip0">
<rect width="19.697" height="19.697" fill="white"/>
</clipPath>
<clipPath id="clip1">
<rect width="13.3939" height="13.3939" fill="white" transform="translate(12.606 12.606)"/>
</clipPath>
</defs>
</svg>
