<svg width="138" height="113" viewBox="0 0 138 113" fill="none" xmlns="http://www.w3.org/2000/svg">
<path d="M43.6559 5.78523C43.4009 6.05873 43.1096 6.2984 42.7864 6.49491C42.2901 6.79643 41.7385 6.98354 41.1702 7.04557C41.6707 8.36156 41.6257 9.91056 41.0499 11.194C40.9467 11.4288 40.6802 11.5254 40.466 11.4172C40.2464 11.308 40.152 11.031 40.2552 10.7986C41.1414 8.90824 40.4255 6.40537 38.7553 5.35976C38.1246 5.04299 37.4317 4.87646 36.7314 4.87646C30.3487 5.22777 30.5895 14.4992 36.1706 16.3057C36.4228 16.3985 36.658 16.4727 36.8854 16.5445C37.4736 16.7302 37.9813 16.8906 38.4939 17.2903L38.5783 17.3562C38.733 17.477 38.9441 17.477 39.0991 17.3562L39.1835 17.2903C39.6958 16.8906 40.2038 16.7302 40.7916 16.5446C41.0194 16.4727 41.2546 16.3985 41.5068 16.3058C45.7149 15.0018 47.4046 8.57756 43.6559 5.78523Z" fill="#05053D"/>
<path d="M40.4486 5.72394C40.549 5.85721 40.6426 5.9957 40.7295 6.13836C41.2893 6.14287 41.8488 5.99205 42.3493 5.68828C43.3515 5.07896 43.9653 3.94213 43.9507 2.72151C43.9489 2.55914 43.867 2.40956 43.735 2.32698C42.7399 1.70464 41.5001 1.69602 40.4989 2.30463C39.733 2.77015 39.1945 3.54371 38.9894 4.42715C39.5475 4.74919 40.0459 5.18905 40.4486 5.72394Z" fill="#118C01"/>
<path d="M43.9571 68.0259C43.9571 68.7202 43.7825 69.3109 43.4335 69.7978C43.0844 70.2757 42.5267 70.5147 41.7604 70.5147C40.9942 70.5147 40.428 70.2847 40.0619 69.8248C39.6958 69.365 39.5127 68.8104 39.5127 68.1611C39.5127 67.1331 39.9682 66.3261 40.8792 65.7399C41.7902 65.1538 43.2461 64.8607 45.247 64.8607H45.8217C49.0826 64.8607 50.713 65.7805 50.713 67.6201C50.713 68.5399 50.3086 69.1891 49.4998 69.5678C49.9936 69.7482 50.3852 70.0458 50.6747 70.4606C50.9642 70.8664 51.1089 71.3578 51.1089 71.9349C51.1089 72.7104 50.8152 73.3507 50.2277 73.8556C49.6403 74.3516 48.7888 74.5996 47.6735 74.5996C47.4862 74.5996 47.052 74.577 46.3708 74.5319C45.6897 74.4869 45.1448 74.4643 44.7361 74.4643H43.3057V72.8412H44.5446V66.4974C43.2674 66.5335 42.3734 66.6823 41.8626 66.9438C41.3603 67.1963 41.1091 67.584 41.1091 68.107C41.1091 68.63 41.3262 68.8915 41.7604 68.8915C42.1606 68.8915 42.3607 68.603 42.3607 68.0259H43.9571ZM46.7157 70.5823V68.9592H47.7246C48.0481 68.9592 48.3163 68.86 48.5292 68.6616C48.7505 68.4632 48.8612 68.1611 48.8612 67.7553C48.8612 67.3405 48.6611 67.0249 48.261 66.8085C47.8608 66.5921 47.1754 66.4839 46.2048 66.4839V72.8818C47.0562 72.9449 47.6522 72.9764 47.9928 72.9764C48.3333 72.9764 48.6271 72.8637 48.874 72.6383C49.1294 72.4128 49.2571 72.1108 49.2571 71.732C49.2571 71.3443 49.1294 71.0557 48.874 70.8664C48.6186 70.677 48.2823 70.5823 47.8651 70.5823H46.7157ZM51.5854 65.8076V64.3197H54.229V72.9764H55.3401V74.4643H51.5726V72.9764H52.5688V65.8076H51.5854ZM58.5691 74.6131C57.7688 74.6131 57.2154 74.3651 56.9089 73.8692C56.6023 73.3642 56.4491 72.6744 56.4491 71.7997V69.1215H55.4657V67.7012H58.1093V71.7997C58.1093 72.1964 58.1604 72.494 58.2626 72.6924C58.3733 72.8908 58.6074 72.99 58.965 72.99C59.3226 72.99 59.8505 72.7149 60.5486 72.1649V69.1891H59.7568V67.7012H62.2089V73.0441H63.2561V74.2208C62.89 74.4282 62.409 74.5319 61.813 74.5319C61.2255 74.5319 60.8466 74.302 60.6764 73.8421C59.8931 74.3561 59.1906 74.6131 58.5691 74.6131ZM69.4871 71.0287V71.7456H65.1704C65.1959 72.1063 65.3364 72.4038 65.5919 72.6383C65.8558 72.8637 66.1623 72.9764 66.5114 72.9764C66.8605 72.9764 67.1542 72.9494 67.3926 72.8953C67.6395 72.8412 67.8098 72.7916 67.9034 72.7465C68.0056 72.7014 68.1546 72.6202 68.3504 72.503L68.6569 72.3272L69.321 73.6933C68.6229 74.2975 67.7544 74.5996 66.7157 74.5996C65.677 74.5996 64.8809 74.2704 64.3275 73.6122C63.7826 72.9449 63.5101 72.1017 63.5101 71.0828C63.5101 70.0638 63.7826 69.2252 64.3275 68.5669C64.8809 67.8996 65.6302 67.566 66.5752 67.566C67.5288 67.566 68.2525 67.8906 68.7463 68.5399C69.2402 69.1891 69.4871 70.0187 69.4871 71.0287ZM67.8268 70.3794C67.7928 70.0187 67.6736 69.7302 67.4692 69.5137C67.2734 69.2973 66.9882 69.1891 66.6135 69.1891C66.2474 69.1891 65.9409 69.3018 65.694 69.5273C65.4556 69.7437 65.2981 70.0277 65.2215 70.3794H67.8268ZM95.2289 68.1611C95.2289 68.8555 95.0543 69.4461 94.7052 69.9331C94.3562 70.411 93.7985 70.6499 93.0322 70.6499C92.2659 70.6499 91.6997 70.42 91.3336 69.9601C90.9675 69.5002 90.7845 68.9456 90.7845 68.2964C90.7845 67.2684 91.24 66.4613 92.151 65.8752C93.062 65.2891 94.5179 64.996 96.5188 64.996H97.0935C98.6856 64.996 99.8648 65.2755 100.631 65.8346C101.406 66.3847 101.793 67.1467 101.793 68.1205C101.793 69.0854 101.504 69.8384 100.925 70.3794C100.354 70.9205 99.6264 71.191 98.7409 71.191C98.2641 71.191 97.8427 71.1549 97.4766 71.0828V72.8412H98.9708V74.4643H94.5775V72.8412H95.8163V66.6327C94.5392 66.6687 93.6452 66.8175 93.1344 67.079C92.632 67.3315 92.3809 67.7193 92.3809 68.2423C92.3809 68.7653 92.598 69.0268 93.0322 69.0268C93.4324 69.0268 93.6325 68.7382 93.6325 68.1611H95.2289ZM97.4766 66.6191V69.4191C97.8086 69.5183 98.196 69.5678 98.6388 69.5678C99.09 69.5678 99.4519 69.4326 99.7243 69.1621C99.9968 68.8915 100.133 68.5263 100.133 68.0664C100.133 67.5975 99.9287 67.2414 99.52 66.9979C99.1198 66.7454 98.4387 66.6191 97.4766 66.6191ZM108.34 71.0287V71.7456H104.023C104.048 72.1063 104.189 72.4038 104.444 72.6383C104.708 72.8637 105.015 72.9764 105.364 72.9764C105.713 72.9764 106.007 72.9494 106.245 72.8953C106.492 72.8412 106.662 72.7916 106.756 72.7465C106.858 72.7014 107.007 72.6202 107.203 72.503L107.509 72.3272L108.174 73.6933C107.475 74.2975 106.607 74.5996 105.568 74.5996C104.529 74.5996 103.733 74.2704 103.18 73.6122C102.635 72.9449 102.363 72.1017 102.363 71.0828C102.363 70.0638 102.635 69.2252 103.18 68.5669C103.733 67.8996 104.483 67.566 105.428 67.566C106.381 67.566 107.105 67.8906 107.599 68.5399C108.093 69.1891 108.34 70.0187 108.34 71.0287ZM106.679 70.3794C106.645 70.0187 106.526 69.7302 106.322 69.5137C106.126 69.2973 105.841 69.1891 105.466 69.1891C105.1 69.1891 104.793 69.3018 104.547 69.5273C104.308 69.7437 104.151 70.0277 104.074 70.3794H106.679ZM112.62 73.5851C112.093 74.2614 111.505 74.5996 110.858 74.5996C110.211 74.5996 109.704 74.4237 109.338 74.0721C108.972 73.7204 108.789 73.2289 108.789 72.5977C108.789 71.9575 109.027 71.4164 109.504 70.9746C109.981 70.5327 110.683 70.3118 111.611 70.3118H112.62V69.8248C112.62 69.401 112.369 69.1891 111.867 69.1891C111.365 69.1891 110.918 69.2477 110.526 69.365V70.1359H109.057V68.1205C109.474 67.9492 109.96 67.814 110.513 67.7148C111.075 67.6156 111.543 67.566 111.918 67.566C112.659 67.566 113.238 67.7734 113.655 68.1882C114.072 68.594 114.281 69.1395 114.281 69.8248V73.0441H115.328V74.2208C114.962 74.4282 114.502 74.5319 113.949 74.5319C113.063 74.5319 112.62 74.2163 112.62 73.5851ZM110.973 72.9764C111.56 72.9764 112.11 72.6067 112.62 71.8673V71.8132H111.599C111.207 71.8132 110.918 71.8853 110.73 72.0296C110.543 72.1739 110.449 72.3678 110.449 72.6112C110.449 72.8547 110.624 72.9764 110.973 72.9764ZM121.263 73.6933C120.599 74.2975 119.761 74.5996 118.747 74.5996C117.734 74.5996 116.951 74.2704 116.397 73.6122C115.853 72.9449 115.58 72.1017 115.58 71.0828C115.58 70.0638 115.853 69.2252 116.397 68.5669C116.951 67.8996 117.683 67.566 118.594 67.566C119.514 67.566 120.301 67.7508 120.957 68.1205V70.3388H119.488V69.2973C119.258 69.2252 118.999 69.1891 118.709 69.1891C118.249 69.1891 117.887 69.365 117.624 69.7166C117.368 70.0683 117.24 70.5237 117.24 71.0828C117.24 71.6419 117.368 72.0972 117.624 72.4489C117.887 72.8006 118.215 72.9764 118.607 72.9764C119.007 72.9764 119.339 72.9359 119.603 72.8547C119.876 72.7735 120.063 72.7014 120.165 72.6383C120.276 72.5661 120.42 72.4624 120.599 72.3272L121.263 73.6933ZM124.036 72.9764H125.147V74.4643H121.392V72.9764H122.376V65.8076H121.392V64.3197H124.036V68.1611C124.768 67.7644 125.428 67.566 126.016 67.566C126.816 67.566 127.369 67.814 127.676 68.3099C127.982 68.8059 128.136 69.4912 128.136 70.3659V73.0441H129.183V74.2208C128.817 74.4282 128.374 74.5319 127.855 74.5319C127.335 74.5319 126.973 74.4102 126.769 74.1667C126.573 73.9233 126.475 73.5265 126.475 72.9764V70.3659C126.475 69.9691 126.424 69.6761 126.322 69.4867C126.22 69.2883 125.982 69.1891 125.607 69.1891C125.232 69.1891 124.709 69.4596 124.036 70.0007V72.9764Z" fill="black"/>
<path d="M40.0874 77.9812H128.991V78.6568H40.0874V77.9812Z" fill="black"/>
<path d="M43.9571 68.026H44.1345V67.8381H43.9571V68.026ZM43.4335 69.7979L43.5736 69.9129L43.5747 69.9114L43.4335 69.7979ZM40.0619 69.825L40.1974 69.704L40.0619 69.825ZM40.8792 65.7401L40.787 65.5796L40.8792 65.7401ZM49.4998 69.568L49.4281 69.3963L49.0148 69.5898L49.442 69.7457L49.4998 69.568ZM50.6747 70.4607L50.5321 70.5723L50.5332 70.5738L50.6747 70.4607ZM50.2277 73.8558L50.3384 74.0027L50.3395 74.0015L50.2277 73.8558ZM46.3708 74.5321L46.3598 74.7196L46.3708 74.5321ZM43.3058 74.4644H43.1284V74.6523H43.3058V74.4644ZM43.3058 72.8413V72.6534H43.1284V72.8413H43.3058ZM44.5446 72.8413V73.0292H44.7219V72.8413H44.5446ZM44.5446 66.4975H44.7219V66.3044L44.5399 66.3097L44.5446 66.4975ZM41.8626 66.9439L41.9385 67.1137L41.9399 67.113L41.8626 66.9439ZM42.3607 68.026V67.8381H42.1833V68.026H42.3607ZM46.7157 70.5824H46.5383V70.7703H46.7157V70.5824ZM46.7157 68.9593V68.7714H46.5383V68.9593H46.7157ZM48.5292 68.6617L48.4146 68.5182L48.4121 68.5208L48.5292 68.6617ZM46.2048 66.484V66.2961H46.0274V66.484H46.2048ZM46.2048 72.8819H46.0274V73.057L46.1924 73.0694L46.2048 72.8819ZM48.874 72.6384L48.7605 72.4941L48.7583 72.496L48.874 72.6384ZM48.874 70.8665L48.7722 71.0205L48.874 70.8665ZM43.7797 68.026C43.7797 68.685 43.6147 69.2343 43.2923 69.6844L43.5747 69.9114C43.9503 69.3876 44.1345 68.7556 44.1345 68.026H43.7797ZM43.2933 69.6829C42.9882 70.1004 42.4919 70.3269 41.7604 70.3269V70.7027C42.5615 70.7027 43.1805 70.4513 43.5736 69.9129L43.2933 69.6829ZM41.7604 70.3269C41.0272 70.3269 40.5191 70.1079 40.1974 69.704L39.9264 69.946C40.3368 70.4618 40.9612 70.7027 41.7604 70.7027V70.3269ZM40.1974 69.704C39.8607 69.2805 39.6901 68.7699 39.6901 68.1612H39.3353C39.3353 68.8511 39.5308 69.4496 39.9264 69.946L40.1974 69.704ZM39.6901 68.1612C39.6901 67.2062 40.1069 66.4566 40.9715 65.9005L40.787 65.5796C39.8295 66.1958 39.3353 67.0604 39.3353 68.1612H39.6901ZM40.9715 65.9005C41.8395 65.3422 43.2547 65.0487 45.247 65.0487V64.673C43.2376 64.673 41.7409 64.9657 40.787 65.5796L40.9715 65.9005ZM45.247 65.0487H45.8217V64.673H45.247V65.0487ZM45.8217 65.0487C47.4422 65.0487 48.6299 65.2783 49.4068 65.7164C49.7925 65.9339 50.0727 66.2007 50.2568 66.5126C50.441 66.824 50.5357 67.1907 50.5357 67.6202H50.8904C50.8904 67.1299 50.7815 66.6918 50.5577 66.3134C50.3345 65.9354 50.0032 65.6274 49.5736 65.385C48.72 64.9033 47.4621 64.673 45.8217 64.673V65.0487ZM50.5357 67.6202C50.5357 68.05 50.4417 68.4047 50.2618 68.6937C50.0816 68.9826 49.8077 69.2182 49.4281 69.3963L49.5714 69.7397C50.0007 69.539 50.3335 69.2606 50.5577 68.9003C50.7822 68.54 50.8904 68.1101 50.8904 67.6202H50.5357ZM49.442 69.7457C49.9046 69.9144 50.2653 70.1906 50.5321 70.5723L50.8173 70.3491C50.5052 69.9012 50.0827 69.5822 49.5576 69.3902L49.442 69.7457ZM50.5332 70.5738C50.7964 70.9428 50.9316 71.3929 50.9316 71.935H51.2863C51.2863 71.323 51.132 70.7902 50.8163 70.3476L50.5332 70.5738ZM50.9316 71.935C50.9316 72.6519 50.6634 73.2392 50.116 73.71L50.3395 74.0015C50.9671 73.4624 51.2863 72.7692 51.2863 71.935H50.9316ZM50.1171 73.7089C49.5732 74.168 48.7676 74.4118 47.6735 74.4118V74.7876C48.8101 74.7876 49.7073 74.5354 50.3384 74.0027L50.1171 73.7089ZM47.6735 74.4118C47.4929 74.4118 47.0647 74.3897 46.3818 74.3446L46.3598 74.7196C47.0392 74.7646 47.4795 74.7876 47.6735 74.7876V74.4118ZM46.3818 74.3446C45.6993 74.2995 45.1501 74.2766 44.7361 74.2766V74.6523C45.1395 74.6523 45.6801 74.6745 46.3598 74.7196L46.3818 74.3446ZM44.7361 74.2766H43.3058V74.6523H44.7361V74.2766ZM43.4831 74.4644V72.8413H43.1284V74.4644H43.4831ZM43.3058 73.0292H44.5446V72.6534H43.3058V73.0292ZM44.7219 72.8413V66.4975H44.3672V72.8413H44.7219ZM44.5399 66.3097C43.2614 66.3457 42.3334 66.4941 41.7853 66.7748L41.9399 67.113C42.4135 66.8706 43.2735 66.7215 44.5492 66.6854L44.5399 66.3097ZM41.7867 66.7741C41.5142 66.9112 41.2985 67.0904 41.1513 67.3177C41.003 67.5466 40.9317 67.8122 40.9317 68.1071H41.2865C41.2865 67.8791 41.3408 67.6893 41.4436 67.5304C41.5476 67.37 41.7086 67.2291 41.9385 67.1137L41.7867 66.7741ZM40.9317 68.1071C40.9317 68.3919 40.9903 68.6411 41.1389 68.8195C41.2911 69.0029 41.5096 69.0795 41.7604 69.0795V68.7038C41.577 68.7038 41.4699 68.6497 41.405 68.5715C41.3365 68.4885 41.2865 68.3454 41.2865 68.1071H40.9317ZM41.7604 69.0795C42.0052 69.0795 42.2138 68.9882 42.3536 68.7865C42.4859 68.5956 42.5381 68.3318 42.5381 68.026H42.1833C42.1833 68.2973 42.1354 68.4663 42.0677 68.564C42.0073 68.6508 41.9158 68.7038 41.7604 68.7038V69.0795ZM42.3607 68.2139H43.9571V67.8381H42.3607V68.2139ZM46.893 70.5824V68.9593H46.5383V70.5824H46.893ZM46.7157 69.1472H47.7246V68.7714H46.7157V69.1472ZM47.7246 69.1472C48.0847 69.1472 48.3965 69.0356 48.6462 68.8026L48.4121 68.5208C48.2361 68.6846 48.0116 68.7714 47.7246 68.7714V69.1472ZM48.6438 68.8052C48.9169 68.5603 49.0386 68.1977 49.0386 67.7555H48.6838C48.6838 68.1248 48.5842 68.3664 48.4146 68.5182L48.6438 68.8052ZM49.0386 67.7555C49.0386 67.5142 48.9797 67.2944 48.8584 67.1028C48.7378 66.9127 48.5618 66.7605 48.3415 66.6414L48.1805 66.9758C48.3603 67.0731 48.4845 67.187 48.5639 67.3125C48.6427 67.4365 48.6838 67.5819 48.6838 67.7555H49.0386ZM48.3415 66.6414C47.9009 66.4028 47.1783 66.2961 46.2048 66.2961V66.6719C47.1726 66.6719 47.8207 66.7816 48.1805 66.9758L48.3415 66.6414ZM46.0274 66.484V72.8819H46.3822V66.484H46.0274ZM46.1924 73.0694C47.0438 73.1325 47.6451 73.1644 47.9928 73.1644V72.7887C47.6593 72.7887 47.0686 72.7575 46.2172 72.6944L46.1924 73.0694ZM47.9928 73.1644C48.3738 73.1644 48.709 73.0371 48.9896 72.7808L48.7583 72.496C48.5451 72.6906 48.2929 72.7887 47.9928 72.7887V73.1644ZM48.9875 72.7827C49.2869 72.5186 49.4345 72.162 49.4345 71.7322H49.0798C49.0798 72.0598 48.9719 72.3074 48.7605 72.4941L48.9875 72.7827ZM49.4345 71.7322C49.4345 71.2952 49.2873 70.9435 48.9758 70.7124L48.7722 71.0205C48.9716 71.1682 49.0798 71.3936 49.0798 71.7322H49.4345ZM48.9758 70.7124C48.6821 70.4949 48.3064 70.3946 47.8651 70.3946V70.7703C48.2581 70.7703 48.5554 70.8593 48.7722 71.0205L48.9758 70.7124ZM47.8651 70.3946H46.7157V70.7703H47.8651V70.3946ZM51.5854 65.8077H51.408V65.9956H51.5854V65.8077ZM51.5854 64.3198V64.132H51.408V64.3198H51.5854ZM54.229 64.3198H54.4064V64.132H54.229V64.3198ZM54.229 72.9766H54.0517V73.1644H54.229V72.9766ZM55.3401 72.9766H55.5175V72.7887H55.3401V72.9766ZM55.3401 74.4644V74.6523H55.5175V74.4644H55.3401ZM51.5726 74.4644H51.3952V74.6523H51.5726V74.4644ZM51.5726 72.9766V72.7887H51.3952V72.9766H51.5726ZM52.5688 72.9766V73.1644H52.7462V72.9766H52.5688ZM52.5688 65.8077H52.7462V65.6198H52.5688V65.8077ZM51.7628 65.8077V64.3198H51.408V65.8077H51.7628ZM51.5854 64.5077H54.229V64.132H51.5854V64.5077ZM54.0517 64.3198V72.9766H54.4064V64.3198H54.0517ZM54.229 73.1644H55.3401V72.7887H54.229V73.1644ZM55.1627 72.9766V74.4644H55.5175V72.9766H55.1627ZM55.3401 74.2766H51.5726V74.6523H55.3401V74.2766ZM51.75 74.4644V72.9766H51.3952V74.4644H51.75ZM51.5726 73.1644H52.5688V72.7887H51.5726V73.1644ZM52.7462 72.9766V65.8077H52.3914V72.9766H52.7462ZM52.5688 65.6198H51.5854V65.9956H52.5688V65.6198ZM56.9089 73.8693L56.7595 73.9707L56.7606 73.9722L56.9089 73.8693ZM56.4491 69.1216H56.6265V68.9337H56.4491V69.1216ZM55.4657 69.1216H55.2883V69.3095H55.4657V69.1216ZM55.4657 67.7014V67.5135H55.2883V67.7014H55.4657ZM58.1093 67.7014H58.2867V67.5135H58.1093V67.7014ZM58.2626 72.6925L58.1069 72.7823L58.1083 72.7853L58.1101 72.7879L58.2626 72.6925ZM60.5487 72.165L60.6544 72.3157L60.726 72.2593V72.165H60.5487ZM60.5487 69.1892H60.726V69.0014H60.5487V69.1892ZM59.7568 69.1892H59.5795V69.3771H59.7568V69.1892ZM59.7568 67.7014V67.5135H59.5795V67.7014H59.7568ZM62.2089 67.7014H62.3863V67.5135H62.2089V67.7014ZM62.2089 73.0442H62.0315V73.2321H62.2089V73.0442ZM63.2561 73.0442H63.4335V72.8563H63.2561V73.0442ZM63.2561 74.221L63.3399 74.3867L63.4335 74.3337V74.221H63.2561ZM60.6764 73.8422L60.8417 73.7735L60.764 73.5638L60.5831 73.6826L60.6764 73.8422ZM58.5691 74.4254C57.8007 74.4254 57.3182 74.1887 57.0571 73.7663L56.7606 73.9722C57.1125 74.5418 57.7369 74.8011 58.5691 74.8011V74.4254ZM57.0582 73.7678C56.7765 73.3038 56.6265 72.6542 56.6265 71.7998H56.2717C56.2717 72.6948 56.4282 73.4248 56.7595 73.9707L57.0582 73.7678ZM56.6265 71.7998V69.1216H56.2717V71.7998H56.6265ZM56.4491 68.9337H55.4657V69.3095H56.4491V68.9337ZM55.6431 69.1216V67.7014H55.2883V69.1216H55.6431ZM55.4657 67.8892H58.1093V67.5135H55.4657V67.8892ZM57.932 67.7014V71.7998H58.2867V67.7014H57.932ZM57.932 71.7998C57.932 72.2074 57.9834 72.543 58.1069 72.7823L58.4183 72.6027C58.3375 72.4453 58.2867 72.1857 58.2867 71.7998H57.932ZM58.1101 72.7879C58.2693 73.0739 58.5868 73.178 58.965 73.178V72.8022C58.628 72.8022 58.4772 72.7079 58.4155 72.5971L58.1101 72.7879ZM58.965 73.178C59.1832 73.178 59.4329 73.0953 59.7075 72.9525C59.9846 72.8082 60.3003 72.5948 60.6544 72.3157L60.4429 72.0143C60.0988 72.2852 59.8015 72.4844 59.5507 72.6151C59.2974 72.7474 59.1044 72.8022 58.965 72.8022V73.178ZM60.726 72.165V69.1892H60.3713V72.165H60.726ZM60.5487 69.0014H59.7568V69.3771H60.5487V69.0014ZM59.9342 69.1892V67.7014H59.5795V69.1892H59.9342ZM59.7568 67.8892H62.2089V67.5135H59.7568V67.8892ZM62.0315 67.7014V73.0442H62.3863V67.7014H62.0315ZM62.2089 73.2321H63.2561V72.8563H62.2089V73.2321ZM63.0788 73.0442V74.221H63.4335V73.0442H63.0788ZM63.1724 74.0553C62.8407 74.2431 62.3916 74.3442 61.813 74.3442V74.7199C62.4264 74.7199 62.9393 74.6136 63.3399 74.3867L63.1724 74.0553ZM61.813 74.3442C61.5398 74.3442 61.3312 74.2905 61.1766 74.1965C61.0244 74.1045 60.913 73.9666 60.8417 73.7735L60.5114 73.911C60.61 74.1778 60.7732 74.3848 60.9999 74.5227C61.2241 74.6587 61.4987 74.7199 61.813 74.7199V74.3442ZM60.5831 73.6826C59.815 74.1864 59.1452 74.4254 58.5691 74.4254V74.8011C59.2361 74.8011 59.9711 74.5261 60.7697 74.0019L60.5831 73.6826ZM69.4871 71.7457V71.9335H69.6644V71.7457H69.4871ZM65.1704 71.7457V71.5578H64.9792L64.9934 71.7596L65.1704 71.7457ZM65.5919 72.6384L65.4755 72.7804L65.478 72.7827L65.4805 72.7846L65.5919 72.6384ZM67.3926 72.8954L67.3568 72.7113L67.3553 72.7117L67.3926 72.8954ZM67.9034 72.7466L67.8353 72.573L67.8325 72.5745L67.83 72.5757L67.9034 72.7466ZM68.3504 72.5031L68.266 72.3378L68.2632 72.3397L68.3504 72.5031ZM68.6569 72.3273L68.8145 72.2413L68.7318 72.0707L68.5725 72.162L68.6569 72.3273ZM69.321 73.6934L69.4331 73.8389L69.5445 73.7427L69.4786 73.6074L69.321 73.6934ZM64.3275 73.6123L64.1934 73.7352L64.1948 73.737L64.3275 73.6123ZM64.3275 68.567L64.1941 68.443L64.3275 68.567ZM68.7463 68.54L68.608 68.658L68.7463 68.54ZM67.8268 70.3795V70.5674H68.0226L68.0031 70.3608L67.8268 70.3795ZM67.4692 69.5139L67.3412 69.6439L67.3436 69.6469L67.4692 69.5139ZM65.694 69.5274L65.8093 69.6702L65.8097 69.6698L65.694 69.5274ZM65.2215 70.3795L65.0487 70.3375L64.9984 70.5674H65.2215V70.3795ZM69.3097 71.0288V71.7457H69.6644V71.0288H69.3097ZM69.4871 71.5578H65.1704V71.9335H69.4871V71.5578ZM64.9934 71.7596C65.0225 72.1691 65.1842 72.5129 65.4755 72.7804L65.7079 72.4964C65.4883 72.295 65.3694 72.0436 65.3471 71.7318L64.9934 71.7596ZM65.4805 72.7846C65.777 73.0378 66.1229 73.1644 66.5114 73.1644V72.7887C66.2013 72.7887 65.9345 72.6899 65.7032 72.4923L65.4805 72.7846ZM66.5114 73.1644C66.8679 73.1644 67.1751 73.137 67.4298 73.0791L67.3553 72.7117C67.1333 72.762 66.8527 72.7887 66.5114 72.7887V73.1644ZM67.4284 73.0795C67.675 73.0254 67.863 72.9724 67.9769 72.9176L67.83 72.5757C67.7562 72.611 67.6037 72.6572 67.3568 72.7113L67.4284 73.0795ZM67.9716 72.9202C68.084 72.8706 68.2405 72.7846 68.4377 72.6666L68.2632 72.3397C68.0684 72.4562 67.9272 72.5325 67.8353 72.573L67.9716 72.9202ZM68.4349 72.6685L68.7414 72.4926L68.5725 72.162L68.266 72.3378L68.4349 72.6685ZM68.4991 72.4133L69.1632 73.7795L69.4786 73.6074L68.8145 72.2413L68.4991 72.4133ZM69.2086 73.548C68.547 74.1206 67.72 74.4118 66.7157 74.4118V74.7876C67.7889 74.7876 68.6988 74.4746 69.4331 73.8389L69.2086 73.548ZM66.7157 74.4118C65.7139 74.4118 64.9717 74.0958 64.4598 73.4875L64.1948 73.737C64.7901 74.4453 65.6397 74.7876 66.7157 74.7876V74.4118ZM64.4616 73.4894C63.949 72.8616 63.6875 72.0643 63.6875 71.0829H63.3328C63.3328 72.1394 63.6162 73.0284 64.1934 73.7352L64.4616 73.4894ZM63.6875 71.0829C63.6875 70.1015 63.949 69.3095 64.4609 68.691L64.1941 68.443C63.6162 69.1411 63.3328 70.0264 63.3328 71.0829H63.6875ZM64.4609 68.691C64.976 68.0696 65.6738 67.754 66.5752 67.754V67.3782C65.5862 67.3782 64.7859 67.7299 64.1941 68.443L64.4609 68.691ZM66.5752 67.754C67.4877 67.754 68.1553 68.0624 68.608 68.658L68.8843 68.422C68.3497 67.719 67.57 67.3782 66.5752 67.3782V67.754ZM68.608 68.658C69.0717 69.267 69.3097 70.0523 69.3097 71.0288H69.6644C69.6644 69.9854 69.4087 69.1115 68.8843 68.422L68.608 68.658ZM68.0031 70.3608C67.9659 69.9655 67.8328 69.6337 67.5944 69.3809L67.3436 69.6469C67.5139 69.8268 67.6196 70.0722 67.6502 70.3983L68.0031 70.3608ZM67.5973 69.3839C67.3582 69.1197 67.0201 69.0014 66.6136 69.0014V69.3771C66.9562 69.3771 67.1886 69.4752 67.3412 69.6439L67.5973 69.3839ZM66.6136 69.0014C66.2105 69.0014 65.8611 69.1265 65.578 69.385L65.8097 69.6698C66.0204 69.4774 66.2843 69.3771 66.6136 69.3771V69.0014ZM65.5784 69.3846C65.3088 69.6296 65.1328 69.9501 65.0487 70.3375L65.3943 70.4216C65.4631 70.1056 65.6021 69.858 65.8093 69.6702L65.5784 69.3846ZM65.2215 70.5674H67.8268V70.1917H65.2215V70.5674ZM95.2288 68.1612H95.4062V67.9734H95.2288V68.1612ZM94.7052 69.9332L94.8457 70.0481L94.8468 70.0466L94.7052 69.9332ZM91.3336 69.9602L91.4695 69.8392L91.3336 69.9602ZM92.151 65.8753L92.0591 65.7149L92.151 65.8753ZM100.631 65.8347L100.531 65.9895L100.532 65.9907L100.631 65.8347ZM100.925 70.3795L100.808 70.2386L100.807 70.2398L100.925 70.3795ZM97.4766 71.0829L97.5092 70.898L97.2992 70.8567V71.0829H97.4766ZM97.4766 72.8413H97.2992V73.0292H97.4766V72.8413ZM98.9708 72.8413H99.1482V72.6534H98.9708V72.8413ZM98.9708 74.4644V74.6523H99.1482V74.4644H98.9708ZM94.5775 74.4644H94.4001V74.6523H94.5775V74.4644ZM94.5775 72.8413V72.6534H94.4001V72.8413H94.5775ZM95.8163 72.8413V73.0292H95.9937V72.8413H95.8163ZM95.8163 66.6328H95.9937V66.4397L95.8117 66.4449L95.8163 66.6328ZM93.1344 67.0792L93.2106 67.249L93.2117 67.2482L93.1344 67.0792ZM93.6324 68.1612V67.9734H93.4551V68.1612H93.6324ZM97.4766 66.6193V66.4314H97.2992V66.6193H97.4766ZM97.4766 69.4192H97.2992V69.5612L97.4287 69.5999L97.4766 69.4192ZM99.52 66.998L99.4291 67.1596L99.4331 67.1618L99.52 66.998ZM95.0515 68.1612C95.0515 68.8203 94.8865 69.3696 94.564 69.8197L94.8468 70.0466C95.2221 69.5229 95.4062 68.8909 95.4062 68.1612H95.0515ZM94.5651 69.8182C94.2604 70.2356 93.7641 70.4622 93.0322 70.4622V70.8379C93.8332 70.8379 94.4523 70.5866 94.8457 70.0481L94.5651 69.8182ZM93.0322 70.4622C92.2989 70.4622 91.7909 70.2432 91.4695 69.8392L91.1981 70.0812C91.6086 70.5971 92.2329 70.8379 93.0322 70.8379V70.4622ZM91.4695 69.8392C91.1325 69.4158 90.9618 68.9052 90.9618 68.2965H90.6071C90.6071 68.9863 90.8029 69.5849 91.1981 70.0812L91.4695 69.8392ZM90.9618 68.2965C90.9618 67.3414 91.379 66.5918 92.2432 66.0358L92.0591 65.7149C91.1013 66.3311 90.6071 67.1956 90.6071 68.2965H90.9618ZM92.2432 66.0358C93.1113 65.4774 94.5264 65.184 96.5187 65.184V64.8083C94.5098 64.8083 93.013 65.101 92.0591 65.7149L92.2432 66.0358ZM96.5187 65.184H97.0934V64.8083H96.5187V65.184ZM97.0934 65.184C98.6725 65.184 99.8084 65.4624 100.531 65.9895L100.732 65.6799C99.9216 65.0889 98.6987 64.8083 97.0934 64.8083V65.184ZM100.532 65.9907C101.259 66.5066 101.616 67.2107 101.616 68.1207H101.971C101.971 67.0829 101.553 66.2631 100.73 65.6788L100.532 65.9907ZM101.616 68.1207C101.616 69.0423 101.341 69.7397 100.808 70.2386L101.042 70.5204C101.666 69.9373 101.971 69.1287 101.971 68.1207H101.616ZM100.807 70.2398C100.274 70.7451 99.5902 71.0032 98.7409 71.0032V71.379C99.6629 71.379 100.435 71.096 101.043 70.5193L100.807 70.2398ZM98.7409 71.0032C98.2723 71.0032 97.8622 70.9679 97.5092 70.898L97.4443 71.2678C97.8235 71.3422 98.2563 71.379 98.7409 71.379V71.0032ZM97.2992 71.0829V72.8413H97.654V71.0829H97.2992ZM97.4766 73.0292H98.9708V72.6534H97.4766V73.0292ZM98.7934 72.8413V74.4644H99.1482V72.8413H98.7934ZM98.9708 74.2766H94.5775V74.6523H98.9708V74.2766ZM94.7549 74.4644V72.8413H94.4001V74.4644H94.7549ZM94.5775 73.0292H95.8163V72.6534H94.5775V73.0292ZM95.9937 72.8413V66.6328H95.6389V72.8413H95.9937ZM95.8117 66.4449C94.5332 66.481 93.6051 66.6294 93.0574 66.9101L93.2117 67.2482C93.6853 67.0059 94.5452 66.8567 95.8213 66.8207L95.8117 66.4449ZM93.0584 66.9093C92.786 67.0465 92.5703 67.2257 92.4231 67.453C92.2752 67.6818 92.2035 67.9475 92.2035 68.2424H92.5583C92.5583 68.0143 92.6125 67.8246 92.7158 67.6657C92.8197 67.5052 92.9808 67.3643 93.2106 67.249L93.0584 66.9093ZM92.2035 68.2424C92.2035 68.5272 92.2624 68.7763 92.4107 68.9548C92.5629 69.1381 92.7814 69.2148 93.0322 69.2148V68.8391C92.8488 68.8391 92.742 68.785 92.6771 68.7068C92.6083 68.6238 92.5583 68.4806 92.5583 68.2424H92.2035ZM93.0322 69.2148C93.277 69.2148 93.4856 69.1235 93.6254 68.9217C93.7577 68.7309 93.8098 68.4671 93.8098 68.1612H93.4551C93.4551 68.4325 93.4072 68.6016 93.3394 68.6993C93.2795 68.7861 93.1876 68.8391 93.0322 68.8391V69.2148ZM93.6324 68.3491H95.2288V67.9734H93.6324V68.3491ZM97.2992 66.6193V69.4192H97.654V66.6193H97.2992ZM97.4287 69.5999C97.7799 69.7051 98.1843 69.7558 98.6388 69.7558V69.3801C98.2081 69.3801 97.8374 69.3316 97.5248 69.2385L97.4287 69.5999ZM98.6388 69.7558C99.1251 69.7558 99.5338 69.6089 99.8456 69.2993L99.603 69.025C99.3703 69.2565 99.0549 69.3801 98.6388 69.3801V69.7558ZM99.8456 69.2993C100.16 68.9875 100.31 68.5693 100.31 68.0666H99.9556C99.9556 68.4836 99.8339 68.7958 99.603 69.025L99.8456 69.2993ZM100.31 68.0666C100.31 67.5251 100.067 67.1085 99.6069 66.8342L99.4331 67.1618C99.7899 67.3745 99.9556 67.6702 99.9556 68.0666H100.31ZM99.6108 66.8364C99.1666 66.5561 98.4433 66.4314 97.4766 66.4314V66.8071C98.4344 66.8071 99.0733 66.9349 99.4291 67.1596L99.6108 66.8364ZM108.34 71.7457V71.9335H108.517V71.7457H108.34ZM104.023 71.7457V71.5578H103.832L103.846 71.7596L104.023 71.7457ZM104.444 72.6384L104.328 72.7804L104.33 72.7827L104.333 72.7846L104.444 72.6384ZM106.245 72.8954L106.209 72.7113L106.208 72.7117L106.245 72.8954ZM106.756 72.7466L106.687 72.573L106.685 72.5745L106.682 72.5757L106.756 72.7466ZM107.203 72.5031L107.118 72.3378L107.116 72.3397L107.203 72.5031ZM107.509 72.3273L107.667 72.2413L107.584 72.0707L107.425 72.162L107.509 72.3273ZM108.174 73.6934L108.286 73.8389L108.397 73.7427L108.331 73.6074L108.174 73.6934ZM103.18 73.6123L103.046 73.7352L103.047 73.737L103.18 73.6123ZM103.18 68.567L103.047 68.443L103.18 68.567ZM107.599 68.54L107.46 68.658L107.599 68.54ZM106.679 70.3795V70.5674H106.875L106.856 70.3608L106.679 70.3795ZM106.322 69.5139L106.194 69.6439L106.196 69.6469L106.322 69.5139ZM104.547 69.5274L104.662 69.6702L104.662 69.6698L104.547 69.5274ZM104.074 70.3795L103.901 70.3375L103.851 70.5674H104.074V70.3795ZM108.162 71.0288V71.7457H108.517V71.0288H108.162ZM108.34 71.5578H104.023V71.9335H108.34V71.5578ZM103.846 71.7596C103.875 72.1691 104.037 72.5129 104.328 72.7804L104.56 72.4964C104.341 72.295 104.222 72.0436 104.2 71.7318L103.846 71.7596ZM104.333 72.7846C104.629 73.0378 104.975 73.1644 105.364 73.1644V72.7887C105.054 72.7887 104.787 72.6899 104.555 72.4923L104.333 72.7846ZM105.364 73.1644C105.72 73.1644 106.028 73.137 106.282 73.0791L106.208 72.7117C105.986 72.762 105.705 72.7887 105.364 72.7887V73.1644ZM106.281 73.0795C106.527 73.0254 106.715 72.9724 106.829 72.9176L106.682 72.5757C106.609 72.611 106.456 72.6572 106.209 72.7113L106.281 73.0795ZM106.824 72.9202C106.936 72.8706 107.093 72.7846 107.29 72.6666L107.116 72.3397C106.921 72.4562 106.779 72.5325 106.687 72.573L106.824 72.9202ZM107.287 72.6685L107.594 72.4926L107.425 72.162L107.118 72.3378L107.287 72.6685ZM107.352 72.4133L108.016 73.7795L108.331 73.6074L107.667 72.2413L107.352 72.4133ZM108.061 73.548C107.399 74.1206 106.573 74.4118 105.568 74.4118V74.7876C106.641 74.7876 107.551 74.4746 108.286 73.8389L108.061 73.548ZM105.568 74.4118C104.566 74.4118 103.824 74.0958 103.312 73.4875L103.047 73.737C103.643 74.4453 104.492 74.7876 105.568 74.7876V74.4118ZM103.314 73.4894C102.801 72.8616 102.54 72.0643 102.54 71.0829H102.185C102.185 72.1394 102.469 73.0284 103.046 73.7352L103.314 73.4894ZM102.54 71.0829C102.54 70.1015 102.801 69.3095 103.313 68.691L103.047 68.443C102.469 69.1411 102.185 70.0264 102.185 71.0829H102.54ZM103.313 68.691C103.828 68.0696 104.526 67.754 105.428 67.754V67.3782C104.439 67.3782 103.638 67.7299 103.047 68.443L103.313 68.691ZM105.428 67.754C106.34 67.754 107.007 68.0624 107.46 68.658L107.737 68.422C107.202 67.719 106.422 67.3782 105.428 67.3782V67.754ZM107.46 68.658C107.924 69.267 108.162 70.0523 108.162 71.0288H108.517C108.517 69.9854 108.261 69.1115 107.737 68.422L107.46 68.658ZM106.856 70.3608C106.818 69.9655 106.685 69.6337 106.447 69.3809L106.196 69.6469C106.366 69.8268 106.472 70.0722 106.503 70.3983L106.856 70.3608ZM106.45 69.3839C106.211 69.1197 105.873 69.0014 105.466 69.0014V69.3771C105.808 69.3771 106.041 69.4752 106.194 69.6439L106.45 69.3839ZM105.466 69.0014C105.063 69.0014 104.714 69.1265 104.43 69.385L104.662 69.6698C104.873 69.4774 105.137 69.3771 105.466 69.3771V69.0014ZM104.431 69.3846C104.161 69.6296 103.985 69.9501 103.901 70.3375L104.247 70.4216C104.316 70.1056 104.455 69.858 104.662 69.6702L104.431 69.3846ZM104.074 70.5674H106.679V70.1917H104.074V70.5674ZM112.62 73.5852H112.798V73.063L112.484 73.4654L112.62 73.5852ZM109.338 74.0722L109.457 73.9332L109.338 74.0722ZM109.504 70.9747L109.387 70.8334L109.504 70.9747ZM112.62 70.3119V70.4998H112.798V70.3119H112.62ZM110.526 69.3651L110.478 69.1844L110.349 69.2231V69.3651H110.526ZM110.526 70.1361V70.3239H110.703V70.1361H110.526ZM109.057 70.1361H108.88V70.3239H109.057V70.1361ZM109.057 68.1207L108.993 67.9456L108.88 67.9922V68.1207H109.057ZM110.513 67.7149L110.484 67.5297H110.483L110.513 67.7149ZM113.655 68.1883L113.534 68.3254L113.535 68.3266L113.655 68.1883ZM114.281 73.0442H114.103V73.2321H114.281V73.0442ZM115.328 73.0442H115.505V72.8563H115.328V73.0442ZM115.328 74.221L115.412 74.3867L115.505 74.3337V74.221H115.328ZM112.62 71.8674L112.763 71.9783L112.798 71.9287V71.8674H112.62ZM112.62 71.8133H112.798V71.6254H112.62V71.8133ZM112.484 73.4654C111.979 74.1116 111.438 74.4118 110.858 74.4118V74.7876C111.572 74.7876 112.206 74.4115 112.757 73.7051L112.484 73.4654ZM110.858 74.4118C110.241 74.4118 109.782 74.2446 109.457 73.9332L109.219 74.2112C109.627 74.6031 110.181 74.7876 110.858 74.7876V74.4118ZM109.457 73.9332C109.136 73.6243 108.966 73.1877 108.966 72.5978H108.612C108.612 73.2704 108.808 73.8167 109.219 74.2112L109.457 73.9332ZM108.966 72.5978C108.966 72.0147 109.181 71.5244 109.621 71.116L109.387 70.8334C108.874 71.3087 108.612 71.9005 108.612 72.5978H108.966ZM109.621 71.116C110.053 70.7154 110.707 70.4998 111.611 70.4998V70.124C110.66 70.124 109.909 70.3502 109.387 70.8334L109.621 71.116ZM111.611 70.4998H112.62V70.124H111.611V70.4998ZM112.798 70.3119V69.825H112.443V70.3119H112.798ZM112.798 69.825C112.798 69.5713 112.72 69.3516 112.542 69.2013C112.372 69.0574 112.137 69.0014 111.867 69.0014V69.3771C112.099 69.3771 112.241 69.4271 112.321 69.4951C112.394 69.5567 112.443 69.6548 112.443 69.825H112.798ZM111.867 69.0014C111.352 69.0014 110.888 69.0615 110.478 69.1844L110.574 69.5458C110.947 69.4342 111.377 69.3771 111.867 69.3771V69.0014ZM110.349 69.3651V70.1361H110.703V69.3651H110.349ZM110.526 69.9482H109.057V70.3239H110.526V69.9482ZM109.235 70.1361V68.1207H108.88V70.1361H109.235ZM109.121 68.2958C109.525 68.1301 109.998 67.9978 110.543 67.9001L110.483 67.5297C109.921 67.6303 109.424 67.7686 108.993 67.9456L109.121 68.2958ZM110.542 67.9001C111.099 67.8021 111.557 67.754 111.918 67.754V67.3782C111.53 67.3782 111.051 67.4293 110.484 67.5297L110.542 67.9001ZM111.918 67.754C112.627 67.754 113.158 67.952 113.534 68.3254L113.776 68.0512C113.317 67.595 112.69 67.3782 111.918 67.3782V67.754ZM113.535 68.3266C113.91 68.6918 114.103 69.184 114.103 69.825H114.458C114.458 69.0953 114.234 68.4964 113.775 68.05L113.535 68.3266ZM114.103 69.825V73.0442H114.458V69.825H114.103ZM114.281 73.2321H115.328V72.8563H114.281V73.2321ZM115.151 73.0442V74.221H115.505V73.0442H115.151ZM115.244 74.0553C114.911 74.2443 114.482 74.3442 113.949 74.3442V74.7199C114.522 74.7199 115.012 74.6125 115.412 74.3867L115.244 74.0553ZM113.949 74.3442C113.52 74.3442 113.23 74.2668 113.051 74.1394C112.885 74.0211 112.798 73.8467 112.798 73.5852H112.443C112.443 73.955 112.577 74.254 112.853 74.4513C113.117 74.6395 113.492 74.7199 113.949 74.7199V74.3442ZM110.973 73.1644C111.64 73.1644 112.236 72.7421 112.763 71.9783L112.477 71.7566C111.983 72.4716 111.481 72.7887 110.973 72.7887V73.1644ZM112.798 71.8674V71.8133H112.443V71.8674H112.798ZM112.62 71.6254H111.599V72.0012H112.62V71.6254ZM111.599 71.6254C111.193 71.6254 110.858 71.6991 110.626 71.8779L110.835 72.1815C110.977 72.0718 111.221 72.0012 111.599 72.0012V71.6254ZM110.626 71.8779C110.393 72.0572 110.272 72.3074 110.272 72.6114H110.627C110.627 72.4284 110.693 72.2909 110.835 72.1815L110.626 71.8779ZM110.272 72.6114C110.272 72.7887 110.34 72.9427 110.483 73.0423C110.612 73.1325 110.785 73.1644 110.973 73.1644V72.7887C110.812 72.7887 110.722 72.7598 110.678 72.7282C110.646 72.706 110.627 72.6775 110.627 72.6114H110.272ZM121.263 73.6934L121.379 73.8358L121.485 73.7393L121.421 73.6074L121.263 73.6934ZM116.397 73.6123L116.263 73.7352L116.265 73.737L116.397 73.6123ZM116.397 68.567L116.264 68.443H116.264L116.397 68.567ZM120.957 68.1207H121.134V68.008L121.04 67.955L120.957 68.1207ZM120.957 70.339V70.5268H121.134V70.339H120.957ZM119.488 70.339H119.311V70.5268H119.488V70.339ZM119.488 69.2974H119.665V69.1573L119.538 69.1175L119.488 69.2974ZM117.624 69.7168L117.485 69.5999L117.483 69.6022L117.624 69.7168ZM117.624 72.449L117.483 72.5636L117.485 72.5659L117.624 72.449ZM119.603 72.8548L119.555 72.6741L119.554 72.6745L119.603 72.8548ZM120.165 72.6384L120.254 72.8007L120.258 72.7985L120.165 72.6384ZM120.599 72.3273L120.757 72.2413L120.663 72.0481L120.496 72.1744L120.599 72.3273ZM121.148 73.551C120.521 74.1214 119.725 74.4118 118.747 74.4118V74.7876C119.796 74.7876 120.678 74.4738 121.379 73.8358L121.148 73.551ZM118.747 74.4118C117.773 74.4118 117.042 74.097 116.53 73.4875L116.265 73.737C116.859 74.4441 117.696 74.7876 118.747 74.7876V74.4118ZM116.532 73.4894C116.019 72.8616 115.757 72.0643 115.757 71.0829H115.403C115.403 72.1394 115.686 73.0284 116.263 73.7352L116.532 73.4894ZM115.757 71.0829C115.757 70.1015 116.019 69.3095 116.531 68.691L116.264 68.443C115.686 69.1411 115.403 70.0264 115.403 71.0829H115.757ZM116.531 68.691C117.047 68.0681 117.729 67.754 118.594 67.754V67.3782C117.637 67.3782 116.854 67.7314 116.264 68.443L116.531 68.691ZM118.594 67.754C119.491 67.754 120.249 67.9343 120.873 68.2864L121.04 67.955C120.354 67.5676 119.536 67.3782 118.594 67.3782V67.754ZM120.779 68.1207V70.339H121.134V68.1207H120.779ZM120.957 70.1511H119.488V70.5268H120.957V70.1511ZM119.665 70.339V69.2974H119.311V70.339H119.665ZM119.538 69.1175C119.289 69.0389 119.012 69.0014 118.709 69.0014V69.3771C118.985 69.3771 119.227 69.4117 119.438 69.4774L119.538 69.1175ZM118.709 69.0014C118.2 69.0014 117.785 69.1994 117.485 69.5999L117.763 69.8336C117.99 69.5308 118.298 69.3771 118.709 69.3771V69.0014ZM117.483 69.6022C117.198 69.9944 117.063 70.4934 117.063 71.0829H117.418C117.418 70.5543 117.538 70.1425 117.764 69.8314L117.483 69.6022ZM117.063 71.0829C117.063 71.6724 117.198 72.1714 117.483 72.5636L117.764 72.3344C117.538 72.0233 117.418 71.6115 117.418 71.0829H117.063ZM117.485 72.5659C117.779 72.9582 118.156 73.1644 118.607 73.1644V72.7887C118.274 72.7887 117.996 72.6433 117.763 72.3322L117.485 72.5659ZM118.607 73.1644C119.017 73.1644 119.367 73.1231 119.653 73.0352L119.554 72.6745C119.311 72.7489 118.997 72.7887 118.607 72.7887V73.1644ZM119.651 73.0356C119.924 72.9544 120.131 72.877 120.254 72.8007L120.076 72.4761C119.995 72.5261 119.828 72.5929 119.555 72.6741L119.651 73.0356ZM120.258 72.7985C120.374 72.7229 120.522 72.6166 120.702 72.4802L120.496 72.1744C120.319 72.3085 120.178 72.4096 120.072 72.4783L120.258 72.7985ZM120.442 72.4133L121.106 73.7795L121.421 73.6074L120.757 72.2413L120.442 72.4133ZM124.036 72.9766H123.859V73.1644H124.036V72.9766ZM125.147 72.9766H125.325V72.7887H125.147V72.9766ZM125.147 74.4644V74.6523H125.325V74.4644H125.147ZM121.392 74.4644H121.215V74.6523H121.392V74.4644ZM121.392 72.9766V72.7887H121.215V72.9766H121.392ZM122.376 72.9766V73.1644H122.553V72.9766H122.376ZM122.376 65.8077H122.553V65.6198H122.376V65.8077ZM121.392 65.8077H121.215V65.9956H121.392V65.8077ZM121.392 64.3198V64.132H121.215V64.3198H121.392ZM124.036 64.3198H124.213V64.132H124.036V64.3198ZM124.036 68.1612H123.859V68.4682L124.117 68.3284L124.036 68.1612ZM127.676 68.31L127.528 68.413L127.676 68.31ZM128.136 73.0442H127.958V73.2321H128.136V73.0442ZM129.183 73.0442H129.36V72.8563H129.183V73.0442ZM129.183 74.221L129.267 74.3867L129.36 74.3337V74.221H129.183ZM126.769 74.1669L126.634 74.2886L126.637 74.2916L126.769 74.1669ZM126.322 69.4868L126.166 69.5766L126.168 69.58L126.322 69.4868ZM124.036 70.0008L123.929 69.8513L123.859 69.9076V70.0008H124.036ZM124.036 73.1644H125.147V72.7887H124.036V73.1644ZM124.97 72.9766V74.4644H125.325V72.9766H124.97ZM125.147 74.2766H121.392V74.6523H125.147V74.2766ZM121.57 74.4644V72.9766H121.215V74.4644H121.57ZM121.392 73.1644H122.376V72.7887H121.392V73.1644ZM122.553 72.9766V65.8077H122.198V72.9766H122.553ZM122.376 65.6198H121.392V65.9956H122.376V65.6198ZM121.57 65.8077V64.3198H121.215V65.8077H121.57ZM121.392 64.5077H124.036V64.132H121.392V64.5077ZM123.859 64.3198V68.1612H124.213V64.3198H123.859ZM124.117 68.3284C124.834 67.9403 125.465 67.754 126.016 67.754V67.3782C125.391 67.3782 124.703 67.5886 123.956 67.9941L124.117 68.3284ZM126.016 67.754C126.784 67.754 127.266 67.9907 127.528 68.413L127.824 68.2071C127.472 67.6375 126.848 67.3782 126.016 67.3782V67.754ZM127.528 68.413C127.808 68.8669 127.958 69.5116 127.958 70.366H128.313C128.313 69.471 128.157 68.7451 127.824 68.2071L127.528 68.413ZM127.958 70.366V73.0442H128.313V70.366H127.958ZM128.136 73.2321H129.183V72.8563H128.136V73.2321ZM129.005 73.0442V74.221H129.36V73.0442H129.005ZM129.099 74.0553C128.765 74.245 128.352 74.3442 127.855 74.3442V74.7199C128.396 74.7199 128.869 74.6117 129.267 74.3867L129.099 74.0553ZM127.855 74.3442C127.353 74.3442 127.055 74.2251 126.902 74.0421L126.637 74.2916C126.892 74.5956 127.318 74.7199 127.855 74.7199V74.3442ZM126.904 74.0451C126.75 73.8528 126.653 73.5112 126.653 72.9766H126.298C126.298 73.542 126.397 73.994 126.634 74.2886L126.904 74.0451ZM126.653 72.9766V70.366H126.298V72.9766H126.653ZM126.653 70.366C126.653 69.9595 126.602 69.6262 126.476 69.3936L126.168 69.58C126.247 69.7262 126.298 69.979 126.298 70.366H126.653ZM126.478 69.397C126.326 69.1024 125.996 69.0014 125.607 69.0014V69.3771C125.967 69.3771 126.114 69.4744 126.166 69.5766L126.478 69.397ZM125.607 69.0014C125.382 69.0014 125.129 69.0818 124.856 69.2234C124.58 69.3658 124.271 69.5762 123.929 69.8513L124.144 70.1503C124.474 69.8843 124.763 69.689 125.011 69.5608C125.261 69.432 125.458 69.3771 125.607 69.3771V69.0014ZM123.859 70.0008V72.9766H124.213V70.0008H123.859Z" fill="black"/>
<path d="M40.0874 77.9812V77.7933H39.91V77.9812H40.0874ZM128.991 77.9812H129.169V77.7933H128.991V77.9812ZM128.991 78.6575V78.8454H129.169V78.6575H128.991ZM40.0874 78.6575H39.91V78.8454H40.0874V78.6575ZM40.0874 78.1691H128.991V77.7933H40.0874V78.1691ZM128.814 77.9812V78.6575H129.169V77.9812H128.814ZM128.991 78.4696H40.0874V78.8454H128.991V78.4696ZM40.2647 78.6575V77.9812H39.91V78.6575H40.2647Z" fill="black"/>
<g filter="url(#filter0_i)">
<path d="M84.8076 65.5258C84.5525 65.799 84.2612 66.0387 83.9381 66.2352C83.4418 66.5369 82.8901 66.724 82.3218 66.786C82.8224 68.1018 82.7773 69.6509 82.2015 70.9344C82.0983 71.1692 81.8319 71.2658 81.6176 71.1576C81.398 71.0483 81.3036 70.7713 81.4069 70.5391C82.2931 68.6485 81.5772 66.1458 79.907 65.1001C79.2762 64.7834 78.5834 64.6169 77.8831 64.6169C71.5003 64.9682 71.7412 74.2397 77.3222 76.0462C77.5744 76.139 77.8096 76.213 78.037 76.2851C78.6252 76.4707 79.1329 76.6308 79.6455 77.0306L79.7299 77.0967C79.8846 77.2173 80.0957 77.2173 80.2507 77.0967L80.3352 77.0306C80.8474 76.6312 81.3554 76.4707 81.9433 76.2851C82.171 76.2134 82.4062 76.139 82.6585 76.0462C86.8666 74.7424 88.5563 68.3179 84.8076 65.5258Z" fill="#05053D"/>
<path d="M81.6002 65.4646C81.7006 65.5976 81.7943 65.7362 81.8812 65.879C82.441 65.8831 83.0004 65.7325 83.501 65.4289C84.5032 64.8194 85.1169 63.6825 85.1024 62.4617C85.1006 62.2994 85.0186 62.1499 84.8867 62.0672C83.8916 61.445 82.6517 61.4364 81.6506 62.0451C80.8847 62.5106 80.3462 63.2842 80.1411 64.1675C80.6991 64.4895 81.1976 64.9295 81.6002 65.4646Z" fill="#118C01"/>
</g>
<g filter="url(#filter1_i)">
<path d="M25.0103 22.6141C28.0471 22.6141 30.509 20.0067 30.509 16.7903C30.509 13.5739 28.0471 10.9666 25.0103 10.9666C21.9734 10.9666 19.5115 13.5739 19.5115 16.7903C19.5115 20.0067 21.9734 22.6141 25.0103 22.6141Z" fill="url(#paint0_linear)"/>
</g>
<g filter="url(#filter2_i)">
<path d="M14.8998 28.2501C17.4468 28.2501 19.5116 26.0633 19.5116 23.3656C19.5116 20.668 17.4468 18.4812 14.8998 18.4812C12.3527 18.4812 10.288 20.668 10.288 23.3656C10.288 26.0633 12.3527 28.2501 14.8998 28.2501Z" fill="url(#paint1_linear)"/>
</g>
<g filter="url(#filter3_i)">
<path d="M8.15941 36.8381C10.5105 36.8381 12.4165 34.9156 12.4165 32.544C12.4165 30.1725 10.5105 28.25 8.15941 28.25C5.8083 28.25 3.90234 30.1725 3.90234 32.544C3.90234 34.9156 5.8083 36.8381 8.15941 36.8381Z" fill="url(#paint2_linear)"/>
</g>
<g filter="url(#filter4_i)">
<path d="M4.61181 45.1577C6.37514 45.1577 7.80461 43.7279 7.80461 41.9641C7.80461 40.2002 6.37514 38.7704 4.61181 38.7704C2.84847 38.7704 1.41901 40.2002 1.41901 41.9641C1.41901 43.7279 2.84847 45.1577 4.61181 45.1577Z" fill="url(#paint3_linear)"/>
</g>
<g filter="url(#filter5_i)">
<path d="M22.2678 41.2299C18.4224 40.9493 16.972 41.4264 14.3093 43.7101C5.77331 51.0308 5.94171 64.818 14.7903 74.3562C16.914 76.6249 19.3509 78.6249 20.1749 78.6854C21.2735 78.7654 21.3904 78.4096 20.6231 77.406C20.0329 76.6343 19.8706 74.2172 20.1599 72.0515C20.506 68.9431 21.6001 66.9822 24.9073 63.5068C30.7194 57.3715 32.3991 54.1414 31.7237 50.3751C30.8677 44.8463 27.4865 41.6113 22.2678 41.2299Z" fill="url(#paint4_linear)"/>
</g>
<g filter="url(#filter6_i)">
<path d="M40.9147 23.2918C35.9112 21.2315 30.0682 23.9213 27.545 29.4232C25.583 33.5359 26.403 36.2765 31.4509 42.3508C36.3483 48.2482 37.2047 51.1676 35.2647 55.5797C33.2966 60.232 40.9615 54.6302 44.6052 48.8072C50.9607 38.7968 49.2277 26.7861 40.9147 23.2918Z" fill="url(#paint5_linear)"/>
</g>
<g filter="url(#filter7_i)">
<path d="M20.7593 84.8105C17.0573 94.1744 20.2546 104.633 27.6671 107.696C30.5914 108.885 32.481 108.965 35.2961 107.995C39.2232 106.643 41.7146 102.342 41.3265 97.557C41.0484 94.2529 39.2459 91.7633 34.7347 88.5832C32.8221 87.1975 30.8061 85.4425 30.2038 84.6527C28.3761 82.2097 27.9064 79.0374 28.955 76.5238C29.4439 75.2764 29.6953 74.1338 29.5124 74.0249C28.9635 73.698 25.3328 77.1964 23.4391 79.822C22.5756 81.0923 21.3735 83.3301 20.7593 84.8105Z" fill="url(#paint6_linear)"/>
</g>
<path d="M62.9816 84.5639C62.9816 84.9385 62.9 85.2553 62.7368 85.5145C62.5736 85.7681 62.3097 85.8948 61.9454 85.8948C61.581 85.8948 61.3118 85.7738 61.1376 85.5318C60.9634 85.2898 60.8765 84.996 60.8765 84.6504C60.8765 84.1781 61.0287 83.7948 61.3334 83.501C61.6381 83.2016 61.9943 83.0516 62.4023 83.0516C62.7939 83.0516 63.1529 83.2072 63.4793 83.5183C63.6478 83.6795 63.7841 83.9158 63.8873 84.2269C63.9905 84.538 64.0423 84.904 64.0423 85.3244C64.0423 86.2404 63.8085 86.9923 63.3406 87.5799C62.8727 88.1619 62.2363 88.4527 61.4313 88.4527C60.6264 88.4527 59.9899 88.1619 59.522 87.5799C59.0541 86.9923 58.8203 86.2461 58.8203 85.3417C58.8203 84.4373 59.0541 83.6941 59.522 83.1121C59.9899 82.5245 60.6264 82.2307 61.4313 82.2307V82.8788C60.8655 82.8788 60.4114 83.1121 60.0687 83.5788C59.726 84.0398 59.5547 84.6274 59.5547 85.3417C59.5547 86.0559 59.726 86.6466 60.0687 87.1132C60.4114 87.5743 60.8655 87.8046 61.4313 87.8046C61.9972 87.8046 62.4512 87.5743 62.7939 87.1132C63.1366 86.6466 63.308 86.0849 63.308 85.4281C63.308 84.7657 63.2182 84.3133 63.0387 84.0714C62.8592 83.8238 62.6499 83.6998 62.4104 83.6998C62.171 83.6998 61.9645 83.7892 61.7903 83.9677C61.6161 84.1461 61.5292 84.3738 61.5292 84.6504C61.5292 84.8232 61.5647 84.9671 61.6353 85.0824C61.7059 85.1918 61.8095 85.2466 61.9454 85.2466C62.2011 85.2466 62.3289 85.0189 62.3289 84.5639H62.9816ZM65.6086 87.8046H66.3184V88.3663H64.2867V87.8046H64.915V84.6071H64.2867V84.0454H65.4535L65.5515 84.5034C65.7363 84.3941 65.886 84.3103 66.0002 84.2528C66.1144 84.1893 66.2776 84.1262 66.4898 84.0627C66.7072 83.9936 66.9169 83.959 67.1181 83.959L67.575 84.0886L67.3873 84.7973L67.0201 84.6936C66.5632 84.6936 66.0928 84.8145 65.6086 85.0565V87.8046ZM67.5172 84.6071V84.1319L68.1454 84.0454H68.227C68.4008 83.6134 68.5179 83.2331 68.5779 82.9047H68.9206V84.0454H70.1363V84.6071H68.9206V87.2602C68.9206 87.4559 68.9504 87.5972 69.0103 87.6836C69.0756 87.77 69.1842 87.8132 69.3367 87.8132C69.4889 87.8132 69.6929 87.7584 69.9486 87.649L70.2179 88.1416C69.9079 88.349 69.5758 88.4527 69.2225 88.4527C68.8688 88.4527 68.613 88.3546 68.4555 88.1589C68.3029 87.9631 68.227 87.7095 68.227 87.3984V84.6071H67.5172ZM71.6628 87.8046H72.3727V88.3663H70.341V87.8046H70.9693V82.4467H70.341V81.885H71.6628V84.4689C72.223 84.1288 72.7317 83.959 73.1886 83.959C73.6456 83.959 73.9609 84.1059 74.1351 84.3997C74.3146 84.6936 74.4044 85.0997 74.4044 85.6182V87.8478H75.0734V88.2107C74.8723 88.3434 74.6382 88.4095 74.3717 88.4095C74.1106 88.4095 73.934 88.3633 73.8414 88.2712C73.7545 88.1732 73.7108 88.0176 73.7108 87.8046V85.6182C73.7108 85.2842 73.67 85.0336 73.5884 84.8664C73.5068 84.6936 73.3192 84.6071 73.0254 84.6071C72.7317 84.6071 72.2776 84.78 71.6628 85.1256V87.8046ZM75.7535 87.8219C75.4108 87.3954 75.2395 86.857 75.2395 86.2059C75.2395 85.5547 75.4108 85.0189 75.7535 84.5985C76.0962 84.1721 76.5776 83.959 77.1977 83.959C77.8178 83.959 78.2992 84.1721 78.6419 84.5985C78.9846 85.0189 79.156 85.5547 79.156 86.2059C79.156 86.857 78.9846 87.3954 78.6419 87.8219C78.2992 88.2423 77.8178 88.4527 77.1977 88.4527C76.5776 88.4527 76.0962 88.2423 75.7535 87.8219ZM76.2676 85.0565C76.0444 85.356 75.933 85.7392 75.933 86.2059C75.933 86.6725 76.0444 87.0558 76.2676 87.3552C76.4907 87.6547 76.8008 87.8046 77.1977 87.8046C77.5947 87.8046 77.9048 87.6547 78.1279 87.3552C78.351 87.0558 78.4624 86.6725 78.4624 86.2059C78.4624 85.7392 78.351 85.356 78.1279 85.0565C77.9048 84.7571 77.5947 84.6071 77.1977 84.6071C76.8008 84.6071 76.4907 84.7571 76.2676 85.0565ZM79.3993 84.6071V84.0454H80.5661L80.6804 84.5726C81.0067 84.1634 81.4253 83.959 81.9369 83.959C82.4481 83.959 82.8426 84.1694 83.12 84.5899C83.3974 85.0047 83.5361 85.5405 83.5361 86.1972C83.5361 86.8484 83.373 87.3868 83.0466 87.8132C82.7202 88.2397 82.2551 88.4527 81.6513 88.4527C81.3682 88.4527 81.0582 88.3952 80.7212 88.2799V89.6625H81.3494V90.2243H79.3993V89.6625H80.0276V84.6071H79.3993ZM82.8426 86.2404C82.8426 85.7621 82.7528 85.3706 82.5733 85.0652C82.3938 84.7597 82.1409 84.6071 81.8145 84.6071C81.4935 84.6071 81.2295 84.7424 81.0231 85.0133C80.8216 85.2842 80.7212 85.6096 80.7212 85.9898V87.5367C81.0149 87.7152 81.3058 87.8046 81.5942 87.8046C81.9695 87.8046 82.2714 87.6633 82.4999 87.3811C82.7284 87.093 82.8426 86.7127 82.8426 86.2404ZM87.4732 85.912V86.3701H84.593C84.6199 86.7905 84.737 87.1362 84.9438 87.4071C85.1503 87.6719 85.4277 87.8046 85.7761 87.8046C86.0045 87.8046 86.2085 87.7787 86.388 87.7268C86.5729 87.675 86.7006 87.6287 86.7715 87.5885C86.8421 87.5423 86.94 87.4762 87.0653 87.3898L87.3672 87.8737C86.9535 88.2596 86.437 88.4527 85.8169 88.4527C85.1968 88.4527 84.7207 88.2423 84.389 87.8219C84.0626 87.3954 83.8994 86.857 83.8994 86.2059C83.8994 85.5547 84.0626 85.0189 84.389 84.5985C84.7207 84.1721 85.1694 83.959 85.7353 83.959C86.3064 83.959 86.7389 84.1405 87.0326 84.5034C87.3264 84.8664 87.4732 85.3361 87.4732 85.912ZM86.7797 85.7565C86.747 85.4052 86.6463 85.1256 86.4778 84.9182C86.3146 84.7108 86.078 84.6071 85.7679 84.6071C85.4632 84.6071 85.2131 84.7139 85.0173 84.9269C84.8214 85.1343 84.6909 85.4108 84.6256 85.7565H86.7797ZM91.3074 81.885V87.8478H91.9765V88.2107C91.7753 88.3434 91.5469 88.4095 91.2911 88.4095C91.0353 88.4095 90.8587 88.3719 90.7607 88.2972C90.6682 88.2164 90.6192 88.0811 90.6139 87.891C90.2928 88.2656 89.8824 88.4527 89.3818 88.4527C88.8813 88.4527 88.4924 88.2453 88.215 87.8305C87.9376 87.4101 87.7989 86.8743 87.7989 86.2231C87.7989 85.5664 87.9621 85.025 88.2885 84.5985C88.6148 84.1721 89.0799 83.959 89.6837 83.959C89.9774 83.959 90.2875 84.0195 90.6139 84.1405V82.4467H89.9856V81.885H91.3074ZM88.4924 86.1799C88.4924 86.6522 88.5822 87.0411 88.7617 87.3466C88.9412 87.652 89.1913 87.8046 89.5124 87.8046C89.8387 87.8046 90.1027 87.6693 90.3038 87.3984C90.5106 87.1275 90.6139 86.8021 90.6139 86.4219V84.8837C90.3255 84.6992 90.0129 84.6071 89.6756 84.6071C89.3439 84.6071 89.0636 84.7511 88.8351 85.0392C88.6067 85.3214 88.4924 85.7016 88.4924 86.1799ZM92.1858 84.6071V84.0454H93.5076V87.8046H94.2175V88.3663H92.1776V87.8046H92.8141V84.6071H92.1858ZM93.1404 83.2763C93.0205 83.2763 92.9226 83.2301 92.8467 83.1381C92.7704 83.046 92.7325 82.9363 92.7325 82.8097C92.7325 82.677 92.7733 82.5621 92.8549 82.464C92.9418 82.3659 93.045 82.3171 93.1649 82.3171C93.2845 82.3171 93.3824 82.3633 93.4587 82.4554C93.5346 82.5474 93.5729 82.6598 93.5729 82.7924C93.5729 82.919 93.5293 83.0313 93.4423 83.1294C93.3607 83.2275 93.26 83.2763 93.1404 83.2763ZM98.0151 89.6625H98.6434V90.2243H96.6117V89.6625H97.3216V87.8996C96.9896 88.2682 96.5734 88.4527 96.0732 88.4527C95.578 88.4527 95.192 88.2423 94.9146 87.8219C94.6425 87.3954 94.5066 86.857 94.5066 86.2059C94.5066 85.5491 94.678 85.0103 95.0207 84.5899C95.3633 84.1694 95.8611 83.959 96.5138 83.959C96.9871 83.959 97.4873 84.0454 98.0151 84.2183V89.6625ZM95.4613 87.3379C95.6408 87.649 95.8937 87.8046 96.2201 87.8046C96.5465 87.8046 96.81 87.6693 97.0115 87.3984C97.218 87.1275 97.3216 86.8021 97.3216 86.4219V84.7627C97.0548 84.659 96.8076 84.6071 96.5791 84.6071C96.1275 84.6071 95.7848 84.7541 95.551 85.0479C95.3169 85.3417 95.2002 85.7189 95.2002 86.1799C95.2002 86.641 95.2871 87.0268 95.4613 87.3379ZM101.262 84.6071V84.0454H102.584V87.8478H103.253V88.2107C103.052 88.3434 102.783 88.4095 102.445 88.4095C102.114 88.4095 101.931 88.257 101.899 87.9515C101.327 88.2915 100.813 88.4613 100.357 88.4613C99.9053 88.4613 99.5896 88.3144 99.41 88.0206C99.2362 87.7268 99.1489 87.3206 99.1489 86.8021V84.6071H98.5207V84.0454H99.8425V86.8021C99.8425 87.1362 99.8833 87.3898 99.9649 87.5626C100.046 87.7298 100.234 87.8132 100.528 87.8132C100.822 87.8132 101.276 87.6404 101.891 87.2947V84.6071H101.262ZM106.987 85.912V86.3701H104.107C104.134 86.7905 104.251 87.1362 104.458 87.4071C104.664 87.6719 104.942 87.8046 105.29 87.8046C105.518 87.8046 105.722 87.7787 105.902 87.7268C106.087 87.675 106.215 87.6287 106.285 87.5885C106.356 87.5423 106.454 87.4762 106.579 87.3898L106.881 87.8737C106.468 88.2596 105.951 88.4527 105.331 88.4527C104.71 88.4527 104.235 88.2423 103.903 87.8219C103.576 87.3954 103.413 86.857 103.413 86.2059C103.413 85.5547 103.576 85.0189 103.903 84.5985C104.235 84.1721 104.683 83.959 105.249 83.959C105.82 83.959 106.253 84.1405 106.546 84.5034C106.84 84.8664 106.987 85.3361 106.987 85.912ZM106.293 85.7565C106.261 85.4052 106.16 85.1256 105.991 84.9182C105.828 84.7108 105.592 84.6071 105.282 84.6071C104.977 84.6071 104.727 84.7139 104.531 84.9269C104.335 85.1343 104.205 85.4108 104.139 85.7565H106.293Z" fill="black"/>
<defs>
<filter id="filter0_i" x="73.1154" y="61.5945" width="13.7702" height="19.5927" filterUnits="userSpaceOnUse" color-interpolation-filters="sRGB">
<feFlood flood-opacity="0" result="BackgroundImageFix"/>
<feBlend mode="normal" in="SourceGraphic" in2="BackgroundImageFix" result="shape"/>
<feColorMatrix in="SourceAlpha" type="matrix" values="0 0 0 0 0 0 0 0 0 0 0 0 0 0 0 0 0 0 127 0" result="hardAlpha"/>
<feOffset dy="4"/>
<feGaussianBlur stdDeviation="2"/>
<feComposite in2="hardAlpha" operator="arithmetic" k2="-1" k3="1"/>
<feColorMatrix type="matrix" values="0 0 0 0 0 0 0 0 0 0 0 0 0 0 0 0 0 0 0.25 0"/>
<feBlend mode="normal" in2="shape" result="effect1_innerShadow"/>
</filter>
<filter id="filter1_i" x="19.5115" y="10.9666" width="10.9974" height="15.6475" filterUnits="userSpaceOnUse" color-interpolation-filters="sRGB">
<feFlood flood-opacity="0" result="BackgroundImageFix"/>
<feBlend mode="normal" in="SourceGraphic" in2="BackgroundImageFix" result="shape"/>
<feColorMatrix in="SourceAlpha" type="matrix" values="0 0 0 0 0 0 0 0 0 0 0 0 0 0 0 0 0 0 127 0" result="hardAlpha"/>
<feOffset dy="4"/>
<feGaussianBlur stdDeviation="2"/>
<feComposite in2="hardAlpha" operator="arithmetic" k2="-1" k3="1"/>
<feColorMatrix type="matrix" values="0 0 0 0 0 0 0 0 0 0 0 0 0 0 0 0 0 0 0.25 0"/>
<feBlend mode="hue" in2="shape" result="effect1_innerShadow"/>
</filter>
<filter id="filter2_i" x="10.288" y="18.4812" width="9.22364" height="13.7689" filterUnits="userSpaceOnUse" color-interpolation-filters="sRGB">
<feFlood flood-opacity="0" result="BackgroundImageFix"/>
<feBlend mode="normal" in="SourceGraphic" in2="BackgroundImageFix" result="shape"/>
<feColorMatrix in="SourceAlpha" type="matrix" values="0 0 0 0 0 0 0 0 0 0 0 0 0 0 0 0 0 0 127 0" result="hardAlpha"/>
<feOffset dy="4"/>
<feGaussianBlur stdDeviation="2"/>
<feComposite in2="hardAlpha" operator="arithmetic" k2="-1" k3="1"/>
<feColorMatrix type="matrix" values="0 0 0 0 0 0 0 0 0 0 0 0 0 0 0 0 0 0 0.25 0"/>
<feBlend mode="hue" in2="shape" result="effect1_innerShadow"/>
</filter>
<filter id="filter3_i" x="3.90234" y="28.25" width="8.51414" height="12.5881" filterUnits="userSpaceOnUse" color-interpolation-filters="sRGB">
<feFlood flood-opacity="0" result="BackgroundImageFix"/>
<feBlend mode="normal" in="SourceGraphic" in2="BackgroundImageFix" result="shape"/>
<feColorMatrix in="SourceAlpha" type="matrix" values="0 0 0 0 0 0 0 0 0 0 0 0 0 0 0 0 0 0 127 0" result="hardAlpha"/>
<feOffset dy="4"/>
<feGaussianBlur stdDeviation="2"/>
<feComposite in2="hardAlpha" operator="arithmetic" k2="-1" k3="1"/>
<feColorMatrix type="matrix" values="0 0 0 0 0 0 0 0 0 0 0 0 0 0 0 0 0 0 0.25 0"/>
<feBlend mode="hue" in2="shape" result="effect1_innerShadow"/>
</filter>
<filter id="filter4_i" x="1.41901" y="38.7704" width="6.3856" height="10.3873" filterUnits="userSpaceOnUse" color-interpolation-filters="sRGB">
<feFlood flood-opacity="0" result="BackgroundImageFix"/>
<feBlend mode="normal" in="SourceGraphic" in2="BackgroundImageFix" result="shape"/>
<feColorMatrix in="SourceAlpha" type="matrix" values="0 0 0 0 0 0 0 0 0 0 0 0 0 0 0 0 0 0 127 0" result="hardAlpha"/>
<feOffset dy="4"/>
<feGaussianBlur stdDeviation="2"/>
<feComposite in2="hardAlpha" operator="arithmetic" k2="-1" k3="1"/>
<feColorMatrix type="matrix" values="0 0 0 0 0 0 0 0 0 0 0 0 0 0 0 0 0 0 0.25 0"/>
<feBlend mode="hue" in2="shape" result="effect1_innerShadow"/>
</filter>
<filter id="filter5_i" x="8.02832" y="41.1576" width="23.8358" height="41.5386" filterUnits="userSpaceOnUse" color-interpolation-filters="sRGB">
<feFlood flood-opacity="0" result="BackgroundImageFix"/>
<feBlend mode="normal" in="SourceGraphic" in2="BackgroundImageFix" result="shape"/>
<feColorMatrix in="SourceAlpha" type="matrix" values="0 0 0 0 0 0 0 0 0 0 0 0 0 0 0 0 0 0 127 0" result="hardAlpha"/>
<feOffset dy="4"/>
<feGaussianBlur stdDeviation="2"/>
<feComposite in2="hardAlpha" operator="arithmetic" k2="-1" k3="1"/>
<feColorMatrix type="matrix" values="0 0 0 0 0 0 0 0 0 0 0 0 0 0 0 0 0 0 0.25 0"/>
<feBlend mode="hue" in2="shape" result="effect1_innerShadow"/>
</filter>
<filter id="filter6_i" x="26.5632" y="22.6003" width="21.8842" height="38.705" filterUnits="userSpaceOnUse" color-interpolation-filters="sRGB">
<feFlood flood-opacity="0" result="BackgroundImageFix"/>
<feBlend mode="normal" in="SourceGraphic" in2="BackgroundImageFix" result="shape"/>
<feColorMatrix in="SourceAlpha" type="matrix" values="0 0 0 0 0 0 0 0 0 0 0 0 0 0 0 0 0 0 127 0" result="hardAlpha"/>
<feOffset dy="4"/>
<feGaussianBlur stdDeviation="2"/>
<feComposite in2="hardAlpha" operator="arithmetic" k2="-1" k3="1"/>
<feColorMatrix type="matrix" values="0 0 0 0 0 0 0 0 0 0 0 0 0 0 0 0 0 0 0.25 0"/>
<feBlend mode="hue" in2="shape" result="effect1_innerShadow"/>
</filter>
<filter id="filter7_i" x="19.2131" y="74.0035" width="22.1531" height="38.6577" filterUnits="userSpaceOnUse" color-interpolation-filters="sRGB">
<feFlood flood-opacity="0" result="BackgroundImageFix"/>
<feBlend mode="normal" in="SourceGraphic" in2="BackgroundImageFix" result="shape"/>
<feColorMatrix in="SourceAlpha" type="matrix" values="0 0 0 0 0 0 0 0 0 0 0 0 0 0 0 0 0 0 127 0" result="hardAlpha"/>
<feOffset dy="4"/>
<feGaussianBlur stdDeviation="2"/>
<feComposite in2="hardAlpha" operator="arithmetic" k2="-1" k3="1"/>
<feColorMatrix type="matrix" values="0 0 0 0 0 0 0 0 0 0 0 0 0 0 0 0 0 0 0.25 0"/>
<feBlend mode="hue" in2="shape" result="effect1_innerShadow"/>
</filter>
<linearGradient id="paint0_linear" x1="21.5117" y1="12.7938" x2="36.9243" y2="17.754" gradientUnits="userSpaceOnUse">
<stop stop-color="#324DD8"/>
<stop offset="0.489583" stop-color="#05053D"/>
</linearGradient>
<linearGradient id="paint1_linear" x1="11.9655" y1="20.0137" x2="24.8921" y2="24.1739" gradientUnits="userSpaceOnUse">
<stop stop-color="#324DD8"/>
<stop offset="0.489583" stop-color="#05053D"/>
</linearGradient>
<linearGradient id="paint2_linear" x1="5.45085" y1="29.5973" x2="17.2694" y2="33.591" gradientUnits="userSpaceOnUse">
<stop stop-color="#324DD8"/>
<stop offset="0.489583" stop-color="#05053D"/>
</linearGradient>
<linearGradient id="paint3_linear" x1="2.58038" y1="39.7724" x2="11.429" y2="42.7876" gradientUnits="userSpaceOnUse">
<stop stop-color="#324DD8"/>
<stop offset="0.489583" stop-color="#05053D"/>
</linearGradient>
<linearGradient id="paint4_linear" x1="7.31206" y1="57.0972" x2="45.4582" y2="79.3874" gradientUnits="userSpaceOnUse">
<stop stop-color="#324DD8"/>
<stop offset="0.489583" stop-color="#05053D"/>
</linearGradient>
<linearGradient id="paint5_linear" x1="24.4782" y1="38.019" x2="59.4468" y2="56.591" gradientUnits="userSpaceOnUse">
<stop stop-color="#324DD8"/>
<stop offset="0.489583" stop-color="#05053D"/>
</linearGradient>
<linearGradient id="paint6_linear" x1="34.4845" y1="105.55" x2="41.4159" y2="62.2395" gradientUnits="userSpaceOnUse">
<stop stop-color="#324DD8"/>
<stop offset="0.489583" stop-color="#05053D"/>
</linearGradient>
</defs>
</svg>
