<svg width="180" height="36" viewBox="0 0 180 36" fill="none" xmlns="http://www.w3.org/2000/svg">
<g clip-path="url(#clip0)">
<g filter="url(#filter0_i)">
<path d="M94.5877 9.28592L94.5878 9.2859C94.902 9.10558 95.2026 8.90799 95.489 8.69479C97.6476 10.7429 98.2464 13.7169 97.5525 16.609C96.7645 19.8933 94.3578 22.8083 91.0395 23.7791L91.004 23.7895L90.9691 23.8016C90.5355 23.952 90.1284 24.0735 89.702 24.2006C89.6784 24.2077 89.6547 24.2147 89.631 24.2218C88.6505 24.5137 87.5783 24.833 86.4967 25.5652C85.4153 24.8331 84.3432 24.5139 83.363 24.2219C83.3391 24.2148 83.3152 24.2077 83.2914 24.2006C82.865 24.0735 82.4581 23.952 82.0249 23.8016L81.9982 23.7923L81.9713 23.7841C77.5186 22.4233 75.1425 18.2331 75.2079 14.2463C75.2402 12.2713 75.8756 10.4392 77.0692 9.08479C78.2382 7.75824 80.0331 6.78516 82.615 6.64209C83.6576 6.64764 84.6906 6.87948 85.6355 7.31662C88.0244 8.7739 89.0785 12.28 87.7887 14.8776L87.7815 14.8921L87.7746 14.9068C87.2311 16.0636 87.7272 17.4419 88.8827 17.9872C90.0217 18.5275 91.4172 18.0509 91.9675 16.8791C92.9622 14.7827 93.226 12.3536 92.7424 10.0873C93.3831 9.88992 94.0025 9.62179 94.5877 9.28592Z" fill="url(#paint0_linear)" stroke="white" stroke-width="3"/>
<path d="M89.492 6.63072C89.6787 6.86482 89.8528 7.10806 90.0147 7.35871C91.0559 7.3666 92.097 7.10169 93.0279 6.56805C94.8929 5.49771 96.0346 3.5008 96.0076 1.35665C96.004 1.07142 95.8519 0.808687 95.6063 0.663623C93.7552 -0.429581 91.4482 -0.444718 89.5856 0.624363C88.1609 1.44209 87.159 2.80091 86.777 4.35278C87.8155 4.91844 88.7426 5.69113 89.492 6.63072Z" fill="#118C01"/>
<path d="M89.492 6.63072C89.6787 6.86482 89.8528 7.10806 90.0147 7.35871C91.0559 7.3666 92.097 7.10169 93.0279 6.56805C94.8929 5.49771 96.0346 3.5008 96.0076 1.35665C96.004 1.07142 95.8519 0.808687 95.6063 0.663623C93.7552 -0.429581 91.4482 -0.444718 89.5856 0.624363C88.1609 1.44209 87.159 2.80091 86.777 4.35278C87.8155 4.91844 88.7426 5.69113 89.492 6.63072Z" stroke="white"/>
</g>
<path d="M25.7592 11.48C25.7592 12.5067 25.4859 13.38 24.9392 14.1C24.3926 14.8067 23.5192 15.16 22.3192 15.16C21.1192 15.16 20.2326 14.82 19.6592 14.14C19.0859 13.46 18.7992 12.64 18.7992 11.68C18.7992 10.16 19.5126 8.96667 20.9392 8.1C22.3659 7.23333 24.6459 6.8 27.7792 6.8H28.6792C33.7859 6.8 36.3392 8.16 36.3392 10.88C36.3392 12.24 35.7059 13.2 34.4392 13.76C35.2126 14.0267 35.8259 14.4667 36.2792 15.08C36.7326 15.68 36.9592 16.4067 36.9592 17.26C36.9592 18.4067 36.4992 19.3533 35.5792 20.1C34.6592 20.8333 33.3259 21.2 31.5792 21.2C31.2859 21.2 30.6059 21.1667 29.5392 21.1C28.4726 21.0333 27.6192 21 26.9792 21H24.7392V18.6H26.6792V9.22C24.6792 9.27333 23.2792 9.49333 22.4792 9.88C21.6926 10.2533 21.2992 10.8267 21.2992 11.6C21.2992 12.3733 21.6392 12.76 22.3192 12.76C22.9459 12.76 23.2592 12.3333 23.2592 11.48H25.7592ZM30.0792 15.26V12.86H31.6592C32.1659 12.86 32.5859 12.7133 32.9192 12.42C33.2659 12.1267 33.4392 11.68 33.4392 11.08C33.4392 10.4667 33.1259 10 32.4992 9.68C31.8726 9.36 30.7992 9.2 29.2792 9.2V18.66C30.6126 18.7533 31.5459 18.8 32.0792 18.8C32.6126 18.8 33.0726 18.6333 33.4592 18.3C33.8592 17.9667 34.0592 17.52 34.0592 16.96C34.0592 16.3867 33.8592 15.96 33.4592 15.68C33.0592 15.4 32.5326 15.26 31.8792 15.26H30.0792ZM37.7052 8.2V6H41.8452V18.8H43.5852V21H37.6852V18.8H39.2452V8.2H37.7052ZM48.642 21.22C47.3887 21.22 46.522 20.8533 46.042 20.12C45.562 19.3733 45.322 18.3533 45.322 17.06V13.1H43.782V11H47.922V17.06C47.922 17.6467 48.002 18.0867 48.162 18.38C48.3354 18.6733 48.702 18.82 49.262 18.82C49.822 18.82 50.6487 18.4133 51.742 17.6V13.2H50.502V11H54.342V18.9H55.982V20.64C55.4087 20.9467 54.6554 21.1 53.722 21.1C52.802 21.1 52.2087 20.76 51.942 20.08C50.7154 20.84 49.6154 21.22 48.642 21.22ZM65.7397 15.92V16.98H58.9797C59.0197 17.5133 59.2397 17.9533 59.6397 18.3C60.053 18.6333 60.533 18.8 61.0797 18.8C61.6264 18.8 62.0864 18.76 62.4597 18.68C62.8464 18.6 63.113 18.5267 63.2597 18.46C63.4197 18.3933 63.653 18.2733 63.9597 18.1L64.4397 17.84L65.4797 19.86C64.3864 20.7533 63.0264 21.2 61.3997 21.2C59.773 21.2 58.5264 20.7133 57.6597 19.74C56.8064 18.7533 56.3797 17.5067 56.3797 16C56.3797 14.4933 56.8064 13.2533 57.6597 12.28C58.5264 11.2933 59.6997 10.8 61.1797 10.8C62.673 10.8 63.8064 11.28 64.5797 12.24C65.353 13.2 65.7397 14.4267 65.7397 15.92ZM63.1397 14.96C63.0864 14.4267 62.8997 14 62.5797 13.68C62.273 13.36 61.8264 13.2 61.2397 13.2C60.6664 13.2 60.1864 13.3667 59.7997 13.7C59.4264 14.02 59.1797 14.44 59.0597 14.96H63.1397ZM117.435 11.68C117.435 12.7067 117.162 13.58 116.615 14.3C116.068 15.0067 115.195 15.36 113.995 15.36C112.795 15.36 111.908 15.02 111.335 14.34C110.762 13.66 110.475 12.84 110.475 11.88C110.475 10.36 111.188 9.16667 112.615 8.3C114.042 7.43333 116.322 7 119.455 7H120.355C122.848 7 124.695 7.41333 125.895 8.24C127.108 9.05333 127.715 10.18 127.715 11.62C127.715 13.0467 127.262 14.16 126.355 14.96C125.462 15.76 124.322 16.16 122.935 16.16C122.188 16.16 121.528 16.1067 120.955 16V18.6H123.295V21H116.415V18.6H118.355V9.42C116.355 9.47333 114.955 9.69333 114.155 10.08C113.368 10.4533 112.975 11.0267 112.975 11.8C112.975 12.5733 113.315 12.96 113.995 12.96C114.622 12.96 114.935 12.5333 114.935 11.68H117.435ZM120.955 9.4V13.54C121.475 13.6867 122.082 13.76 122.775 13.76C123.482 13.76 124.048 13.56 124.475 13.16C124.902 12.76 125.115 12.22 125.115 11.54C125.115 10.8467 124.795 10.32 124.155 9.96C123.528 9.58667 122.462 9.4 120.955 9.4ZM137.966 15.92V16.98H131.206C131.246 17.5133 131.466 17.9533 131.866 18.3C132.28 18.6333 132.76 18.8 133.306 18.8C133.853 18.8 134.313 18.76 134.686 18.68C135.073 18.6 135.34 18.5267 135.486 18.46C135.646 18.3933 135.88 18.2733 136.186 18.1L136.666 17.84L137.706 19.86C136.613 20.7533 135.253 21.2 133.626 21.2C132 21.2 130.753 20.7133 129.886 19.74C129.033 18.7533 128.606 17.5067 128.606 16C128.606 14.4933 129.033 13.2533 129.886 12.28C130.753 11.2933 131.926 10.8 133.406 10.8C134.9 10.8 136.033 11.28 136.806 12.24C137.58 13.2 137.966 14.4267 137.966 15.92ZM135.366 14.96C135.313 14.4267 135.126 14 134.806 13.68C134.5 13.36 134.053 13.2 133.466 13.2C132.893 13.2 132.413 13.3667 132.026 13.7C131.653 14.02 131.406 14.44 131.286 14.96H135.366ZM144.67 19.7C143.844 20.7 142.924 21.2 141.91 21.2C140.897 21.2 140.104 20.94 139.53 20.42C138.957 19.9 138.67 19.1733 138.67 18.24C138.67 17.2933 139.044 16.4933 139.79 15.84C140.537 15.1867 141.637 14.86 143.09 14.86H144.67V14.14C144.67 13.5133 144.277 13.2 143.49 13.2C142.704 13.2 142.004 13.2867 141.39 13.46V14.6H139.09V11.62C139.744 11.3667 140.504 11.1667 141.37 11.02C142.25 10.8733 142.984 10.8 143.57 10.8C144.73 10.8 145.637 11.1067 146.29 11.72C146.944 12.32 147.27 13.1267 147.27 14.14V18.9H148.91V20.64C148.337 20.9467 147.617 21.1 146.75 21.1C145.364 21.1 144.67 20.6333 144.67 19.7ZM142.09 18.8C143.01 18.8 143.87 18.2533 144.67 17.16V17.08H143.07C142.457 17.08 142.004 17.1867 141.71 17.4C141.417 17.6133 141.27 17.9 141.27 18.26C141.27 18.62 141.544 18.8 142.09 18.8ZM158.205 19.86C157.165 20.7533 155.852 21.2 154.265 21.2C152.679 21.2 151.452 20.7133 150.585 19.74C149.732 18.7533 149.305 17.5067 149.305 16C149.305 14.4933 149.732 13.2533 150.585 12.28C151.452 11.2933 152.599 10.8 154.025 10.8C155.465 10.8 156.699 11.0733 157.725 11.62V14.9H155.425V13.36C155.065 13.2533 154.659 13.2 154.205 13.2C153.485 13.2 152.919 13.46 152.505 13.98C152.105 14.5 151.905 15.1733 151.905 16C151.905 16.8267 152.105 17.5 152.505 18.02C152.919 18.54 153.432 18.8 154.045 18.8C154.672 18.8 155.192 18.74 155.605 18.62C156.032 18.5 156.325 18.3933 156.485 18.3C156.659 18.1933 156.885 18.04 157.165 17.84L158.205 19.86ZM162.548 18.8H164.288V21H158.408V18.8H159.948V8.2H158.408V6H162.548V11.68C163.694 11.0933 164.728 10.8 165.648 10.8C166.901 10.8 167.768 11.1667 168.248 11.9C168.728 12.6333 168.968 13.6467 168.968 14.94V18.9H170.608V20.64C170.034 20.9467 169.341 21.1 168.528 21.1C167.714 21.1 167.148 20.92 166.828 20.56C166.521 20.2 166.368 19.6133 166.368 18.8V14.94C166.368 14.3533 166.288 13.92 166.128 13.64C165.968 13.3467 165.594 13.2 165.008 13.2C164.421 13.2 163.601 13.6 162.548 14.4V18.8Z" fill="white"/>
<path d="M25.7592 11.48H26.2592V10.98H25.7592V11.48ZM24.9392 14.1L25.3347 14.4059L25.3374 14.4024L24.9392 14.1ZM19.6592 14.14L20.0415 13.8177L19.6592 14.14ZM20.9392 8.1L20.6796 7.67267L20.9392 8.1ZM34.4392 13.76L34.237 13.3027L33.0724 13.8176L34.2762 14.2327L34.4392 13.76ZM36.2792 15.08L35.8771 15.3772L35.8803 15.3814L36.2792 15.08ZM35.5792 20.1L35.8909 20.491L35.8943 20.4882L35.5792 20.1ZM29.5392 21.1L29.508 21.599L29.5392 21.1ZM24.7392 21H24.2392V21.5H24.7392V21ZM24.7392 18.6V18.1H24.2392V18.6H24.7392ZM26.6792 18.6V19.1H27.1792V18.6H26.6792ZM26.6792 9.22H27.1792V8.70649L26.6659 8.72018L26.6792 9.22ZM22.4792 9.88L22.6936 10.3317L22.6968 10.3302L22.4792 9.88ZM23.2592 11.48V10.98H22.7592V11.48H23.2592ZM30.0792 15.26H29.5792V15.76H30.0792V15.26ZM30.0792 12.86V12.36H29.5792V12.86H30.0792ZM32.9192 12.42L32.5962 12.0382L32.5889 12.0446L32.9192 12.42ZM29.2792 9.2V8.7H28.7792V9.2H29.2792ZM29.2792 18.66H28.7792V19.1262L29.2443 19.1588L29.2792 18.66ZM33.4592 18.3L33.1391 17.9158L33.1327 17.9213L33.4592 18.3ZM33.4592 15.68L33.1725 16.0896L33.4592 15.68ZM25.2592 11.48C25.2592 12.413 25.0128 13.1762 24.541 13.7976L25.3374 14.4024C25.9589 13.5838 26.2592 12.6003 26.2592 11.48H25.2592ZM24.5437 13.7941C24.122 14.3393 23.4216 14.66 22.3192 14.66V15.66C23.6169 15.66 24.6632 15.274 25.3347 14.4059L24.5437 13.7941ZM22.3192 14.66C21.2122 14.66 20.4896 14.3492 20.0415 13.8177L19.277 14.4623C19.9755 15.2908 21.0263 15.66 22.3192 15.66V14.66ZM20.0415 13.8177C19.5504 13.2353 19.2992 12.5321 19.2992 11.68H18.2992C18.2992 12.7479 18.6213 13.6847 19.277 14.4623L20.0415 13.8177ZM19.2992 11.68C19.2992 10.3543 19.9038 9.31402 21.1988 8.52733L20.6796 7.67267C19.1213 8.61932 18.2992 9.96568 18.2992 11.68H19.2992ZM21.1988 8.52733C22.5046 7.73411 24.6696 7.3 27.7792 7.3V6.3C24.6222 6.3 22.2272 6.73256 20.6796 7.67267L21.1988 8.52733ZM27.7792 7.3H28.6792V6.3H27.7792V7.3ZM28.6792 7.3C31.2045 7.3 33.0209 7.63903 34.1892 8.2613C34.7659 8.56847 35.1725 8.93813 35.4366 9.36025C35.6998 9.78072 35.8392 10.2813 35.8392 10.88H36.8392C36.8392 10.1187 36.6595 9.42928 36.2843 8.82975C35.9101 8.23187 35.3592 7.75153 34.6593 7.3787C33.2742 6.64096 31.2606 6.3 28.6792 6.3V7.3ZM35.8392 10.88C35.8392 11.4803 35.7004 11.9603 35.4469 12.3447C35.1929 12.7296 34.8008 13.0535 34.237 13.3027L34.6414 14.2173C35.3443 13.9065 35.9022 13.4704 36.2816 12.8953C36.6614 12.3197 36.8392 11.6397 36.8392 10.88H35.8392ZM34.2762 14.2327C34.9612 14.4689 35.4883 14.8512 35.8771 15.3772L36.6813 14.7828C36.1634 14.0821 35.4639 13.5844 34.6022 13.2873L34.2762 14.2327ZM35.8803 15.3814C36.2593 15.8831 36.4592 16.5001 36.4592 17.26H37.4592C37.4592 16.3132 37.2058 15.4769 36.6782 14.7786L35.8803 15.3814ZM36.4592 17.26C36.4592 18.2503 36.0717 19.0564 35.2641 19.7118L35.8943 20.4882C36.9268 19.6503 37.4592 18.563 37.4592 17.26H36.4592ZM35.2676 19.709C34.47 20.3447 33.2654 20.7 31.5792 20.7V21.7C33.3864 21.7 34.8484 21.3219 35.8909 20.491L35.2676 19.709ZM31.5792 20.7C31.3048 20.7 30.6419 20.6679 29.5704 20.601L29.508 21.599C30.5699 21.6654 31.267 21.7 31.5792 21.7V20.7ZM29.5704 20.601C28.4992 20.534 27.6342 20.5 26.9792 20.5V21.5C27.6042 21.5 28.4459 21.5326 29.508 21.599L29.5704 20.601ZM26.9792 20.5H24.7392V21.5H26.9792V20.5ZM25.2392 21V18.6H24.2392V21H25.2392ZM24.7392 19.1H26.6792V18.1H24.7392V19.1ZM27.1792 18.6V9.22H26.1792V18.6H27.1792ZM26.6659 8.72018C24.6621 8.77361 23.1663 8.99255 22.2616 9.42982L22.6968 10.3302C23.3921 9.99412 24.6964 9.77305 26.6925 9.71982L26.6659 8.72018ZM22.2648 9.42829C21.8117 9.64335 21.4396 9.93149 21.1819 10.3071C20.9218 10.6863 20.7992 11.1242 20.7992 11.6H21.7992C21.7992 11.3025 21.8733 11.067 22.0065 10.8729C22.1421 10.6752 22.3601 10.49 22.6936 10.3317L22.2648 9.42829ZM20.7992 11.6C20.7992 12.0491 20.8965 12.4792 21.1787 12.8002C21.4717 13.1334 21.8843 13.26 22.3192 13.26V12.26C22.0742 12.26 21.9767 12.1933 21.9297 12.1398C21.8719 12.0741 21.7992 11.9243 21.7992 11.6H20.7992ZM22.3192 13.26C22.7585 13.26 23.1583 13.1021 23.4272 12.736C23.675 12.3986 23.7592 11.9531 23.7592 11.48H22.7592C22.7592 11.8602 22.6868 12.0548 22.6212 12.144C22.5768 12.2045 22.5066 12.26 22.3192 12.26V13.26ZM23.2592 11.98H25.7592V10.98H23.2592V11.98ZM30.5792 15.26V12.86H29.5792V15.26H30.5792ZM30.0792 13.36H31.6592V12.36H30.0792V13.36ZM31.6592 13.36C32.2692 13.36 32.8121 13.1803 33.2495 12.7954L32.5889 12.0446C32.3597 12.2463 32.0626 12.36 31.6592 12.36V13.36ZM33.2422 12.8017C33.7346 12.3851 33.9392 11.7767 33.9392 11.08H32.9392C32.9392 11.5833 32.7972 11.8683 32.5962 12.0383L33.2422 12.8017ZM33.9392 11.08C33.9392 10.6835 33.8364 10.3145 33.6193 9.99128C33.4048 9.67172 33.0969 9.42378 32.7266 9.2347L32.2718 10.1253C32.5282 10.2562 32.6903 10.4016 32.7891 10.5487C32.8854 10.6921 32.9392 10.8632 32.9392 11.08H33.9392ZM32.7266 9.2347C31.9857 8.85634 30.8069 8.7 29.2792 8.7V9.7C30.7915 9.7 31.7594 9.86366 32.2718 10.1253L32.7266 9.2347ZM28.7792 9.2V18.66H29.7792V9.2H28.7792ZM29.2443 19.1588C30.5771 19.2521 31.5264 19.3 32.0792 19.3V18.3C31.5654 18.3 30.648 18.2546 29.3141 18.1612L29.2443 19.1588ZM32.0792 19.3C32.7266 19.3 33.3039 19.094 33.7857 18.6787L33.1327 17.9213C32.8412 18.1726 32.4985 18.3 32.0792 18.3V19.3ZM33.7793 18.6841C34.3028 18.2479 34.5592 17.6556 34.5592 16.96H33.5592C33.5592 17.3844 33.4157 17.6854 33.1391 17.9159L33.7793 18.6841ZM34.5592 16.96C34.5592 16.2561 34.3043 15.6612 33.746 15.2704L33.1725 16.0896C33.4142 16.2588 33.5592 16.5172 33.5592 16.96H34.5592ZM33.746 15.2704C33.2377 14.9146 32.601 14.76 31.8792 14.76V15.76C32.4641 15.76 32.8807 15.8854 33.1725 16.0896L33.746 15.2704ZM31.8792 14.76H30.0792V15.76H31.8792V14.76ZM37.7052 8.2H37.2052V8.7H37.7052V8.2ZM37.7052 6V5.5H37.2052V6H37.7052ZM41.8452 6H42.3452V5.5H41.8452V6ZM41.8452 18.8H41.3452V19.3H41.8452V18.8ZM43.5852 18.8H44.0852V18.3H43.5852V18.8ZM43.5852 21V21.5H44.0852V21H43.5852ZM37.6852 21H37.1852V21.5H37.6852V21ZM37.6852 18.8V18.3H37.1852V18.8H37.6852ZM39.2452 18.8V19.3H39.7452V18.8H39.2452ZM39.2452 8.2H39.7452V7.7H39.2452V8.2ZM38.2052 8.2V6H37.2052V8.2H38.2052ZM37.7052 6.5H41.8452V5.5H37.7052V6.5ZM41.3452 6V18.8H42.3452V6H41.3452ZM41.8452 19.3H43.5852V18.3H41.8452V19.3ZM43.0852 18.8V21H44.0852V18.8H43.0852ZM43.5852 20.5H37.6852V21.5H43.5852V20.5ZM38.1852 21V18.8H37.1852V21H38.1852ZM37.6852 19.3H39.2452V18.3H37.6852V19.3ZM39.7452 18.8V8.2H38.7452V18.8H39.7452ZM39.2452 7.7H37.7052V8.7H39.2452V7.7ZM46.042 20.12L45.6214 20.3904L45.6237 20.3938L46.042 20.12ZM45.322 13.1H45.822V12.6H45.322V13.1ZM43.782 13.1H43.282V13.6H43.782V13.1ZM43.782 11V10.5H43.282V11H43.782ZM47.922 11H48.422V10.5H47.922V11ZM48.162 18.38L47.7231 18.6194L47.7272 18.627L47.7316 18.6344L48.162 18.38ZM51.742 17.6L52.0405 18.0012L52.242 17.8512V17.6H51.742ZM51.742 13.2H52.242V12.7H51.742V13.2ZM50.502 13.2H50.002V13.7H50.502V13.2ZM50.502 11V10.5H50.002V11H50.502ZM54.342 11H54.842V10.5H54.342V11ZM54.342 18.9H53.842V19.4H54.342V18.9ZM55.982 18.9H56.482V18.4H55.982V18.9ZM55.982 20.64L56.2179 21.0809L56.482 20.9396V20.64H55.982ZM51.942 20.08L52.4075 19.8975L52.1885 19.3391L51.6787 19.655L51.942 20.08ZM48.642 20.72C47.4788 20.72 46.812 20.3833 46.4604 19.8462L45.6237 20.3938C46.2321 21.3233 47.2986 21.72 48.642 21.72V20.72ZM46.4626 19.8496C46.0531 19.2125 45.822 18.2989 45.822 17.06H44.822C44.822 18.4078 45.071 19.5341 45.6214 20.3904L46.4626 19.8496ZM45.822 17.06V13.1H44.822V17.06H45.822ZM45.322 12.6H43.782V13.6H45.322V12.6ZM44.282 13.1V11H43.282V13.1H44.282ZM43.782 11.5H47.922V10.5H43.782V11.5ZM47.422 11V17.06H48.422V11H47.422ZM47.422 17.06C47.422 17.6758 47.5032 18.2163 47.7231 18.6194L48.601 18.1406C48.5009 17.957 48.422 17.6176 48.422 17.06H47.422ZM47.7316 18.6344C48.0421 19.1598 48.6436 19.32 49.262 19.32V18.32C48.7604 18.32 48.6286 18.1868 48.5925 18.1256L47.7316 18.6344ZM49.262 19.32C49.6526 19.32 50.0798 19.1816 50.5227 18.9637C50.973 18.7422 51.4798 18.4183 52.0405 18.0012L51.4436 17.1988C50.9109 17.5951 50.4578 17.8812 50.0813 18.0663C49.6976 18.2551 49.4315 18.32 49.262 18.32V19.32ZM52.242 17.6V13.2H51.242V17.6H52.242ZM51.742 12.7H50.502V13.7H51.742V12.7ZM51.002 13.2V11H50.002V13.2H51.002ZM50.502 11.5H54.342V10.5H50.502V11.5ZM53.842 11V18.9H54.842V11H53.842ZM54.342 19.4H55.982V18.4H54.342V19.4ZM55.482 18.9V20.64H56.482V18.9H55.482ZM55.7462 20.1991C55.2701 20.4538 54.6066 20.6 53.722 20.6V21.6C54.7041 21.6 55.5473 21.4396 56.2179 21.0809L55.7462 20.1991ZM53.722 20.6C53.3202 20.6 53.0349 20.5254 52.8356 20.4112C52.6447 20.3018 52.5023 20.1392 52.4075 19.8975L51.4765 20.2625C51.6484 20.7008 51.936 21.0482 52.3384 21.2788C52.7325 21.5046 53.2038 21.6 53.722 21.6V20.6ZM51.6787 19.655C50.4954 20.3881 49.4877 20.72 48.642 20.72V21.72C49.743 21.72 50.9353 21.2919 52.2054 20.505L51.6787 19.655ZM65.7397 16.98V17.48H66.2397V16.98H65.7397ZM58.9797 16.98V16.48H58.4408L58.4811 17.0174L58.9797 16.98ZM59.6397 18.3L59.3122 18.6778L59.3189 18.6836L59.3258 18.6892L59.6397 18.3ZM62.4597 18.68L62.3584 18.1904L62.3549 18.1911L62.4597 18.68ZM63.2597 18.46L63.0674 17.9985L63.06 18.0015L63.0528 18.0048L63.2597 18.46ZM63.9597 18.1L63.7215 17.6603L63.7137 17.6647L63.9597 18.1ZM64.4397 17.84L64.8842 17.6111L64.6505 17.1572L64.2015 17.4004L64.4397 17.84ZM65.4797 19.86L65.796 20.2472L66.1095 19.991L65.9242 19.6311L65.4797 19.86ZM57.6597 19.74L57.2815 20.0671L57.2863 20.0725L57.6597 19.74ZM57.6597 12.28L57.284 11.95L57.2837 11.9504L57.6597 12.28ZM64.5797 12.24L64.1903 12.5537L64.5797 12.24ZM63.1397 14.96V15.46H63.6922L63.6372 14.9102L63.1397 14.96ZM62.5797 13.68L62.2186 14.026L62.2261 14.0336L62.5797 13.68ZM59.7997 13.7L60.1251 14.0796L60.1262 14.0787L59.7997 13.7ZM59.0597 14.96L58.5725 14.8476L58.4312 15.46H59.0597V14.96ZM65.2397 15.92V16.98H66.2397V15.92H65.2397ZM65.7397 16.48H58.9797V17.48H65.7397V16.48ZM58.4811 17.0174C58.5308 17.6808 58.8113 18.2437 59.3122 18.6778L59.9672 17.9222C59.6681 17.6629 59.5085 17.3459 59.4783 16.9426L58.4811 17.0174ZM59.3258 18.6892C59.8309 19.0965 60.4225 19.3 61.0797 19.3V18.3C60.6436 18.3 60.2752 18.1702 59.9536 17.9108L59.3258 18.6892ZM61.0797 19.3C61.6478 19.3 62.1455 19.2587 62.5645 19.1689L62.3549 18.1911C62.0273 18.2613 61.6049 18.3 61.0797 18.3V19.3ZM62.561 19.1696C62.9467 19.0898 63.2635 19.0075 63.4666 18.9152L63.0528 18.0048C62.9626 18.0458 62.746 18.1102 62.3584 18.1904L62.561 19.1696ZM63.452 18.9215C63.6408 18.8429 63.8956 18.7106 64.2057 18.5353L63.7137 17.6647C63.4105 17.8361 63.1985 17.9438 63.0674 17.9985L63.452 18.9215ZM64.1978 18.5396L64.6778 18.2796L64.2015 17.4004L63.7215 17.6604L64.1978 18.5396ZM63.9951 18.0689L65.0351 20.0889L65.9242 19.6311L64.8842 17.6111L63.9951 18.0689ZM65.1633 19.4728C64.1726 20.2823 62.9295 20.7 61.3997 20.7V21.7C63.1232 21.7 64.6001 21.2244 65.796 20.2472L65.1633 19.4728ZM61.3997 20.7C59.8776 20.7 58.7822 20.2488 58.0331 19.4075L57.2863 20.0725C58.2705 21.1779 59.6685 21.7 61.3997 21.7V20.7ZM58.0379 19.4129C57.2751 18.531 56.8797 17.4063 56.8797 16H55.8797C55.8797 17.6071 56.3376 18.9757 57.2815 20.0671L58.0379 19.4129ZM56.8797 16C56.8797 14.5935 57.2751 13.4771 58.0357 12.6096L57.2837 11.9504C56.3376 13.0296 55.8797 14.3931 55.8797 16H56.8797ZM58.0353 12.61C58.7944 11.7458 59.8232 11.3 61.1797 11.3V10.3C59.5762 10.3 58.2583 10.8409 57.284 11.95L58.0353 12.61ZM61.1797 11.3C62.5571 11.3 63.5321 11.7365 64.1903 12.5537L64.9691 11.9263C64.0806 10.8235 62.7889 10.3 61.1797 10.3V11.3ZM64.1903 12.5537C64.8778 13.4071 65.2397 14.5158 65.2397 15.92H66.2397C66.2397 14.3375 65.8282 12.9929 64.9691 11.9263L64.1903 12.5537ZM63.6372 14.9102C63.5746 14.2842 63.3493 13.7425 62.9332 13.3264L62.2261 14.0336C62.4501 14.2575 62.5981 14.5692 62.6422 15.0098L63.6372 14.9102ZM62.9407 13.334C62.512 12.8868 61.9167 12.7 61.2397 12.7V13.7C61.7361 13.7 62.034 13.8332 62.2187 14.026L62.9407 13.334ZM61.2397 12.7C60.5623 12.7 59.9619 12.9 59.4732 13.3213L60.1262 14.0787C60.4108 13.8333 60.7704 13.7 61.2397 13.7V12.7ZM59.4743 13.3204C59.0129 13.7159 58.7143 14.2329 58.5725 14.8476L59.5469 15.0724C59.645 14.6471 59.8399 14.3241 60.1251 14.0796L59.4743 13.3204ZM59.0597 15.46H63.1397V14.46H59.0597V15.46ZM117.435 11.68H117.935V11.18H117.435V11.68ZM116.615 14.3L117.01 14.6059L117.013 14.6024L116.615 14.3ZM111.335 14.34L111.717 14.0177L111.335 14.34ZM112.615 8.3L112.355 7.87267L112.615 8.3ZM125.895 8.24L125.611 8.65179L125.617 8.65532L125.895 8.24ZM126.355 14.96L126.024 14.5851L126.021 14.5875L126.355 14.96ZM120.955 16L121.046 15.5084L120.455 15.3984V16H120.955ZM120.955 18.6H120.455V19.1H120.955V18.6ZM123.295 18.6H123.795V18.1H123.295V18.6ZM123.295 21V21.5H123.795V21H123.295ZM116.415 21H115.915V21.5H116.415V21ZM116.415 18.6V18.1H115.915V18.6H116.415ZM118.355 18.6V19.1H118.855V18.6H118.355ZM118.355 9.42H118.855V8.90649L118.342 8.92018L118.355 9.42ZM114.155 10.08L114.369 10.5317L114.373 10.5302L114.155 10.08ZM114.935 11.68V11.18H114.435V11.68H114.935ZM120.955 9.4V8.9H120.455V9.4H120.955ZM120.955 13.54H120.455V13.9185L120.819 14.0212L120.955 13.54ZM124.155 9.96L123.899 10.3897L123.91 10.3958L124.155 9.96ZM116.935 11.68C116.935 12.613 116.689 13.3762 116.217 13.9976L117.013 14.6024C117.635 13.7838 117.935 12.8003 117.935 11.68H116.935ZM116.22 13.9941C115.798 14.5393 115.097 14.86 113.995 14.86V15.86C115.293 15.86 116.339 15.474 117.01 14.6059L116.22 13.9941ZM113.995 14.86C112.888 14.86 112.165 14.5492 111.717 14.0177L110.953 14.6623C111.651 15.4908 112.702 15.86 113.995 15.86V14.86ZM111.717 14.0177C111.226 13.4353 110.975 12.7321 110.975 11.88H109.975C109.975 12.9479 110.297 13.8847 110.953 14.6623L111.717 14.0177ZM110.975 11.88C110.975 10.5543 111.58 9.51402 112.875 8.72733L112.355 7.87267C110.797 8.81932 109.975 10.1657 109.975 11.88H110.975ZM112.875 8.72733C114.18 7.93411 116.345 7.5 119.455 7.5V6.5C116.298 6.5 113.903 6.93256 112.355 7.87267L112.875 8.72733ZM119.455 7.5H120.355V6.5H119.455V7.5ZM120.355 7.5C122.811 7.5 124.535 7.91055 125.611 8.65175L126.179 7.82825C124.855 6.91611 122.885 6.5 120.355 6.5V7.5ZM125.617 8.65532C126.694 9.37743 127.215 10.3496 127.215 11.62H128.215C128.215 10.0104 127.523 8.72924 126.173 7.82468L125.617 8.65532ZM127.215 11.62C127.215 12.9316 126.804 13.8973 126.024 14.5851L126.686 15.3349C127.72 14.4227 128.215 13.1618 128.215 11.62H127.215ZM126.021 14.5875C125.234 15.2927 124.219 15.66 122.935 15.66V16.66C124.424 16.66 125.689 16.2273 126.689 15.3325L126.021 14.5875ZM122.935 15.66C122.211 15.66 121.583 15.6082 121.046 15.5084L120.864 16.4916C121.474 16.6051 122.166 16.66 122.935 16.66V15.66ZM120.455 16V18.6H121.455V16H120.455ZM120.955 19.1H123.295V18.1H120.955V19.1ZM122.795 18.6V21H123.795V18.6H122.795ZM123.295 20.5H116.415V21.5H123.295V20.5ZM116.915 21V18.6H115.915V21H116.915ZM116.415 19.1H118.355V18.1H116.415V19.1ZM118.855 18.6V9.42H117.855V18.6H118.855ZM118.342 8.92018C116.338 8.97361 114.842 9.19255 113.937 9.62983L114.373 10.5302C115.068 10.1941 116.372 9.97305 118.368 9.91982L118.342 8.92018ZM113.941 9.62829C113.487 9.84335 113.115 10.1315 112.858 10.5071C112.598 10.8863 112.475 11.3242 112.475 11.8H113.475C113.475 11.5025 113.549 11.267 113.682 11.0729C113.818 10.8752 114.036 10.69 114.369 10.5317L113.941 9.62829ZM112.475 11.8C112.475 12.2491 112.572 12.6792 112.855 13.0002C113.148 13.3334 113.56 13.46 113.995 13.46V12.46C113.75 12.46 113.652 12.3933 113.605 12.3398C113.548 12.2741 113.475 12.1243 113.475 11.8H112.475ZM113.995 13.46C114.434 13.46 114.834 13.3021 115.103 12.936C115.351 12.5986 115.435 12.1531 115.435 11.68H114.435C114.435 12.0602 114.363 12.2548 114.297 12.344C114.253 12.4045 114.182 12.46 113.995 12.46V13.46ZM114.935 12.18H117.435V11.18H114.935V12.18ZM120.455 9.4V13.54H121.455V9.4H120.455ZM120.819 14.0212C121.394 14.1833 122.048 14.26 122.775 14.26V13.26C122.115 13.26 121.556 13.19 121.091 13.0588L120.819 14.0212ZM122.775 14.26C123.581 14.26 124.279 14.0291 124.817 13.5248L124.133 12.7952C123.818 13.0909 123.383 13.26 122.775 13.26V14.26ZM124.817 13.5248C125.361 13.0147 125.615 12.3336 125.615 11.54H124.615C124.615 12.1064 124.442 12.5053 124.133 12.7952L124.817 13.5248ZM125.615 11.54C125.615 10.6533 125.186 9.96633 124.4 9.52421L123.91 10.3958C124.404 10.6737 124.615 11.0401 124.615 11.54H125.615ZM124.411 9.53045C123.66 9.08314 122.474 8.9 120.955 8.9V9.9C122.449 9.9 123.397 10.0902 123.899 10.3895L124.411 9.53045ZM137.966 16.98V17.48H138.466V16.98H137.966ZM131.206 16.98V16.48H130.667L130.708 17.0174L131.206 16.98ZM131.866 18.3L131.539 18.6778L131.545 18.6836L131.552 18.6892L131.866 18.3ZM134.686 18.68L134.585 18.1904L134.581 18.1911L134.686 18.68ZM135.486 18.46L135.294 17.9985L135.287 18.0015L135.279 18.0048L135.486 18.46ZM136.186 18.1L135.948 17.6603L135.94 17.6647L136.186 18.1ZM136.666 17.84L137.111 17.6111L136.877 17.1572L136.428 17.4004L136.666 17.84ZM137.706 19.86L138.023 20.2472L138.336 19.991L138.151 19.6311L137.706 19.86ZM129.886 19.74L129.508 20.0671L129.513 20.0725L129.886 19.74ZM129.886 12.28L129.511 11.95L129.51 11.9504L129.886 12.28ZM136.806 12.24L136.417 12.5537L136.806 12.24ZM135.366 14.96V15.46H135.919L135.864 14.9102L135.366 14.96ZM134.806 13.68L134.445 14.026L134.453 14.0336L134.806 13.68ZM132.026 13.7L132.352 14.0796L132.353 14.0787L132.026 13.7ZM131.286 14.96L130.799 14.8476L130.658 15.46H131.286V14.96ZM137.466 15.92V16.98H138.466V15.92H137.466ZM137.966 16.48H131.206V17.48H137.966V16.48ZM130.708 17.0174C130.757 17.6808 131.038 18.2437 131.539 18.6778L132.194 17.9222C131.895 17.6629 131.735 17.3459 131.705 16.9426L130.708 17.0174ZM131.552 18.6892C132.057 19.0965 132.649 19.3 133.306 19.3V18.3C132.87 18.3 132.502 18.1702 132.18 17.9108L131.552 18.6892ZM133.306 19.3C133.874 19.3 134.372 19.2587 134.791 19.1689L134.581 18.1911C134.254 18.2613 133.831 18.3 133.306 18.3V19.3ZM134.788 19.1696C135.173 19.0898 135.49 19.0075 135.693 18.9152L135.279 18.0048C135.189 18.0458 134.973 18.1102 134.585 18.1904L134.788 19.1696ZM135.679 18.9215C135.867 18.8429 136.122 18.7106 136.432 18.5353L135.94 17.6647C135.637 17.8361 135.425 17.9438 135.294 17.9985L135.679 18.9215ZM136.424 18.5396L136.904 18.2796L136.428 17.4004L135.948 17.6604L136.424 18.5396ZM136.222 18.0689L137.262 20.0889L138.151 19.6311L137.111 17.6111L136.222 18.0689ZM137.39 19.4728C136.399 20.2823 135.156 20.7 133.626 20.7V21.7C135.35 21.7 136.827 21.2244 138.023 20.2472L137.39 19.4728ZM133.626 20.7C132.104 20.7 131.009 20.2488 130.26 19.4075L129.513 20.0725C130.497 21.1779 131.895 21.7 133.626 21.7V20.7ZM130.264 19.4129C129.502 18.531 129.106 17.4063 129.106 16H128.106C128.106 17.6071 128.564 18.9757 129.508 20.0671L130.264 19.4129ZM129.106 16C129.106 14.5935 129.502 13.4771 130.262 12.6096L129.51 11.9504C128.564 13.0296 128.106 14.3931 128.106 16H129.106ZM130.262 12.61C131.021 11.7458 132.05 11.3 133.406 11.3V10.3C131.803 10.3 130.485 10.8409 129.511 11.95L130.262 12.61ZM133.406 11.3C134.784 11.3 135.759 11.7365 136.417 12.5537L137.196 11.9263C136.307 10.8235 135.015 10.3 133.406 10.3V11.3ZM136.417 12.5537C137.104 13.4071 137.466 14.5158 137.466 15.92H138.466C138.466 14.3375 138.055 12.9929 137.196 11.9263L136.417 12.5537ZM135.864 14.9102C135.801 14.2842 135.576 13.7425 135.16 13.3264L134.453 14.0336C134.677 14.2575 134.825 14.5692 134.869 15.0098L135.864 14.9102ZM135.167 13.334C134.739 12.8868 134.143 12.7 133.466 12.7V13.7C133.963 13.7 134.261 13.8332 134.445 14.026L135.167 13.334ZM133.466 12.7C132.789 12.7 132.188 12.9 131.7 13.3213L132.353 14.0787C132.637 13.8333 132.997 13.7 133.466 13.7V12.7ZM131.701 13.3204C131.239 13.7159 130.941 14.2329 130.799 14.8476L131.773 15.0724C131.872 14.6471 132.066 14.3241 132.352 14.0796L131.701 13.3204ZM131.286 15.46H135.366V14.46H131.286V15.46ZM144.67 19.7H145.17V18.3104L144.285 19.3814L144.67 19.7ZM139.53 20.42L139.866 20.0496L139.53 20.42ZM139.79 15.84L139.461 15.4637L139.79 15.84ZM144.67 14.86V15.36H145.17V14.86H144.67ZM141.39 13.46L141.254 12.9788L140.89 13.0817V13.46H141.39ZM141.39 14.6V15.1H141.89V14.6H141.39ZM139.09 14.6H138.59V15.1H139.09V14.6ZM139.09 11.62L138.91 11.1538L138.59 11.2776V11.62H139.09ZM141.37 11.02L141.288 10.5268L141.287 10.527L141.37 11.02ZM146.29 11.72L145.948 12.0846L145.952 12.0883L146.29 11.72ZM147.27 18.9H146.77V19.4H147.27V18.9ZM148.91 18.9H149.41V18.4H148.91V18.9ZM148.91 20.64L149.146 21.0809L149.41 20.9396V20.64H148.91ZM144.67 17.16L145.074 17.4553L145.17 17.3234V17.16H144.67ZM144.67 17.08H145.17V16.58H144.67V17.08ZM144.285 19.3814C143.524 20.3014 142.735 20.7 141.91 20.7V21.7C143.113 21.7 144.163 21.0986 145.056 20.0186L144.285 19.3814ZM141.91 20.7C140.982 20.7 140.322 20.4631 139.866 20.0496L139.194 20.7904C139.885 21.4169 140.812 21.7 141.91 21.7V20.7ZM139.866 20.0496C139.419 19.6437 139.17 19.0638 139.17 18.24H138.17C138.17 19.2829 138.495 20.1563 139.194 20.7904L139.866 20.0496ZM139.17 18.24C139.17 17.4452 139.475 16.7799 140.12 16.2163L139.461 15.4637C138.612 16.2068 138.17 17.1415 138.17 18.24H139.17ZM140.12 16.2163C140.741 15.6727 141.703 15.36 143.09 15.36V14.36C141.571 14.36 140.333 14.7006 139.461 15.4637L140.12 16.2163ZM143.09 15.36H144.67V14.36H143.09V15.36ZM145.17 14.86V14.14H144.17V14.86H145.17ZM145.17 14.14C145.17 13.7156 145.031 13.3184 144.687 13.0439C144.364 12.7867 143.937 12.7 143.49 12.7V13.7C143.831 13.7 143.993 13.77 144.064 13.8261C144.112 13.8649 144.17 13.9378 144.17 14.14H145.17ZM143.49 12.7C142.668 12.7 141.921 12.7905 141.254 12.9788L141.526 13.9412C142.086 13.7828 142.739 13.7 143.49 13.7V12.7ZM140.89 13.46V14.6H141.89V13.46H140.89ZM141.39 14.1H139.09V15.1H141.39V14.1ZM139.59 14.6V11.62H138.59V14.6H139.59ZM139.271 12.0862C139.886 11.8477 140.612 11.6554 141.454 11.513L141.287 10.527C140.395 10.678 139.601 10.8857 138.91 11.1538L139.271 12.0862ZM141.453 11.5132C142.318 11.369 143.021 11.3 143.57 11.3V10.3C142.946 10.3 142.183 10.3777 141.288 10.5268L141.453 11.5132ZM143.57 11.3C144.642 11.3 145.412 11.5815 145.948 12.0845L146.633 11.3555C145.862 10.6318 144.819 10.3 143.57 10.3V11.3ZM145.952 12.0883C146.487 12.5797 146.77 13.2447 146.77 14.14H147.77C147.77 13.0086 147.4 12.0603 146.629 11.3517L145.952 12.0883ZM146.77 14.14V18.9H147.77V14.14H146.77ZM147.27 19.4H148.91V18.4H147.27V19.4ZM148.41 18.9V20.64H149.41V18.9H148.41ZM148.674 20.1991C148.194 20.4562 147.561 20.6 146.75 20.6V21.6C147.673 21.6 148.48 21.4371 149.146 21.0809L148.674 20.1991ZM146.75 20.6C146.097 20.6 145.695 20.4873 145.47 20.3352C145.279 20.2068 145.17 20.0231 145.17 19.7H144.17C144.17 20.3103 144.409 20.8265 144.911 21.1648C145.379 21.4794 146.017 21.6 146.75 21.6V20.6ZM142.09 19.3C143.235 19.3 144.226 18.6135 145.074 17.4553L144.267 16.8647C143.514 17.8932 142.786 18.3 142.09 18.3V19.3ZM145.17 17.16V17.08H144.17V17.16H145.17ZM144.67 16.58H143.07V17.58H144.67V16.58ZM143.07 16.58C142.417 16.58 141.836 16.6902 141.416 16.9956L142.004 17.8044C142.171 17.6831 142.497 17.58 143.07 17.58V16.58ZM141.416 16.9956C140.995 17.3022 140.77 17.7386 140.77 18.26H141.77C141.77 18.0614 141.839 17.9245 142.004 17.8044L141.416 16.9956ZM140.77 18.26C140.77 18.5883 140.907 18.8897 141.2 19.0826C141.457 19.2515 141.778 19.3 142.09 19.3V18.3C141.98 18.3 141.897 18.2907 141.839 18.2779C141.78 18.265 141.755 18.2507 141.75 18.2474C141.749 18.2463 141.759 18.2539 141.768 18.2704C141.775 18.285 141.77 18.2863 141.77 18.26H140.77ZM158.205 19.86L158.531 20.2393L158.831 19.9821L158.65 19.6311L158.205 19.86ZM150.585 19.74L150.207 20.0671L150.212 20.0725L150.585 19.74ZM150.585 12.28L150.21 11.95L150.209 11.9504L150.585 12.28ZM157.725 11.62H158.225V11.3198L157.96 11.1787L157.725 11.62ZM157.725 14.9V15.4H158.225V14.9H157.725ZM155.425 14.9H154.925V15.4H155.425V14.9ZM155.425 13.36H155.925V12.9867L155.568 12.8806L155.425 13.36ZM152.505 13.98L152.114 13.6688L152.109 13.6751L152.505 13.98ZM152.505 18.02L152.109 18.3249L152.114 18.3311L152.505 18.02ZM155.605 18.62L155.47 18.1387L155.466 18.1398L155.605 18.62ZM156.485 18.3L156.737 18.732L156.748 18.7258L156.485 18.3ZM157.165 17.84L157.61 17.6111L157.345 17.0971L156.875 17.4331L157.165 17.84ZM157.88 19.4807C156.944 20.2841 155.752 20.7 154.265 20.7V21.7C155.952 21.7 157.387 21.2226 158.531 20.2393L157.88 19.4807ZM154.265 20.7C152.788 20.7 151.71 20.2515 150.959 19.4075L150.212 20.0725C151.194 21.1752 152.57 21.7 154.265 21.7V20.7ZM150.964 19.4129C150.201 18.531 149.805 17.4063 149.805 16H148.805C148.805 17.6071 149.263 18.9757 150.207 20.0671L150.964 19.4129ZM149.805 16C149.805 14.5935 150.201 13.4771 150.961 12.6096L150.209 11.9504C149.263 13.0296 148.805 14.3931 148.805 16H149.805ZM150.961 12.61C151.724 11.7415 152.729 11.3 154.025 11.3V10.3C152.469 10.3 151.18 10.8452 150.21 11.95L150.961 12.61ZM154.025 11.3C155.403 11.3 156.551 11.5613 157.49 12.0613L157.96 11.1787C156.846 10.5854 155.528 10.3 154.025 10.3V11.3ZM157.225 11.62V14.9H158.225V11.62H157.225ZM157.725 14.4H155.425V15.4H157.725V14.4ZM155.925 14.9V13.36H154.925V14.9H155.925ZM155.568 12.8806C155.153 12.7578 154.697 12.7 154.205 12.7V13.7C154.62 13.7 154.978 13.7489 155.283 13.8394L155.568 12.8806ZM154.205 12.7C153.348 12.7 152.631 13.0185 152.114 13.6689L152.897 14.2911C153.207 13.9015 153.623 13.7 154.205 13.7V12.7ZM152.109 13.6751C151.626 14.3031 151.405 15.0922 151.405 16H152.405C152.405 15.2545 152.585 14.6969 152.902 14.2849L152.109 13.6751ZM151.405 16C151.405 16.9078 151.626 17.6969 152.109 18.3249L152.902 17.7151C152.585 17.3031 152.405 16.7455 152.405 16H151.405ZM152.114 18.3311C152.613 18.9591 153.266 19.3 154.045 19.3V18.3C153.599 18.3 153.224 18.1209 152.897 17.7089L152.114 18.3311ZM154.045 19.3C154.7 19.3 155.271 19.2378 155.745 19.1002L155.466 18.1398C155.114 18.2422 154.644 18.3 154.045 18.3V19.3ZM155.741 19.1013C156.168 18.9813 156.517 18.8607 156.737 18.7319L156.234 17.8681C156.134 17.926 155.897 18.0187 155.47 18.1387L155.741 19.1013ZM156.748 18.7258C156.935 18.6105 157.172 18.4497 157.456 18.2469L156.875 17.4331C156.599 17.6303 156.383 17.7762 156.223 17.8742L156.748 18.7258ZM156.721 18.0689L157.761 20.0889L158.65 19.6311L157.61 17.6111L156.721 18.0689ZM162.548 18.8H162.048V19.3H162.548V18.8ZM164.288 18.8H164.788V18.3H164.288V18.8ZM164.288 21V21.5H164.788V21H164.288ZM158.408 21H157.908V21.5H158.408V21ZM158.408 18.8V18.3H157.908V18.8H158.408ZM159.948 18.8V19.3H160.448V18.8H159.948ZM159.948 8.2H160.448V7.7H159.948V8.2ZM158.408 8.2H157.908V8.7H158.408V8.2ZM158.408 6V5.5H157.908V6H158.408ZM162.548 6H163.048V5.5H162.548V6ZM162.548 11.68H162.048V12.4975L162.776 12.1251L162.548 11.68ZM168.248 11.9L167.829 12.1738L168.248 11.9ZM168.968 18.9H168.468V19.4H168.968V18.9ZM170.608 18.9H171.108V18.4H170.608V18.9ZM170.608 20.64L170.844 21.0809L171.108 20.9396V20.64H170.608ZM166.828 20.56L166.447 20.8843L166.454 20.8922L166.828 20.56ZM166.128 13.64L165.689 13.8795L165.694 13.8881L166.128 13.64ZM162.548 14.4L162.245 14.0018L162.048 14.1519V14.4H162.548ZM162.548 19.3H164.288V18.3H162.548V19.3ZM163.788 18.8V21H164.788V18.8H163.788ZM164.288 20.5H158.408V21.5H164.288V20.5ZM158.908 21V18.8H157.908V21H158.908ZM158.408 19.3H159.948V18.3H158.408V19.3ZM160.448 18.8V8.2H159.448V18.8H160.448ZM159.948 7.7H158.408V8.7H159.948V7.7ZM158.908 8.2V6H157.908V8.2H158.908ZM158.408 6.5H162.548V5.5H158.408V6.5ZM162.048 6V11.68H163.048V6H162.048ZM162.776 12.1251C163.878 11.5609 164.832 11.3 165.648 11.3V10.3C164.623 10.3 163.511 10.6257 162.32 11.2349L162.776 12.1251ZM165.648 11.3C166.811 11.3 167.478 11.6367 167.829 12.1738L168.666 11.6262C168.058 10.6967 166.991 10.3 165.648 10.3V11.3ZM167.829 12.1738C168.236 12.7957 168.468 13.7003 168.468 14.94H169.468C169.468 13.593 169.219 12.471 168.666 11.6262L167.829 12.1738ZM168.468 14.94V18.9H169.468V14.94H168.468ZM168.968 19.4H170.608V18.4H168.968V19.4ZM170.108 18.9V20.64H171.108V18.9H170.108ZM170.372 20.1991C169.887 20.4584 169.279 20.6 168.528 20.6V21.6C169.403 21.6 170.182 21.4349 170.844 21.0809L170.372 20.1991ZM168.528 20.6C167.763 20.6 167.378 20.4266 167.202 20.2278L166.454 20.8922C166.917 21.4134 167.666 21.6 168.528 21.6V20.6ZM167.208 20.2358C167.018 20.0118 166.868 19.5725 166.868 18.8H165.868C165.868 19.6542 166.025 20.3882 166.447 20.8842L167.208 20.2358ZM166.868 18.8V14.94H165.868V18.8H166.868ZM166.868 14.94C166.868 14.3271 166.788 13.7869 166.562 13.3919L165.694 13.8881C165.788 14.0531 165.868 14.3796 165.868 14.94H166.868ZM166.567 13.4006C166.268 12.8521 165.636 12.7 165.008 12.7V13.7C165.553 13.7 165.668 13.8412 165.689 13.8794L166.567 13.4006ZM165.008 12.7C164.608 12.7 164.178 12.834 163.734 13.0506C163.284 13.2697 162.788 13.59 162.245 14.0018L162.85 14.7982C163.361 14.41 163.801 14.1303 164.172 13.9494C164.548 13.766 164.821 13.7 165.008 13.7V12.7ZM162.048 14.4V18.8H163.048V14.4H162.048Z" fill="white"/>
</g>
<defs>
<filter id="filter0_i" x="73.7066" y="-0.666992" width="25.6192" height="32.0436" filterUnits="userSpaceOnUse" color-interpolation-filters="sRGB">
<feFlood flood-opacity="0" result="BackgroundImageFix"/>
<feBlend mode="normal" in="SourceGraphic" in2="BackgroundImageFix" result="shape"/>
<feColorMatrix in="SourceAlpha" type="matrix" values="0 0 0 0 0 0 0 0 0 0 0 0 0 0 0 0 0 0 127 0" result="hardAlpha"/>
<feOffset dy="4"/>
<feGaussianBlur stdDeviation="2"/>
<feComposite in2="hardAlpha" operator="arithmetic" k2="-1" k3="1"/>
<feColorMatrix type="matrix" values="0 0 0 0 0 0 0 0 0 0 0 0 0 0 0 0 0 0 0.25 0"/>
<feBlend mode="normal" in2="shape" result="effect1_innerShadow"/>
</filter>
<linearGradient id="paint0_linear" x1="86.5159" y1="5.14199" x2="86.5159" y2="27.223" gradientUnits="userSpaceOnUse">
<stop stop-color="white"/>
<stop offset="0.411458" stop-color="#98A8FB" stop-opacity="0.820387"/>
<stop offset="0.713542" stop-color="#50599F" stop-opacity="0.907869"/>
<stop offset="0.9996" stop-color="#05053D"/>
<stop offset="0.9997" stop-color="#0B32F7" stop-opacity="0.574378"/>
<stop offset="0.9998" stop-color="#B9C3F4" stop-opacity="0.567708"/>
<stop offset="0.9999" stop-color="#9AA8F0" stop-opacity="0.378472"/>
</linearGradient>
<clipPath id="clip0">
<rect width="180" height="36" fill="white"/>
</clipPath>
</defs>
</svg>
