<svg width="111" height="113" viewBox="0 0 111 113" fill="none" xmlns="http://www.w3.org/2000/svg">
<g filter="url(#filter0_d)">
<path d="M91.456 26.3739C89.5492 28.2087 87.3693 29.8168 84.9512 31.1352C81.2405 33.1582 77.1124 34.4133 72.8621 34.8297C76.6056 43.6585 76.2689 54.0512 71.9636 62.6616C71.1903 64.2371 69.1992 64.8849 67.5951 64.1589C65.9535 63.4264 65.2479 61.5681 66.0192 60.0087C72.6475 47.3264 67.2929 30.5345 54.7988 23.5192C50.0824 21.3941 44.8996 20.2769 39.6626 20.2769C-8.08061 22.6339 -6.27946 84.837 35.4657 96.9569C37.3522 97.5792 39.1116 98.0773 40.8131 98.5592C45.2121 99.8048 49.0109 100.88 52.8438 103.563L53.4751 104.005C54.6335 104.815 56.2122 104.815 57.3706 104.005L58.0022 103.563C61.8346 100.881 65.6334 99.8048 70.0324 98.5594C71.7339 98.0775 73.4935 97.5794 75.3807 96.9575C106.858 88.209 119.496 45.1079 91.456 26.3739V26.3739Z" fill="#05053D"/>
<path d="M67.4654 25.963C68.2161 26.8571 68.9161 27.7862 69.5669 28.7435C73.7531 28.7736 77.9391 27.7618 81.6819 25.7237C89.1798 21.6356 93.7701 14.0087 93.6618 5.81936C93.6473 4.72998 93.0356 3.72649 92.048 3.17243C84.6057 -1.00292 75.3305 -1.06074 67.842 3.02248C62.1137 6.14568 58.0856 11.3356 56.55 17.2627C60.7252 19.4232 64.4525 22.3744 67.4654 25.963V25.963Z" fill="#118C01"/>
</g>
<defs>
<filter id="filter0_d" x="0" y="0" width="111" height="112.613" filterUnits="userSpaceOnUse" color-interpolation-filters="sRGB">
<feFlood flood-opacity="0" result="BackgroundImageFix"/>
<feColorMatrix in="SourceAlpha" type="matrix" values="0 0 0 0 0 0 0 0 0 0 0 0 0 0 0 0 0 0 127 0" result="hardAlpha"/>
<feOffset dy="4"/>
<feGaussianBlur stdDeviation="2"/>
<feComposite in2="hardAlpha" operator="out"/>
<feColorMatrix type="matrix" values="0 0 0 0 0 0 0 0 0 0 0 0 0 0 0 0 0 0 0.25 0"/>
<feBlend mode="normal" in2="BackgroundImageFix" result="effect1_dropShadow"/>
<feBlend mode="normal" in="SourceGraphic" in2="effect1_dropShadow" result="shape"/>
</filter>
</defs>
</svg>
