<svg width="18" height="25" viewBox="0 0 18 25" fill="none" xmlns="http://www.w3.org/2000/svg">
<ellipse cx="15.1202" cy="2.85714" rx="2.88" ry="2.85714" fill="#FF0707"/>
<g clip-path="url(#clip0)">
<path d="M5.4 21.4285C4.41 21.4285 3.6 22.2321 3.6 23.2143C3.6 24.1964 4.41 25 5.4 25C6.39 25 7.2 24.1964 7.2 23.2143C7.2 22.2321 6.39 21.4285 5.4 21.4285ZM0 7.14282V8.92854H1.8L5.04 15.7143L3.78 17.8571C3.69 18.125 3.6 18.4821 3.6 18.75C3.6 19.7321 4.41 20.5357 5.4 20.5357H16.2V18.75H5.76C5.67 18.75 5.58 18.6607 5.58 18.5714V18.4821L6.39 16.9642H13.05C13.77 16.9642 14.31 16.6071 14.58 16.0714L17.82 10.2678C18 10.0893 18 9.99997 18 9.82139C18 9.28568 17.64 8.92854 17.1 8.92854H3.78L2.97 7.14282H0ZM14.4 21.4285C13.41 21.4285 12.6 22.2321 12.6 23.2143C12.6 24.1964 13.41 25 14.4 25C15.39 25 16.2 24.1964 16.2 23.2143C16.2 22.2321 15.39 21.4285 14.4 21.4285Z" fill="white"/>
</g>
<defs>
<clipPath id="clip0">
<rect width="18" height="17.8571" fill="white" transform="translate(0 7.14282)"/>
</clipPath>
</defs>
</svg>
