<svg width="25" height="24" viewBox="0 0 25 24" fill="none" xmlns="http://www.w3.org/2000/svg">
<g clip-path="url(#clip0)">
<path d="M9.19117 0.00317383C4.11556 0.00317383 0 4.20022 0 9.37776C0 14.5553 4.11516 18.7524 9.19117 18.7524C14.2676 18.7524 18.3823 14.5553 18.3823 9.37776C18.3823 4.20022 14.2676 0.00317383 9.19117 0.00317383ZM9.19117 2.80629C10.8707 2.80629 12.2316 4.19487 12.2316 5.90713C12.2316 7.6198 10.8707 9.00797 9.19117 9.00797C7.51249 9.00797 6.15154 7.6198 6.15154 5.90713C6.15154 4.19487 7.51249 2.80629 9.19117 2.80629ZM9.18916 16.3013C7.51411 16.3013 5.97996 15.6791 4.79664 14.6492C4.50838 14.3984 4.34205 14.0307 4.34205 13.6448C4.34205 11.9083 5.71996 10.5184 7.42286 10.5184H10.9603C12.6636 10.5184 14.0363 11.9083 14.0363 13.6448C14.0363 14.0311 13.8707 14.398 13.5821 14.6488C12.3992 15.6791 10.8646 16.3013 9.18916 16.3013Z" fill="white"/>
</g>
<g clip-path="url(#clip1)">
<path d="M18.3824 23.9995C22.0372 23.9995 25 20.9774 25 17.2495C25 13.5216 22.0372 10.4995 18.3824 10.4995C14.7275 10.4995 11.7647 13.5216 11.7647 17.2495C11.7647 20.9774 14.7275 23.9995 18.3824 23.9995Z" fill="#118C01"/>
<path d="M17.9438 20.4513C17.5237 20.8798 16.8422 20.8798 16.4223 20.4513L14.065 18.0469C13.645 17.6187 13.645 16.9235 14.065 16.4952C14.4849 16.0668 15.1664 16.0668 15.5865 16.4952L16.991 17.9276C17.097 18.0355 17.2691 18.0355 17.3753 17.9276L21.1782 14.0486C21.5981 13.6202 22.2796 13.6202 22.6997 14.0486C22.9014 14.2544 23.0147 14.5335 23.0147 14.8245C23.0147 15.1154 22.9014 15.3946 22.6997 15.6003L17.9438 20.4513Z" fill="white"/>
</g>
<defs>
<clipPath id="clip0">
<rect width="18.3824" height="18.75" fill="white"/>
</clipPath>
<clipPath id="clip1">
<rect width="13.2353" height="13.5" fill="white" transform="translate(11.7647 10.5)"/>
</clipPath>
</defs>
</svg>
