<?xml version="1.0"?>
<svg xmlns="http://www.w3.org/2000/svg" xmlns:xlink="http://www.w3.org/1999/xlink" xmlns:svgjs="http://svgjs.com/svgjs" version="1.1" width="512" height="512" x="0" y="0" viewBox="0 0 60 60" style="enable-background:new 0 0 512 512" xml:space="preserve" class=""><g>
<g xmlns="http://www.w3.org/2000/svg">
	<path d="M44.07,15H5.93C2.66,15,0,17.66,0,20.929V42.07C0,45.34,2.66,48,5.93,48H12v10c0,0.413,0.254,0.784,0.64,0.933   C12.757,58.978,12.879,59,13,59c0.276,0,0.547-0.115,0.74-0.327L23.442,48H44.07c3.27,0,5.93-2.66,5.93-5.929V20.93   C50,17.66,47.34,15,44.07,15z" fill="#ffffff" data-original="#000000" style="" class=""/>
	<path d="M54.07,1H15.93C12.655,1,10,3.655,10,6.93V12c0,0.552,0.448,1,1,1h33.658C48.713,13,52,16.287,52,20.342V33   c0,0.552,0.448,1,1,1h4.07c1.618,0,2.93-1.312,2.93-2.93V6.93C60,3.655,57.345,1,54.07,1z" fill="#ffffff" data-original="#000000" style="" class=""/>
</g>
<g xmlns="http://www.w3.org/2000/svg">
</g>
<g xmlns="http://www.w3.org/2000/svg">
</g>
<g xmlns="http://www.w3.org/2000/svg">
</g>
<g xmlns="http://www.w3.org/2000/svg">
</g>
<g xmlns="http://www.w3.org/2000/svg">
</g>
<g xmlns="http://www.w3.org/2000/svg">
</g>
<g xmlns="http://www.w3.org/2000/svg">
</g>
<g xmlns="http://www.w3.org/2000/svg">
</g>
<g xmlns="http://www.w3.org/2000/svg">
</g>
<g xmlns="http://www.w3.org/2000/svg">
</g>
<g xmlns="http://www.w3.org/2000/svg">
</g>
<g xmlns="http://www.w3.org/2000/svg">
</g>
<g xmlns="http://www.w3.org/2000/svg">
</g>
<g xmlns="http://www.w3.org/2000/svg">
</g>
<g xmlns="http://www.w3.org/2000/svg">
</g>
</g></svg>
