<svg width="703" height="227" viewBox="0 0 703 227" fill="none" xmlns="http://www.w3.org/2000/svg">
<path d="M216.306 170.65L211.016 170.88C210.863 176.093 210.479 182.38 209.866 189.74C209.406 193.267 207.796 196.41 205.036 199.17C202.429 201.93 198.903 203.463 194.456 203.77C185.716 204.383 175.596 204.69 164.096 204.69C152.596 204.69 141.709 204.383 131.436 203.77C126.989 203.463 123.386 201.93 120.626 199.17C118.019 196.41 116.409 192.73 115.796 188.13C115.336 183.53 114.953 177.78 114.646 170.88H64.2759C56.4559 170.573 50.7059 169.577 47.0259 167.89C43.4992 166.05 41.7359 162.6 41.7359 157.54L41.5059 146.73C41.5059 140.597 43.0392 135.537 46.1059 131.55C64.8125 106.557 89.8059 78.0367 121.086 45.99C123.693 43.9967 127.373 43 132.126 43H193.766C200.206 43 204.423 44.61 206.416 47.83C208.563 51.05 209.943 57.1833 210.556 66.23C211.169 75.1233 211.476 94.75 211.476 125.11V134.31H216.306C219.526 134.31 221.979 135.46 223.666 137.76C225.506 139.907 226.426 142.283 226.426 144.89V158.23C226.426 166.203 223.053 170.343 216.306 170.65ZM86.8159 130.17C86.8159 132.93 88.2725 134.31 91.1859 134.31H114.186V95.67C111.119 99.0433 108.053 102.493 104.986 106.02C102.073 109.547 99.0059 113.15 95.7859 116.83C92.7192 120.51 90.4192 123.27 88.8859 125.11C87.5059 126.95 86.8159 128.637 86.8159 130.17Z" fill="#020236"/>
<path d="M674.306 170.65L669.016 170.88C668.863 176.093 668.479 182.38 667.866 189.74C667.406 193.267 665.796 196.41 663.036 199.17C660.429 201.93 656.903 203.463 652.456 203.77C643.716 204.383 633.596 204.69 622.096 204.69C610.596 204.69 599.709 204.383 589.436 203.77C584.989 203.463 581.386 201.93 578.626 199.17C576.019 196.41 574.409 192.73 573.796 188.13C573.336 183.53 572.953 177.78 572.646 170.88H522.276C514.456 170.573 508.706 169.577 505.026 167.89C501.499 166.05 499.736 162.6 499.736 157.54L499.506 146.73C499.506 140.597 501.039 135.537 504.106 131.55C522.813 106.557 547.806 78.0367 579.086 45.99C581.693 43.9967 585.373 43 590.126 43H651.766C658.206 43 662.423 44.61 664.416 47.83C666.563 51.05 667.943 57.1833 668.556 66.23C669.169 75.1233 669.476 94.75 669.476 125.11V134.31H674.306C677.526 134.31 679.979 135.46 681.666 137.76C683.506 139.907 684.426 142.283 684.426 144.89V158.23C684.426 166.203 681.053 170.343 674.306 170.65ZM544.816 130.17C544.816 132.93 546.273 134.31 549.186 134.31H572.186V95.67C569.119 99.0433 566.053 102.493 562.986 106.02C560.073 109.547 557.006 113.15 553.786 116.83C550.719 120.51 548.419 123.27 546.886 125.11C545.506 126.95 544.816 128.637 544.816 130.17Z" fill="#020236"/>
<g filter="url(#filter0_d)">
<path d="M418.595 59.0332C415.049 62.4443 410.997 65.434 406.501 67.885C399.602 71.6461 391.927 73.9796 384.025 74.7537C390.985 91.168 390.359 110.49 382.355 126.498C380.917 129.427 377.216 130.631 374.233 129.281C371.181 127.92 369.87 124.465 371.303 121.565C383.627 97.9872 373.672 66.7684 350.443 53.7258C341.674 49.7749 332.039 47.6978 322.302 47.6978C233.54 52.0798 236.889 167.725 314.5 190.258C318.007 191.415 321.278 192.341 324.441 193.237C332.62 195.553 339.682 197.553 346.808 202.539L347.982 203.361C350.136 204.868 353.071 204.868 355.224 203.361L356.399 202.539C363.524 197.553 370.586 195.553 378.765 193.237C381.928 192.341 385.199 191.415 388.708 190.259C447.229 173.994 470.726 93.8626 418.595 59.0332Z" fill="url(#paint0_linear)"/>
<path d="M373.993 58.2694C375.388 59.9317 376.69 61.6589 377.9 63.4387C385.683 63.4948 393.465 61.6136 400.423 57.8243C414.363 50.2241 422.897 36.0444 422.696 20.8191C422.669 18.7938 421.532 16.9281 419.696 15.8981C405.859 8.13541 388.615 8.02791 374.693 15.6193C364.043 21.4258 356.554 31.0746 353.699 42.0941C361.462 46.1108 368.391 51.5975 373.993 58.2694Z" fill="#116106"/>
</g>
<defs>
<filter id="filter0_d" x="252" y="10" width="199.493" height="202.491" filterUnits="userSpaceOnUse" color-interpolation-filters="sRGB">
<feFlood flood-opacity="0" result="BackgroundImageFix"/>
<feColorMatrix in="SourceAlpha" type="matrix" values="0 0 0 0 0 0 0 0 0 0 0 0 0 0 0 0 0 0 127 0" result="hardAlpha"/>
<feOffset dy="4"/>
<feGaussianBlur stdDeviation="2"/>
<feComposite in2="hardAlpha" operator="out"/>
<feColorMatrix type="matrix" values="0 0 0 0 0 0 0 0 0 0 0 0 0 0 0 0 0 0 0.25 0"/>
<feBlend mode="normal" in2="BackgroundImageFix" result="effect1_dropShadow"/>
<feBlend mode="normal" in="SourceGraphic" in2="effect1_dropShadow" result="shape"/>
</filter>
<linearGradient id="paint0_linear" x1="351.747" y1="47.6978" x2="351.747" y2="204.491" gradientUnits="userSpaceOnUse">
<stop stop-color="#05053D"/>
<stop offset="1" stop-color="#05053D" stop-opacity="0"/>
</linearGradient>
</defs>
</svg>
